<svg width="170" height="87" viewBox="0 0 170 87" fill="none" xmlns="http://www.w3.org/2000/svg">
<g clip-path="url(#clip0_111_1392)">
<path d="M130.144 -0.000317953H122.08C113.966 0.100631 92.6502 0.181391 36.9188 -0.000317953H0C0.0302778 9.75138 7.91261 17.8475 17.6823 17.8879L68.5793 18.11L82.6787 24.9241L13.1709 24.6515V24.8837C13.1305 34.6859 21.0431 40.6621 30.8531 40.7024L60.2832 40.8438L75.5028 47.7689L22.7286 47.5468C22.6882 57.3591 30.6109 63.3252 40.4209 63.3757L53.3496 63.4261L67.5095 70.1393L29.8741 69.9777C29.8338 79.9818 37.9079 86.0993 47.9096 86.1397L64.4716 86.2104C64.4716 86.2104 119.981 86.4426 123.11 86.4628C124.27 86.5637 125.451 86.6243 126.642 86.6344C150.481 86.7353 169.889 67.4843 169.99 43.6401C170.091 20.8457 152.509 1.71582 130.134 -0.0205078L130.144 -0.000317953Z" fill="#376EB5"/>
<path d="M121.333 34.2524L120.778 39.5421H147.887L145.959 59.1364L137.502 66.1625H96.3441L97.525 54.5937H124.634L125.128 49.2434H98.08L100.008 29.9015L108.465 22.623H149.562L148.442 34.2524H121.333V34.2524Z" fill="white"/>
</g>
<defs>
<clipPath id="clip0_111_1392">
<rect width="170" height="86.6549" fill="white"/>
</clipPath>
</defs>
</svg>
