<svg width="1920" height="63" viewBox="0 0 1920 63" fill="none" xmlns="http://www.w3.org/2000/svg">
<path d="M3109 43.0925C3109 43.0925 3105.66 43.3364 3102.27 44.0986C3100.21 44.5559 3095.96 41.1719 3092.02 40.8061C3088.08 40.4402 3087.41 41.5682 3085.47 41.9341C3083.47 42.2999 3082.19 42.2999 3078.92 41.5682C3075.64 40.8061 3069.7 41.2024 3066.42 41.2024C3063.15 41.2024 3058.3 37.6965 3055.69 39.6171C3053.08 41.5073 3045.86 42.6657 3043.86 41.9036C3041.86 41.1414 3035.25 36.3856 3033.25 37.5135C3031.25 38.672 3026.7 39.4037 3024.09 39.0379C3021.48 38.672 3019.48 42.0865 3016.87 42.0865C3014.27 42.0865 3011.6 42.8486 3008.99 41.7207C3006.32 40.5927 3006.99 41.7207 3003.05 42.8487C2999.1 43.9767 2995.83 44.373 2993.22 43.2145C2990.61 42.0865 2987.34 41.3243 2984.06 42.0865C2980.79 42.8487 2972.9 42.4523 2970.29 43.6108C2967.63 44.7388 2964.41 45.1351 2963.08 46.6594C2961.74 48.1838 2956.53 48.9459 2953.86 46.6594C2951.25 44.373 2947.92 43.6108 2944.64 44.373C2941.36 45.1351 2938.09 46.6594 2934.15 45.501C2930.21 44.373 2924.26 43.6108 2920.99 45.8668C2917.71 48.1533 2913.77 47.757 2910.49 48.1533C2907.22 48.5191 2903.94 48.5191 2900.67 49.2813C2897.39 50.0434 2890.18 51.1714 2890.18 51.1714C2890.18 51.1714 2885.57 54.9822 2883.63 55.7444C2881.62 56.5065 2876.41 56.5065 2875.74 55.348C2875.07 54.2201 2865.25 53.8237 2865.25 53.8237C2865.25 53.8237 2855.42 55.7139 2852.15 56.1102C2848.87 56.476 2844.26 58.7625 2841.66 59.1588C2838.99 59.5552 2835.11 59.921 2830.5 59.1588C2825.89 58.3967 2821.95 59.5552 2816.73 59.5552C2811.51 59.5552 2807.51 59.1588 2804.9 59.5552C2802.3 59.921 2797.69 59.1588 2800.29 58.0308C2802.9 56.9029 2797.02 55.7444 2797.02 55.7444C2797.02 55.7444 2795.08 53.0921 2793.08 54.6164C2791.07 56.1407 2789.13 57.2687 2785.19 57.2687C2781.25 57.2687 2777.97 57.2687 2775.37 58.0308C2772.7 58.793 2776.03 55.7444 2772.7 55.7444C2769.36 55.7444 2768.09 55.7444 2766.15 58.0308C2764.21 60.3173 2759.6 60.6832 2759.6 60.6832C2759.6 60.6832 2755.66 57.6345 2754.32 58.7625C2752.99 59.921 2747.77 61.049 2744.5 61.4148C2741.22 61.8112 2737.95 59.1283 2736.61 60.2868C2735.28 61.4148 2732.67 62.177 2730.06 62.177C2727.45 62.177 2719.57 61.4148 2719.57 61.4148C2719.57 61.4148 2714.29 60.2868 2711.02 60.2868C2707.74 60.2868 2703.13 61.049 2701.19 61.8111C2699.25 62.5733 2691.37 62.9391 2689.36 62.9391C2687.36 62.9391 2678.21 61.8111 2676.26 61.8111C2674.32 61.8111 2667.05 59.921 2663.77 59.5247C2660.5 59.1283 2658.49 59.5247 2653.95 58.3967C2649.4 57.2687 2647.4 57.6345 2643.45 56.5065C2639.51 55.3481 2636.9 57.2687 2634.9 56.1407C2632.9 54.9822 2630.29 54.9822 2628.35 56.1407C2626.35 57.2687 2625.68 57.665 2622.47 56.9029C2619.19 56.1407 2614.58 55.3785 2611.98 55.3785H2601.48C2599.48 55.3785 2596.21 53.8542 2596.21 53.8542C2596.21 53.8542 2592.93 54.2505 2590.93 54.9822C2588.99 55.7444 2586.99 56.5065 2585.05 54.9822C2583.11 53.4579 2578.5 52.3299 2577.83 53.4579C2577.16 54.5859 2575.22 56.1102 2571.89 55.348C2568.61 54.5859 2564 55.7444 2564 55.7444C2564 55.7444 2557.45 56.1102 2555.45 55.348C2553.51 54.5859 2548.23 53.0616 2546.23 53.8237C2544.29 54.5859 2537.07 57.6345 2537.07 57.6345C2537.07 57.6345 2527.86 59.1588 2526.58 58.0308C2525.31 56.9029 2523.97 56.5065 2522.64 55.3785C2521.3 54.2505 2518.7 55.0127 2515.42 53.8542C2512.09 52.7262 2508.81 51.9641 2508.81 51.9641C2508.81 51.9641 2502.26 52.3299 2500.32 52.7262C2498.38 53.0921 2495.77 54.2505 2493.77 55.7749C2491.83 57.2992 2489.16 58.0613 2485.22 58.0613C2481.28 58.0613 2475.39 59.1893 2471.45 59.1893C2467.51 59.1893 2467.51 58.0613 2464.9 56.1407C2462.29 54.2505 2453.07 53.4884 2451.13 53.4884C2449.19 53.4884 2445.25 53.0921 2441.91 53.0921C2438.58 53.0921 2434.7 56.1407 2430.76 56.1407C2426.81 56.1407 2420.26 54.2505 2420.26 54.2505C2420.26 54.2505 2415.05 54.6469 2411.71 54.6469C2408.38 54.6469 2406.43 53.5189 2403.16 53.5189C2399.88 53.5189 2397.88 52.7567 2395.27 52.3909C2392.67 52.025 2389.33 51.2629 2386.06 51.6287C2382.78 51.9945 2378.84 52.7567 2376.23 52.7567C2373.62 52.7567 2373.62 52.3909 2369.01 52.7567C2364.4 53.1226 2362.46 55.0432 2361.8 53.5189C2361.13 51.9946 2363.74 53.1226 2361.13 51.9946C2358.52 50.8666 2353.91 50.8666 2351.91 50.8666C2349.91 50.8666 2344.69 52.7567 2342.75 53.5189C2340.75 54.281 2337.48 55.409 2335.54 55.409C2333.59 55.409 2332.26 53.1226 2329.65 53.5189C2327.04 53.8847 2323.1 56.5675 2319.16 55.8054C2315.22 55.0432 2310 54.281 2308 54.281C2306 54.281 2302.12 55.409 2302.12 53.8847C2302.12 52.3604 2297.51 50.8361 2297.51 50.8361C2294.9 51.2324 2292.96 50.8361 2289.62 51.2324C2286.35 51.5982 2279.8 50.4702 2277.8 50.4702H2269.24C2267.24 50.4702 2262.69 50.1044 2260.69 50.4702C2258.69 50.8361 2256.08 52.7567 2254.14 52.7567H2248.2C2246.26 52.7567 2242.98 51.9946 2240.31 52.7567C2237.65 53.5189 2235.04 55.8053 2231.76 55.409C2228.49 55.0127 2230.49 54.281 2230.49 53.1226C2230.49 51.9641 2229.82 51.2324 2227.21 51.2324C2224.61 51.2324 2221.94 51.9946 2215.39 51.2324C2208.84 50.4702 2206.84 50.8361 2203.56 51.5982C2200.29 52.3604 2193.07 52.3604 2193.07 52.3604C2193.07 52.3604 2185.18 51.5982 2183.24 51.5982C2181.3 51.5982 2176.69 53.4884 2171.42 53.4884C2166.14 53.4884 2154.31 54.2505 2151.04 55.0127C2147.76 55.7749 2145.76 57.2992 2140.55 56.9029C2135.27 56.537 2130.66 55.3785 2128.72 56.537C2126.72 57.665 2120.84 58.4272 2118.83 58.8235C2116.89 59.1893 2112.28 59.1893 2112.28 59.1893C2112.28 59.1893 2110.34 58.4272 2110.34 57.2992C2110.34 56.1712 2108.34 55.0127 2106.4 55.7749C2104.46 56.537 2099.18 58.0613 2099.18 58.0613C2099.18 58.0613 2093.97 60.3478 2093.97 58.8235C2093.97 57.2992 2097.91 56.1712 2096.58 55.0127C2095.3 53.8847 2088.69 52.7262 2084.75 53.8847C2080.81 55.0127 2072.25 55.0127 2072.25 55.0127C2072.25 55.0127 2067.65 55.0127 2063.1 55.409C2058.49 55.7749 2051.27 55.7749 2049.33 55.0127C2047.33 54.2505 2041.44 54.2505 2041.44 54.2505C2041.44 54.2505 2033.56 53.0921 2030.95 52.7262C2028.34 52.3604 2020.46 51.5982 2016.52 51.5982C2012.58 51.5982 2004.69 52.3604 2002.75 53.1226C2000.75 53.8847 1990.26 53.1226 1986.31 53.1226H1976.49C1974.49 53.1226 1965.33 52.3604 1962.72 53.5189C1960.11 54.6469 1954.17 56.5675 1950.89 56.1712C1947.62 55.8053 1941.68 55.409 1939.07 55.409C1936.46 55.409 1927.91 55.0127 1923.3 55.7749C1918.69 56.537 1918.69 56.1407 1911.47 56.537C1904.26 56.9028 1902.92 58.0613 1899.65 56.9029C1896.37 55.7749 1894.37 55.3785 1892.43 54.6164C1890.49 53.8542 1887.82 54.6164 1883.27 53.8542C1878.66 53.0921 1877.33 51.9641 1873.45 51.5677C1869.5 51.2019 1867.56 50.8056 1860.28 50.8056C1853.01 50.8056 1846.52 50.8056 1843.24 49.6776C1839.97 48.5496 1834.69 48.1533 1832.75 48.1533C1830.81 48.1533 1822.26 51.9641 1822.26 51.9641C1822.26 51.9641 1813.71 51.5982 1811.76 50.8361C1809.82 50.0739 1815.71 47.7874 1810.49 47.0253C1805.21 46.2631 1800.67 46.629 1798.66 47.3911C1796.66 48.1533 1789.51 48.1533 1789.51 48.1533C1789.51 48.1533 1781.62 46.629 1777.68 47.0253C1773.74 47.3911 1766.52 48.1533 1763.91 48.1533C1761.3 48.1533 1752.08 48.1533 1750.14 48.9154C1748.14 49.6776 1738.98 50.4398 1738.98 50.4398C1738.98 50.4398 1729.77 50.0739 1726.49 48.9154C1723.22 47.7874 1715.33 47.7874 1710.72 48.5496C1706.11 49.3118 1702.17 53.1225 1698.23 51.9641C1694.29 50.8361 1688.4 48.9154 1685.13 48.9154C1681.85 48.9154 1673.3 49.6776 1672.63 48.1533C1672.03 46.629 1671.36 45.501 1671.36 43.9766C1671.36 42.4523 1664.14 40.5622 1664.14 40.5622C1664.14 40.5622 1656.26 41.3243 1653.65 42.8487C1650.98 44.373 1645.77 46.6594 1640.49 47.7874C1635.27 48.9154 1631.33 48.1533 1628.06 47.4216C1624.78 46.6594 1616.23 48.1838 1613.62 49.7081C1610.95 51.2324 1608.35 50.4702 1607.07 48.9459C1605.74 47.4216 1597.85 47.0558 1595.91 47.0558C1593.97 47.0558 1585.42 46.6594 1581.48 48.1838C1577.54 49.7081 1572.26 51.9946 1570.32 50.4702C1568.38 48.9459 1559.16 48.1838 1555.88 47.0558C1552.61 45.9278 1551.27 44.0071 1547.33 43.245C1543.39 42.4828 1539.45 42.117 1536.17 41.3548C1532.9 40.5927 1528.29 38.7025 1525.01 38.7025C1521.74 38.7025 1517.8 38.3062 1515.79 37.544C1513.79 36.7819 1506.64 36.7819 1504.63 36.0197C1502.63 35.2576 1496.08 34.1296 1492.81 34.1296C1489.53 34.1296 1482.98 34.8917 1479.71 33.0016C1476.43 31.1114 1473.76 29.9529 1471.16 29.1908C1468.55 28.4286 1463.94 29.1908 1461.33 27.3006C1458.66 25.4105 1461.33 23.124 1456.72 23.124C1452.11 23.124 1449.5 23.4898 1446.9 22.7582C1444.29 21.996 1441.68 21.5997 1438.34 21.5997C1435.01 21.5997 1434.4 21.5997 1430.46 20.8375C1426.52 20.0754 1421.91 19.3132 1418.63 20.0754C1415.3 20.8375 1408.75 17.7889 1405.47 19.3132C1402.2 20.8375 1391.7 25.0142 1389.1 23.124C1386.49 21.2338 1385.82 19.3132 1382.55 18.1852C1379.27 17.0267 1376 16.2646 1372.05 16.2646C1368.11 16.2646 1366.78 18.9169 1362.9 18.9169C1359.01 18.9169 1351.74 17.0267 1349.74 18.1547C1347.79 19.2827 1343.18 21.5692 1341.18 20.0449C1339.24 18.5206 1334.63 17.7584 1333.3 18.9169C1331.96 20.0449 1326.08 21.5997 1326.08 19.679C1326.08 17.7584 1324.75 15.8683 1322.81 15.4719C1320.81 15.1061 1318.86 15.1061 1314.92 15.1061C1310.98 15.1061 1304.43 15.8683 1303.1 16.9962C1301.76 18.1547 1295.21 20.0449 1293.94 18.5206C1292.6 16.9962 1286.05 15.8683 1284.11 15.8683C1282.17 15.8683 1272.29 16.2341 1272.29 16.2341C1272.29 16.2341 1266.34 13.9476 1263.73 15.4719C1261.13 16.9962 1254.52 18.1242 1251.91 17.7584C1249.24 17.3926 1243.36 18.5206 1238.81 18.5206C1234.26 18.5206 1228.98 16.2341 1226.31 17.3926C1223.71 18.5206 1218.43 21.9655 1216.49 20.4412C1214.49 18.9169 1209.94 18.1547 1207.27 18.9169C1204.66 19.679 1195.44 21.5692 1192.83 21.2034C1190.23 20.8375 1183.62 21.2034 1181.01 21.9655C1178.4 22.7277 1171.85 23.0935 1169.85 21.9655C1167.85 20.8375 1165.91 20.8375 1161.96 21.5692C1158.02 22.3314 1151.47 24.2215 1149.47 23.0935C1147.53 21.9655 1144.86 21.2034 1141.59 21.5692C1138.31 21.9655 1129.76 22.3314 1124.54 22.7277C1119.27 23.0935 1117.33 25.0142 1113.38 25.0142C1109.44 25.0142 1104.83 24.6178 1102.22 25.0142C1099.62 25.38 1097.01 26.1421 1093.07 25.38C1089.12 24.6178 1083.85 23.8557 1081.24 23.4898C1078.63 23.124 1073.35 25.0142 1069.41 24.6178C1065.47 24.2215 1063.53 22.3314 1058.25 23.4898C1052.98 24.6178 1049.7 23.124 1045.15 23.4898C1040.54 23.8557 1038.54 27.3006 1033.33 25.7763C1028.05 24.252 1022.83 23.4898 1021.5 22.3618C1020.16 21.2338 1011.01 19.7095 1009.01 20.0754C1007.06 20.4412 999.786 21.9655 997.846 22.7277C995.905 23.4898 984.745 22.3618 980.136 21.9655C975.527 21.5692 970.978 21.5692 968.309 21.5692C965.641 21.5692 961.759 21.9655 959.758 20.0449C957.817 18.1547 951.206 18.5206 949.265 18.9169C947.264 19.2827 943.322 15.5024 943.322 15.5024H933.496C931.495 15.5024 927.613 11.6916 926.279 13.6123C924.945 15.5024 920.396 16.6609 918.395 16.6609C916.393 16.6609 909.237 16.2646 907.235 15.8987C905.294 15.5329 900.685 17.7889 898.077 18.1852C895.469 18.551 892.801 19.3132 890.193 20.4717C887.584 21.5997 876.425 24.2825 874.424 25.0446C872.483 25.8068 870.481 27.3311 864.538 28.8554C858.655 30.3797 855.38 31.1419 849.436 32.3004C843.553 33.4284 837.609 34.1905 837.609 31.5382C837.609 28.8859 827.784 31.5382 830.392 29.2518C833 26.9653 831.059 26.569 831.059 25.441C831.059 24.313 827.784 23.1545 823.175 24.6788C818.565 26.2031 814.016 24.6788 814.016 24.6788C814.016 24.6788 810.074 20.868 806.799 20.868C803.524 20.868 799.582 20.868 796.974 22.7582C794.366 24.6483 790.424 25.4105 788.422 23.8862C786.421 22.3618 774.655 23.5203 771.986 23.8862C769.378 24.2825 764.102 24.2825 760.827 23.8862C757.552 23.5203 752.275 23.124 749 23.5203C745.725 23.8862 737.173 24.2825 737.173 24.2825C737.173 24.2825 732.564 22.3923 728.015 21.6302C723.406 20.868 718.19 20.868 713.581 19.74C708.971 18.612 702.421 17.8499 701.087 19.74C699.753 21.6302 698.479 21.6302 693.87 21.6302C689.26 21.6302 680.708 21.6302 678.768 22.0265C676.827 22.3923 670.883 22.3923 668.275 22.3923C665.667 22.3923 661.058 25.441 658.45 23.9166C655.842 22.3923 654.508 22.3923 650.566 24.313C646.623 26.2031 643.348 26.9653 641.407 25.4715C639.406 23.9471 638.8 21.2948 636.798 21.2948C634.797 21.2948 626.306 22.8191 623.031 22.8191C619.755 22.8191 615.813 23.5813 611.204 22.8191C606.595 22.057 600.044 20.929 598.043 22.057C596.102 23.185 593.433 26.6299 589.491 26.6299C585.549 26.6299 576.998 26.2641 574.39 25.5019C571.782 24.7398 567.172 25.1361 563.897 26.2641C560.622 27.3921 563.23 29.3127 558.014 28.9164C552.738 28.5506 550.13 27.7884 548.189 29.3127C546.187 30.837 543.579 33.8857 539.637 33.1235C535.695 32.3614 535.695 31.5992 533.754 30.4712C531.753 29.3432 526.537 27.8189 521.928 29.3432C517.318 30.8675 512.709 31.9955 508.16 31.2334C503.551 30.4712 498.335 29.709 494.393 30.4712C490.45 31.2334 486.508 32.3614 484.567 33.5198C482.566 34.6478 479.291 33.8857 476.683 32.7577C474.075 31.6297 467.464 30.4712 466.191 32.3918C464.856 34.282 461.581 35.8368 457.639 35.8368C453.697 35.8368 451.089 38.1233 445.812 37.727C440.536 37.3611 435.987 37.727 433.318 38.0928C430.71 38.4891 428.709 39.6171 426.101 41.1414C423.493 42.6657 419.551 43.4279 418.217 42.2694C416.882 41.1414 410.999 39.6171 409.665 41.1414C408.331 42.6657 405.723 44.5559 399.84 43.7937C393.957 43.0316 394.563 43.4279 391.955 45.318C389.348 47.2387 385.405 47.6045 383.404 47.6045C381.402 47.6045 382.737 50.6532 376.187 50.6532C369.636 50.6532 368.969 51.4153 365.027 49.891C361.085 48.3667 359.75 48.3667 354.534 48.3667C349.319 48.3667 345.376 46.4765 343.375 45.318C341.434 44.19 340.1 44.9522 333.55 44.9522C327 44.9522 321.723 48.0008 317.114 46.8424C312.504 45.7144 307.288 45.318 298.07 44.9522C288.851 44.5559 290.852 44.9522 284.302 43.7937C277.752 42.6657 275.083 40.7451 271.202 41.9036C267.26 43.0621 261.377 44.1901 259.375 43.4279C257.434 42.6657 247.548 43.4279 244.273 42.6657C240.998 41.9036 235.055 41.5073 227.837 41.1414C220.62 40.7756 208.793 40.3793 206.852 38.8549C204.912 37.3306 199.635 39.6171 194.359 37.3306C189.082 35.0442 184.533 35.4405 182.532 33.9162C180.531 32.3918 177.255 32.3918 175.315 30.8675C173.313 29.3432 170.038 29.7395 166.096 30.1054C162.154 30.4712 153.602 27.0567 148.386 28.2152C143.11 29.3432 140.502 32.026 134.619 32.026C128.736 32.026 124.793 30.898 121.518 32.026C118.243 33.154 108.418 33.154 104.476 33.154C100.534 33.154 93.9834 30.1054 90.7084 32.026C87.4332 33.9162 84.1582 35.8368 80.8832 35.4405C77.608 35.0442 68.3893 34.3125 66.4485 34.6783C64.447 35.0442 58.5641 35.4405 55.2889 35.4405C52.0139 35.4405 49.406 36.2026 44.1295 36.2026C38.8529 36.2026 36.245 35.4405 30.3619 36.9648C24.4789 38.4891 21.2039 38.8549 17.2616 37.727C13.3193 36.599 1.49268 37.727 0.219116 34.6783C-1.11523 31.6297 2.15991 29.7395 -4.39026 30.5017C-10.9404 31.2638 -14.2156 31.2638 -15.5499 30.1359C-16.8842 29.0079 -21.4329 25.9592 -28.0437 25.9592C-34.6545 25.9592 -43.1455 24.4349 -43.1455 22.1484C-43.1455 19.862 -51.0299 20.6241 -52.3643 18.3376C-53.6985 16.0512 -54.9722 14.9232 -60.2487 14.161C-65.4646 13.3989 -70.074 13.0025 -74.0162 13.0025C-77.9584 13.0025 -80.5663 13.3684 -84.5085 12.2404C-88.4508 11.1124 -90.0277 11.8441 -95.3042 12.2404C-100.52 12.6367 -106.464 14.1305 -110.406 13.3989C-114.348 12.6367 -114.106 18.2157 -116.774 17.4535C-119.382 16.6914 -125.993 18.9779 -129.268 18.5815C-132.543 18.2157 -138.487 19.7095 -142.368 19.7095C-146.25 19.7095 -148.919 19.7095 -154.195 18.5815C-159.472 17.4535 -163.414 15.5329 -166.689 14.7707C-169.964 14.0086 -175.908 12.4843 -182.458 13.2464C-189.008 14.0086 -192.283 13.2464 -195.558 12.8806C-198.833 12.5148 -207.385 12.8806 -212.661 12.5148C-217.938 12.1184 -228.43 6.81381 -229.704 8.33813C-231.038 9.86245 -231.038 12.9111 -236.921 10.9904C-242.804 9.10029 -242.198 9.86244 -244.806 11.3563C-247.414 12.8806 -252.69 12.1184 -252.69 12.1184C-252.69 12.1184 -258.634 14.4049 -259.907 12.5148C-261.242 10.6246 -265.79 9.86245 -268.459 11.3868C-271.067 12.9111 -273.736 12.5148 -276.344 11.7526C-278.951 10.9904 -280.953 9.10029 -286.169 10.2283C-291.445 11.3563 -291.445 12.5148 -294.053 10.6246C-296.661 8.73445 -299.936 10.2283 -307.154 9.86245C-314.371 9.49661 -315.705 7.21014 -320.921 10.2283C-326.198 13.2769 -328.806 14.8012 -332.081 11.7526C-335.356 8.70397 -341.906 9.86245 -349.123 9.86245C-356.34 9.86245 -360.95 9.86245 -366.166 11.7526C-371.442 13.6428 -376.658 14.4049 -382.602 14.0391C-388.485 13.6428 -392.427 12.5148 -397.703 13.6428C-402.98 14.8012 -410.864 15.5329 -414.807 15.5329C-418.749 15.5329 -429.241 14.4049 -431.849 15.5329C-434.457 16.6609 -443.676 21.6302 -444.95 18.5815C-446.284 15.5329 -441.674 13.2464 -446.89 12.4843C-452.167 11.7221 -459.384 12.4843 -463.326 12.4843C-467.269 12.4843 -472.545 11.7221 -473.819 13.6123C-475.153 15.5024 -484.311 17.4231 -488.921 15.5024C-493.53 13.6123 -498.746 12.4538 -503.355 11.6916C-507.965 10.9295 -522.399 10.5636 -526.341 11.3258C-530.284 12.0879 -537.501 14.3744 -541.443 15.8987C-545.385 17.4231 -547.993 16.6609 -554.604 17.7889C-561.154 18.9169 -570.373 20.8375 -572.981 18.9169C-575.589 17.0267 -579.531 15.5024 -585.475 16.2646C-591.358 17.0267 -593.359 18.5511 -599.91 17.3926C-606.46 16.2646 -609.735 14.7403 -612.403 14.7403C-615.072 14.7403 -622.229 15.5024 -630.113 14.7403C-637.997 13.9781 -639.999 14.3439 -645.215 13.5818C-650.491 12.8196 -654.434 13.9781 -660.317 13.5818C-666.2 13.2159 -673.417 12.0575 -676.086 12.8196C-678.693 13.5818 -685.911 16.9962 -691.187 16.9962C-696.464 16.9962 -697.07 17.3926 -699.739 18.1547C-702.347 18.9169 -708.29 19.2827 -710.231 19.2827C-712.172 19.2827 -712.172 21.5692 -718.783 23.0935C-725.333 24.6178 -724.666 23.8557 -731.277 24.6178C-737.827 25.38 -747.046 29.5566 -748.986 29.5566C-750.927 29.5566 -754.869 29.5566 -760.146 28.7945C-765.422 28.0323 -769.971 30.6846 -772.64 31.8431C-775.248 33.0016 -788.409 35.6539 -791.684 35.6539C-794.959 35.6539 -806.118 35.2576 -810.061 34.1296C-814.003 33.0016 -823.161 34.8917 -825.83 35.6539C-828.438 36.416 -838.991 36.416 -842.266 36.416C-845.541 36.416 -854.759 36.0502 -856.7 36.416C-858.641 36.7819 -862.583 36.416 -867.193 38.3062C-871.802 40.1963 -875.744 40.1963 -879.686 39.4647C-883.629 38.7025 -888.238 42.117 -892.787 39.4647C-897.396 36.7819 -905.281 35.2576 -911.164 34.8917C-917.047 34.4954 -924.264 36.0502 -930.208 34.4954C-936.091 32.9711 -936.758 32.2089 -942.702 32.9711C-948.585 33.7332 -951.92 35.6234 -958.47 34.4954C-965.021 33.3674 -971.571 33.7332 -975.513 34.1296C-979.455 34.4954 -986.005 35.288 -989.948 34.4954C-993.89 33.7332 -994.557 29.6786 -998.499 30.4407C-1002.44 31.2029 -1016.75 27.0263 -1019.42 28.5506C-1022.03 30.0749 -1025.31 32.7272 -1029.92 32.3614C-1034.53 31.9955 -1038.47 31.5992 -1040.41 32.7272C-1042.35 33.8552 -1045.68 35.7758 -1050.9 35.7758C-1056.12 35.7758 -1059.45 37.3001 -1061.39 38.0623C-1063.33 38.8245 -1071.22 39.9525 -1074.55 41.1109C-1077.83 42.2389 -1079.83 43.0011 -1088.32 43.0011C-1096.81 43.0011 -1097.54 43.0011 -1101.42 41.1109C-1105.36 39.2208 -1107.97 39.1903 -1111.91 40.7146C-1115.86 42.2389 -1120.47 44.1291 -1127.02 44.1291C-1133.57 44.1291 -1138.84 44.8912 -1142.78 45.2571C-1146.73 45.6229 -1155.22 43.8852 -1159.16 43.5498C-1176.2 42.117 -1188.21 43.245 -1188.21 43.245V-17.2704C-1188.21 -17.2704 -1177.6 -14.801 -1173.29 -17.2704C-1169.05 -19.7398 -1160.49 -16.1119 -1160.49 -16.1119H-1147.7C-1143.45 -16.1119 -1140.24 -16.7521 -1137.08 -17.9716C-1133.87 -19.2215 -1129.62 -17.9716 -1124.29 -16.7521C-1118.95 -15.5022 -1113.67 -18.6118 -1110.46 -21.0812C-1107.24 -23.5506 -1096.63 -22.3006 -1092.38 -22.3006C-1088.14 -22.3006 -1079.59 -23.5201 -1075.34 -23.5201C-1071.1 -23.5201 -1062.55 -24.77 -1059.39 -24.77C-1056.24 -24.77 -1047.69 -26.6297 -1043.44 -27.2394C-1039.2 -27.8491 -1027.07 -25.9895 -1027.07 -28.4589C-1027.07 -30.9283 -1022.82 -32.7879 -1018.57 -32.1477C-1014.33 -31.538 -1010.08 -32.1477 -1006.87 -32.1477C-1003.65 -32.1477 -995.042 -28.6113 -989.705 -28.0016C-984.368 -27.3918 -978 -29.8612 -973.754 -31.6904C-969.509 -33.5501 -964.172 -31.6904 -957.803 -32.3001C-951.435 -32.9099 -946.098 -35.3793 -942.883 -35.3793C-939.669 -35.3793 -924.81 -35.989 -922.626 -37.8487C-920.504 -39.7083 -919.412 -40.3181 -911.952 -39.7083C-904.492 -39.0986 -902.369 -39.0986 -897.032 -39.7083C-891.695 -40.3181 -887.45 -40.3181 -881.081 -40.9278C-874.713 -41.5375 -865.131 -43.3972 -856.579 -43.3972C-848.027 -43.3972 -825.708 -44.0069 -821.463 -44.0069C-817.217 -44.0069 -805.512 -44.6166 -800.175 -45.8666C-794.838 -47.086 -788.469 -47.7262 -784.224 -48.9457C-779.978 -50.1651 -772.519 -50.1651 -769.304 -51.4151C-766.09 -52.6345 -759.721 -55.1344 -756.568 -52.665C-753.353 -50.1956 -744.862 -49.5859 -740.617 -48.336C-736.371 -47.1165 -731.034 -47.1165 -728.911 -52.0248C-726.789 -56.9636 -720.42 -52.0248 -713.992 -51.4151C-707.623 -50.8053 -704.409 -48.9457 -700.163 -48.336C-695.918 -47.7262 -693.795 -47.7262 -689.55 -48.336C-685.304 -48.9457 -680.998 -52.665 -680.998 -52.665C-680.998 -52.665 -672.507 -54.5247 -668.201 -55.7441C-663.956 -56.9636 -653.281 -54.5247 -649.036 -53.2747C-644.79 -52.0248 -640.545 -52.665 -637.33 -54.5247C-634.116 -56.3843 -631.993 -53.8845 -626.717 -52.665C-621.38 -51.4151 -617.134 -52.0553 -613.92 -52.0553C-610.705 -52.0553 -606.46 -51.4456 -602.214 -53.3052C-597.969 -55.1649 -604.337 -58.244 -604.337 -61.9329C-604.337 -65.6217 -595.846 -58.8537 -591.54 -55.7441C-587.294 -52.665 -588.325 -52.0553 -581.957 -52.0553C-575.589 -52.0553 -576.62 -53.3052 -572.375 -53.3052C-568.129 -53.3052 -562.792 -51.4456 -558.546 -50.2261C-554.301 -49.0067 -542.596 -49.6164 -536.167 -49.6164C-529.738 -49.6164 -523.37 -52.0858 -515.91 -50.8663C-508.45 -49.6164 -518.032 -56.4148 -513.787 -56.4148C-509.541 -56.4148 -503.113 -57.6343 -497.836 -58.244C-492.499 -58.8537 -491.468 -56.4148 -489.345 -53.915C-487.222 -51.4456 -485.1 -49.5859 -481.885 -49.5859C-478.671 -49.5859 -476.548 -55.1344 -470.18 -55.1344C-463.812 -55.1344 -462.72 -51.4151 -459.566 -50.1956C-456.352 -48.9762 -445.738 -53.2747 -441.493 -54.5247C-437.247 -55.7441 -430.818 -52.665 -425.542 -52.0553C-420.205 -51.4456 -410.622 -52.665 -407.468 -54.5247C-404.314 -56.3843 -395.763 -52.0553 -395.763 -52.0553C-395.763 -52.0553 -382.966 -49.5859 -377.689 -48.9762C-372.352 -48.336 -359.616 -52.0553 -359.616 -52.0553C-359.616 -52.0553 -343.665 -54.5247 -340.45 -55.1344C-337.236 -55.7441 -334.082 -57.6038 -327.714 -56.9941C-321.346 -56.3843 -317.039 -55.7746 -307.457 -55.1344C-297.874 -54.5247 -302.12 -59.4635 -298.966 -57.6038C-295.751 -55.7441 -292.598 -56.3843 -288.352 -57.6038C-284.107 -58.8233 -278.769 -57.6038 -278.769 -57.6038C-278.769 -57.6038 -268.095 -59.4635 -264.941 -56.3843C-261.727 -53.3052 -257.482 -54.5247 -253.236 -53.3052C-248.991 -52.0858 -243.653 -52.0553 -240.5 -52.6955C-237.285 -53.3052 -227.702 -52.0858 -222.365 -52.0858C-217.028 -52.0858 -210.66 -50.8663 -210.66 -53.9454C-210.66 -57.0246 -203.2 -55.1954 -197.863 -53.3357C-192.526 -51.476 -190.403 -51.476 -186.157 -49.6164C-181.912 -47.7567 -175.544 -47.7567 -171.238 -47.147C-166.992 -46.5373 -159.532 -47.147 -156.318 -49.6164C-153.103 -52.0858 -147.827 -49.0067 -144.612 -45.9275C-141.398 -42.8484 -135.394 -50.3176 -132.179 -49.6774C-129.025 -49.0676 -121.565 -48.4579 -116.228 -48.4579C-110.891 -48.4579 -108.89 -51.9333 -103.613 -51.9333C-98.3367 -51.9333 -94.0305 -51.3236 -90.816 -51.3236C-87.6017 -51.3236 -82.3252 -50.7139 -73.7736 -49.464C-65.2826 -48.214 -63.1599 -49.464 -58.8538 -48.214C-54.6083 -46.9946 -48.24 -45.1349 -42.9028 -44.5252C-37.5657 -43.9154 -31.1975 -42.6655 -23.7375 -42.0558C-16.2776 -41.446 -9.90942 -38.9767 -9.90942 -38.9767C-9.90942 -38.9767 -3.54126 -37.117 5.01038 -38.3669C13.5013 -39.6169 13.5013 -37.7572 13.5013 -37.7572L23.084 -37.1475C23.084 -37.1475 33.7583 -37.1475 38.0038 -35.2878C42.2493 -33.4281 48.6782 -34.6781 48.6782 -37.1475C48.6782 -39.6169 52.9236 -40.2266 58.2607 -40.8363C63.5979 -41.446 64.629 -39.5864 67.8434 -37.7572C71.0579 -35.8975 76.3344 -34.0684 77.426 -31.599C78.5178 -29.1296 84.886 -27.9101 88.1005 -27.9101C91.3149 -27.9101 95.5603 -30.9892 96.5914 -33.4586C97.6831 -35.928 104.051 -32.8184 109.388 -32.8184C114.726 -32.8184 122.186 -34.0684 122.186 -34.0684C122.186 -34.0684 130.677 -35.928 133.891 -35.928C137.105 -35.928 149.842 -40.2571 151.965 -42.0863C154.087 -43.9459 163.67 -43.3362 164.762 -41.4765C165.793 -39.6169 173.253 -37.7877 173.253 -37.7877C173.253 -37.7877 181.744 -35.3183 184.958 -32.8489C188.172 -30.3795 191.326 -33.4891 196.663 -35.3183C202 -37.178 206.246 -37.178 206.246 -37.178C206.246 -37.178 213.706 -38.3974 219.043 -37.7877C224.38 -37.178 226.503 -37.178 233.963 -35.928C241.423 -34.7086 240.331 -32.8489 245.668 -30.9892C251.005 -29.1296 252.036 -30.9892 255.251 -33.4586C258.465 -35.928 263.742 -36.5377 263.742 -36.5377C263.742 -36.5377 270.11 -40.2266 276.539 -40.2266C282.968 -40.2266 280.785 -38.3669 282.907 -36.5377C285.03 -34.6781 290.367 -34.6781 289.276 -36.5377C288.244 -38.3974 291.398 -40.2266 292.49 -42.0863C293.521 -43.9459 298.858 -42.696 303.164 -40.8363C307.41 -38.9767 312.747 -37.1475 314.87 -34.6781C316.992 -32.2087 328.698 -37.1475 335.127 -40.2266C341.495 -43.3057 344.709 -41.446 352.169 -41.446C359.629 -41.446 357.506 -41.446 371.334 -44.5252C385.162 -47.6043 377.703 -46.3848 384.071 -45.7446C390.439 -45.1349 392.622 -45.1349 397.899 -47.6043C403.236 -50.0737 400.022 -50.6834 404.267 -48.8237C408.513 -46.9641 409.604 -45.7446 413.85 -44.5252C418.095 -43.2752 422.341 -43.9154 425.555 -43.9154C428.77 -43.9154 439.383 -45.1654 442.598 -45.1654C445.812 -45.1654 454.303 -42.0863 459.64 -42.0863C464.977 -42.0863 469.223 -41.446 474.56 -39.6169C479.897 -37.7572 483.112 -39.6169 489.48 -42.0863C495.848 -44.5557 493.726 -44.5557 500.154 -44.5557C506.583 -44.5557 509.737 -47.025 512.951 -45.7751C516.166 -44.5557 525.749 -42.696 531.025 -43.3057C536.362 -43.9154 539.577 -45.1654 542.73 -43.9154C545.945 -42.6655 552.313 -43.9154 555.528 -45.1654C558.742 -46.3848 564.019 -44.5557 569.356 -43.3057C574.693 -42.0558 577.847 -40.8363 583.184 -41.446C588.521 -42.0558 597.012 -39.5864 600.226 -39.5864C603.441 -39.5864 613.024 -39.5864 616.177 -40.8058C619.392 -42.0558 624.668 -41.4156 627.883 -41.4156C631.097 -41.4156 639.588 -42.0253 642.802 -42.6655C646.017 -43.2752 651.293 -42.6655 654.508 -42.0558C657.722 -41.446 666.213 -42.6655 666.213 -42.6655C666.213 -42.6655 673.673 -44.5252 683.256 -44.5252H701.329C704.544 -44.5252 713.035 -44.5252 716.249 -43.9154C719.464 -43.3057 721.586 -43.3057 724.801 -41.446C728.015 -39.5864 733.292 -40.8363 736.506 -40.8363C739.721 -40.8363 747.181 -40.8363 750.334 -38.3669C753.488 -35.8975 759.917 -37.7572 763.071 -38.9767C766.285 -40.2266 772.653 -39.5864 775.868 -37.7572C779.022 -35.8975 784.359 -37.1475 788.604 -37.7572C792.85 -38.3669 801.401 -38.9767 801.401 -38.9767C801.401 -38.9767 809.892 -38.9767 818.444 -38.3669C826.935 -37.7572 828.027 -45.1349 828.027 -45.1349L840.824 -43.9154C840.824 -43.9154 849.315 -44.5252 853.56 -45.7751C857.806 -46.9946 861.02 -48.2445 863.143 -50.1042C865.265 -51.9638 871.634 -48.2445 872.725 -45.7751C873.817 -43.3057 880.185 -43.3057 884.431 -44.5557C888.676 -45.7751 892.922 -45.1654 897.167 -45.1654C901.413 -45.1654 910.995 -46.4153 910.995 -46.4153C910.995 -46.4153 920.578 -47.025 923.732 -46.4153C926.946 -45.8056 933.314 -46.4153 937.56 -48.8847C941.805 -51.3541 949.265 -49.4944 955.633 -48.8847C962.002 -48.275 964.185 -49.4944 971.584 -50.1347C979.044 -50.7444 984.381 -52.604 984.381 -52.604C984.381 -52.604 998.209 -54.4637 1004.64 -54.4637C1011.07 -54.4637 1014.22 -54.4637 1017.44 -52.604C1020.65 -50.7444 1025.99 -52.604 1034.48 -52.604C1042.97 -52.604 1047.28 -52.604 1051.52 -51.3846C1055.77 -50.1347 1061.1 -51.3846 1064.32 -52.604C1067.53 -53.8235 1076.02 -54.4637 1076.02 -54.4637C1076.02 -54.4637 1085.61 -54.4637 1093.07 -53.854C1100.53 -53.2443 1107.99 -54.4637 1116.54 -53.854C1125.03 -53.2443 1124 -57.5733 1127.15 -57.5733C1130.3 -57.5733 1133.52 -58.183 1140.98 -58.183C1148.44 -58.183 1149.47 -60.0427 1153.78 -60.6524C1158.02 -61.2622 1161.24 -61.2622 1161.24 -61.2622C1161.24 -61.2622 1173 -60.0427 1179.37 -60.6524C1185.74 -61.2622 1189.98 -63.1218 1193.2 -63.1218C1196.41 -63.1218 1201.69 -61.2622 1206 -61.2622C1210.3 -61.2622 1214.49 -60.0427 1217.7 -60.0427C1220.92 -60.0427 1230.5 -60.0427 1231.53 -58.183C1232.62 -56.3234 1245.36 -56.9636 1249.66 -55.7136C1253.91 -54.4637 1261.37 -54.4637 1264.52 -54.4637C1267.68 -54.4637 1275.2 -56.3234 1283.69 -55.7136C1292.18 -55.1039 1296.48 -54.4637 1302.85 -52.6345C1309.28 -50.7749 1315.65 -52.0248 1318.86 -50.1651C1322.08 -48.3055 1327.36 -47.6957 1330.57 -47.6957C1333.78 -47.6957 1344.4 -50.1651 1344.4 -50.1651C1344.4 -50.1651 1351.86 -53.2443 1357.13 -51.4151C1362.47 -49.5554 1367.81 -51.4151 1370.96 -49.5554C1374.12 -47.6957 1376.3 -47.6957 1381.64 -47.6957C1386.97 -47.6957 1390.19 -46.4458 1393.34 -45.8361C1396.56 -45.2264 1405.05 -43.3667 1409.29 -43.3667C1413.54 -43.3667 1418.88 -42.757 1422.09 -40.2876C1425.3 -37.8182 1430.58 -39.6778 1434.89 -41.5375C1439.13 -43.3972 1439.13 -42.7874 1443.38 -42.7874H1456.18L1468.97 -44.0374C1468.97 -44.0374 1471.1 -39.7083 1475.4 -39.0986C1479.65 -38.4889 1483.89 -40.3181 1486.01 -42.7874C1488.14 -45.2568 1490.26 -45.2568 1494.51 -44.6471C1498.75 -44.0374 1497.72 -42.1777 1501.97 -40.3181C1506.21 -38.4889 1512.64 -37.8487 1514.76 -34.1598C1516.89 -30.471 1525.38 -36.0195 1525.38 -36.0195C1525.38 -36.0195 1531.74 -36.6292 1537.08 -36.0195C1542.42 -35.4098 1540.3 -33.5501 1542.42 -30.471C1544.54 -27.3918 1553.09 -32.3306 1557.34 -33.5501C1561.65 -34.7695 1562.68 -31.6904 1568.01 -29.8612C1573.35 -28.0321 1583.96 -28.6418 1583.96 -28.6418C1583.96 -28.6418 1595.67 -27.4223 1599.92 -27.4223C1604.16 -27.4223 1616.96 -28.6418 1620.17 -29.282C1623.33 -29.8917 1630.79 -29.8917 1635.03 -29.282C1639.28 -28.6723 1643.52 -26.8126 1645.71 -23.7335C1647.83 -20.6544 1656.38 -26.2029 1656.38 -26.2029C1656.38 -26.2029 1663.84 -29.282 1664.87 -26.2029C1665.96 -23.1238 1671.3 -25.5932 1674.45 -26.2029C1677.67 -26.8126 1684.04 -26.8126 1687.25 -26.8126C1690.46 -26.8126 1697.93 -25.5627 1702.17 -25.5627C1706.42 -25.5627 1718.12 -26.1724 1722.37 -26.1724H1737.29C1743.65 -26.1724 1752.21 -26.1724 1756.45 -27.3918C1760.7 -28.6113 1771.37 -27.3918 1777.74 -27.3918C1784.11 -27.3918 1793.69 -28.6113 1796.91 -28.6113C1800.12 -28.6113 1806.49 -28.6113 1811.82 -30.471C1817.16 -32.3306 1821.41 -28.6113 1821.41 -28.6113C1821.41 -28.6113 1826.74 -26.7516 1832.02 -26.7516C1837.3 -26.7516 1846.94 -25.5322 1850.09 -24.892C1853.31 -24.2822 1867.14 -24.892 1870.35 -23.6725C1873.57 -22.4531 1884.18 -19.9837 1899.1 -18.124C1914.02 -16.2948 1917.17 -15.6546 1920.39 -14.4352C1923.6 -13.1852 1931 -14.4352 1933.18 -16.2948C1935.31 -18.124 1942.77 -18.124 1942.77 -16.2948C1942.77 -14.4656 1944.89 -13.8254 1949.14 -12.606C1953.38 -11.3865 1973.64 -10.7463 1978.98 -10.1366C1984.25 -9.52686 1999.17 -10.1366 2003.48 -8.88665C2007.72 -7.66719 2019.43 -8.88664 2022.64 -10.1366C2025.86 -11.356 2034.35 -10.7463 2034.35 -10.7463C2034.35 -10.7463 2046.05 -10.7463 2049.21 -9.52686C2052.42 -8.3074 2057.76 -8.27692 2064.13 -7.05746C2070.56 -5.83801 2076.92 -8.3074 2076.92 -8.3074C2076.92 -8.3074 2088.63 -9.55734 2092.88 -10.1671C2097.12 -10.7768 2101.37 -10.1671 2108.83 -10.1671C2116.29 -10.1671 2125.87 -10.7768 2129.08 -10.7768C2132.3 -10.7768 2137.57 -11.3865 2140.79 -12.6365C2144 -13.8864 2148.25 -12.6365 2149.28 -10.1671C2150.37 -7.69768 2155.65 -8.91713 2158.86 -8.91713C2162.08 -8.91713 2172.69 -10.1671 2172.69 -10.1671C2172.69 -10.1671 2179.06 -10.1671 2185.43 -7.69768C2191.8 -5.22829 2198.22 -10.1671 2203.5 -9.55734C2208.84 -8.94762 2213.08 -9.55735 2221.57 -10.7768C2230.07 -11.9963 2236.49 -10.7768 2239.71 -10.1671C2242.86 -9.55734 2248.2 -9.55734 2251.41 -11.3865C2254.63 -13.2462 2264.21 -11.9963 2268.46 -11.3865C2272.7 -10.7768 2279.13 -11.3865 2284.41 -11.9963C2289.74 -12.606 2297.2 -11.9963 2302.54 -11.3865C2307.88 -10.7768 2314.25 -11.3865 2318.49 -13.2462C2322.74 -15.1059 2328.08 -14.4961 2334.44 -15.1059C2340.81 -15.7156 2341.9 -16.9655 2341.9 -19.4349C2341.9 -21.9043 2349.36 -21.2946 2349.36 -18.185C2349.36 -15.0754 2352.58 -14.4961 2352.58 -14.4961C2352.58 -14.4961 2361.07 -11.417 2365.31 -11.417C2369.56 -11.417 2373.8 -9.55734 2378.05 -8.33789C2382.36 -7.08795 2386.6 -8.94762 2389.76 -10.1976C2392.97 -11.417 2402.55 -11.417 2402.55 -11.417L2411.04 -8.33789C2411.04 -8.33789 2418.5 -8.33789 2422.75 -10.1976C2426.99 -12.0572 2431.24 -10.1976 2434.45 -10.8073C2437.67 -11.417 2445.13 -12.0572 2448.28 -10.1976C2451.5 -8.33789 2455.74 -9.58783 2459.99 -10.1976C2464.23 -10.8073 2470.66 -8.94762 2475.94 -8.94762C2481.22 -8.94762 2482.31 -12.0267 2483.4 -14.4961C2484.43 -16.9655 2490.86 -15.7461 2492.98 -13.2462C2495.1 -10.7768 2498.32 -10.1671 2502.56 -9.55734C2506.81 -8.94762 2511.06 -12.0267 2515.3 -9.55734C2519.61 -7.08795 2525.97 -10.7768 2529.13 -11.417C2532.34 -12.0267 2538.71 -9.55734 2538.71 -9.55734H2554.66C2561.09 -9.55734 2563.21 -6.47823 2563.21 -4.61856C2563.21 -2.75889 2568.55 -3.36862 2572.8 -4.61856C2577.04 -5.83801 2579.17 -2.75889 2587.72 -5.22828C2596.27 -7.69767 2596.27 -5.22829 2599.42 -3.36862C2602.64 -1.50895 2604.76 -2.14917 2610.04 -3.36862C2615.37 -4.58807 2616.4 -4.61856 2622.83 -3.97834C2629.2 -3.36862 2628.17 -2.11868 2632.42 -3.97834C2636.66 -5.83801 2643.09 -2.11868 2649.46 -2.11868C2655.83 -2.11868 2655.83 -2.11868 2660.07 -1.50895C2664.38 -0.899227 2669.65 -0.289501 2674.99 -0.289501C2680.33 -0.289501 2683.48 -0.289501 2685.6 -2.75889C2687.73 -5.22828 2696.28 -2.14917 2700.52 -5.83801C2704.77 -9.52686 2707.98 -7.08796 2714.35 -6.44774C2720.72 -5.83801 2726.06 -5.83801 2729.27 -7.05746C2732.49 -8.3074 2743.1 -10.1366 2743.1 -10.1366L2753.71 -7.05746C2753.71 -7.05746 2764.39 -7.66719 2768.63 -9.52686C2772.88 -11.3865 2784.59 -11.3865 2788.83 -13.2157C2793.08 -15.0754 2800.54 -18.1545 2800.54 -18.1545C2800.54 -18.1545 2812.24 -16.935 2818.61 -15.6851C2824.98 -14.4656 2829.28 -15.6851 2833.53 -17.5448C2837.77 -19.4044 2845.23 -18.1545 2850.57 -17.5448C2855.91 -16.935 2863.37 -16.2948 2866.52 -16.2948C2869.68 -16.2948 2880.35 -18.1545 2880.35 -18.1545C2880.35 -18.1545 2893.15 -17.5448 2896.3 -16.935C2899.46 -16.3253 2905.88 -16.935 2908.01 -18.7947C2910.13 -20.6544 2914.38 -17.5753 2918.68 -15.7156C2922.93 -13.8559 2927.17 -14.4961 2933.6 -13.2462C2939.97 -11.9963 2943.18 -11.9963 2948.52 -13.8864C2953.86 -15.7156 2957.01 -18.8252 2957.01 -18.8252H2975.15C2978.3 -18.8252 2984.73 -18.2155 2987.88 -16.9655C2991.1 -15.7461 2996.43 -15.7156 3001.71 -15.7156C3006.99 -15.7156 3012.32 -16.3253 3015.54 -18.185C3018.75 -20.0446 3021.91 -20.6544 3025.12 -20.6544C3028.34 -20.6544 3034.7 -20.6544 3038.95 -20.0446C3043.2 -19.4349 3048.53 -20.6544 3051.69 -21.2641C3054.9 -21.8738 3060.72 -19.8617 3067.09 -19.8617C3073.46 -19.8617 3077.89 -16.2339 3086.98 -17.6972C3100.87 -19.9532 3109.42 -17.4838 3109.42 -17.4838V42.8791L3109 43.0925Z" fill="white"/>
</svg>
