<svg width="176" height="189" viewBox="0 0 176 189" fill="none" xmlns="http://www.w3.org/2000/svg">
<path d="M88.034 148C60.4643 148 38 125.536 38 97.966C38 70.3962 60.4643 48 88.034 48C115.604 48 138 70.4643 138 98.034C138 125.604 115.604 148 88.034 148ZM88.034 51.4037C62.3022 51.4037 41.4037 72.3022 41.4037 97.966C41.4037 123.63 62.3022 144.528 88.034 144.528C113.766 144.528 134.596 123.63 134.596 97.966C134.596 72.3022 113.698 51.4037 88.034 51.4037ZM88.034 107.36C85.5153 107.36 83.1327 106.407 81.3628 104.637C79.4568 102.731 78.4357 100.076 78.6399 97.3533C78.6399 97.2852 78.6399 97.1491 78.6399 97.081C78.8441 94.9027 79.7971 92.9285 81.2948 91.3628C82.7924 89.7971 84.9707 88.8441 87.2172 88.708C89.9401 88.5037 92.595 89.4568 94.501 91.3628C96.4071 93.2689 97.4282 95.9238 97.224 98.6467C97.0878 100.893 96.1348 103.003 94.501 104.569C92.8673 106.203 90.757 107.156 88.5106 107.292C88.3063 107.292 88.1021 107.292 87.8979 107.292L88.034 107.36ZM82.0436 97.8298C82.0436 99.4636 82.5882 101.097 83.7454 102.255C84.9707 103.48 86.6726 104.093 88.3744 104.025C89.8039 103.956 91.0973 103.344 92.1184 102.255C93.1396 101.233 93.7522 99.9401 93.8203 98.5105C93.9564 96.7406 93.3438 95.0388 92.1184 93.8816C90.8931 92.6562 89.1913 92.0436 87.4894 92.1797C86.0599 92.2478 84.6984 92.8604 83.6773 93.8816C82.6562 94.9027 82.0436 96.1961 81.9755 97.6256C81.9755 97.6937 81.9755 97.7617 81.9755 97.8298H82.0436Z" fill="#00CCCC"/>
<path d="M97.3842 51.982C96.5856 51.982 95.8535 51.3971 95.7204 50.6173C95.1214 46.9784 91.8602 44.1841 88 44.1841C84.1398 44.1841 80.8786 46.9134 80.2796 50.6173C80.1465 51.5271 79.2813 52.1119 78.4161 51.982C77.4843 51.852 76.8854 51.0072 77.0185 50.1625C77.8837 44.8339 82.476 41 88 41C93.524 41 98.1163 44.9639 98.9815 50.1625C99.1146 51.0722 98.5157 51.852 97.5839 51.982C97.5173 51.982 97.3842 51.982 97.3177 51.982H97.3842Z" fill="#00CCCC"/>
<path d="M63.224 100H53.776C52.7814 100 52 99.12 52 98C52 96.88 52.7814 96 53.776 96H63.224C64.2186 96 65 96.88 65 98C65 99.12 64.2186 100 63.224 100Z" fill="#00CCCC"/>
<path d="M122.224 100H112.776C111.781 100 111 99.12 111 98C111 96.88 111.781 96 112.776 96H122.224C123.219 96 124 96.88 124 98C124 99.12 123.219 100 122.224 100Z" fill="#00CCCC"/>
<path d="M95.7087 15.2V32H92.5167L84.1407 21.8V32H80.3007V15.2H83.5167L91.8687 25.4V15.2H95.7087Z" fill="#00CCCC"/>
<path d="M86.6704 176.288C85.3424 176.288 84.0544 176.112 82.8064 175.76C81.5744 175.392 80.5824 174.92 79.8304 174.344L81.1504 171.416C81.8704 171.944 82.7264 172.368 83.7184 172.688C84.7104 173.008 85.7024 173.168 86.6944 173.168C87.7984 173.168 88.6144 173.008 89.1424 172.688C89.6704 172.352 89.9344 171.912 89.9344 171.368C89.9344 170.968 89.7744 170.64 89.4544 170.384C89.1504 170.112 88.7504 169.896 88.2544 169.736C87.7744 169.576 87.1184 169.4 86.2864 169.208C85.0064 168.904 83.9584 168.6 83.1424 168.296C82.3264 167.992 81.6224 167.504 81.0304 166.832C80.4544 166.16 80.1664 165.264 80.1664 164.144C80.1664 163.168 80.4304 162.288 80.9584 161.504C81.4864 160.704 82.2784 160.072 83.3344 159.608C84.4064 159.144 85.7104 158.912 87.2464 158.912C88.3184 158.912 89.3664 159.04 90.3904 159.296C91.4144 159.552 92.3104 159.92 93.0784 160.4L91.8784 163.352C90.3264 162.472 88.7744 162.032 87.2224 162.032C86.1344 162.032 85.3264 162.208 84.7984 162.56C84.2864 162.912 84.0304 163.376 84.0304 163.952C84.0304 164.528 84.3264 164.96 84.9184 165.248C85.5264 165.52 86.4464 165.792 87.6784 166.064C88.9584 166.368 90.0064 166.672 90.8224 166.976C91.6384 167.28 92.3344 167.76 92.9104 168.416C93.5024 169.072 93.7984 169.96 93.7984 171.08C93.7984 172.04 93.5264 172.92 92.9824 173.72C92.4544 174.504 91.6544 175.128 90.5824 175.592C89.5104 176.056 88.2064 176.288 86.6704 176.288Z" fill="#00CCCC"/>
<path d="M6.61284 84.6391L23.4128 90.1351L23.4128 94.3111L12.0368 98.0071L23.4128 101.823L23.4128 105.975L6.61284 111.495L6.61284 107.463L18.4208 103.671L6.61284 99.7111L6.61284 96.1111L18.5168 92.2711L6.61284 88.3591L6.61284 84.6391Z" fill="#00CCCC"/>
<path d="M156.005 105.015L152.885 105.015L152.885 92.0072L169.685 92.0072L169.685 104.703L166.565 104.703L166.565 95.8712L162.917 95.8712L162.917 103.671L159.893 103.671L159.893 95.8712L156.005 95.8712L156.005 105.015Z" fill="#00CCCC"/>
</svg>
