<svg width="86" height="165" viewBox="0 0 86 165" fill="none" xmlns="http://www.w3.org/2000/svg">
<g clip-path="url(#clip0_1_14)">
<path d="M40.1705 87.8423C39.3181 88.4002 38.4541 88.9303 37.5793 89.4352L3.77224 78.788V3.64315H82.0659V75.8837C67.3187 75.4788 52.8034 79.5674 40.1705 87.8423ZM85.8615 -0.167358H-0.0236816V77.5927V80.1884V81.5872L32.7387 91.9048C30.4737 92.9156 28.1517 93.7588 25.7881 94.4313L25.7899 94.4231L-0.0236816 86.2949V90.2894L18.1 95.9962C12.4273 96.7054 6.61771 96.4697 0.865552 95.2545C0.568036 95.1918 0.272334 95.126 -0.0236816 95.0584V98.961C0.012412 98.9691 0.0471651 98.977 0.0830218 98.9845C14.7246 102.078 29.6958 99.2543 42.2436 91.0346C55.3336 82.4602 70.5523 78.6252 85.8615 79.9103V77.869V-0.167358ZM44.8747 95.0836C31.5014 103.844 15.5926 106.958 -0.0228911 103.896V107.775C16.3313 110.793 32.9488 107.446 46.9486 98.276C58.6163 90.633 72.2137 87.2886 85.861 88.5928V84.765C71.4804 83.4697 57.1689 87.0313 44.8747 95.0836ZM49.5791 102.326C38.167 109.801 25.1801 113.694 11.7818 113.694C10.3819 113.694 8.97541 113.65 7.56736 113.566C5.04002 113.412 2.49735 113.117 -0.0228911 112.684V116.548C2.42366 116.945 4.88759 117.222 7.33903 117.37C8.82574 117.46 10.3074 117.505 11.7863 117.505C25.9205 117.504 39.62 113.399 51.6523 105.518C61.8759 98.8209 73.8556 95.9812 85.861 97.3241V93.4901C83.9197 93.2876 81.9795 93.1868 80.0453 93.1868C69.2962 93.1868 58.7748 96.3016 49.5791 102.326Z" fill="#00CCCC"/>
<path d="M24.8767 80.3375C61.1764 74.3199 62.6142 64.1031 63.3822 59.8163V59.8173C63.1922 75.0833 36.6634 83.4508 31.9331 84.8213C30.8914 84.4228 29.8759 83.9429 28.8983 83.3786C27.2733 82.4418 25.8966 81.421 24.7304 80.3464C24.78 80.3457 24.8282 80.3429 24.8767 80.3375ZM13.4338 65.48C13.8355 68.255 15.0939 87.3883 37.5795 89.4349C38.4542 88.9308 39.3183 88.3999 40.1707 87.842C40.9862 87.3082 41.8106 86.7916 42.6417 86.2921H42.6389C42.6417 86.2911 42.6442 86.2903 42.647 86.2885C44.6287 85.0986 46.6515 84.0077 48.7112 83.0186C63.7173 73.6684 63.9594 62.6308 63.9637 62.502C64.2604 64.8861 64.1161 67.9292 63.0738 71.7479C62.322 74.5008 60.8367 76.9625 58.8416 79.0469C60.9909 78.3853 63.167 77.8266 65.362 77.3692C68.9067 70.882 68.8153 63.5056 66.7538 59.7903C64.4362 55.6131 66.3595 53.5929 68.3206 53.9437C70.6069 54.3541 71.0632 57.3737 71.0632 57.3737H73.164C73.0261 53.3298 74.1788 51.7037 76.1736 50.0342C63.4144 44.5621 60.4676 55.1731 60.4676 55.1731C60.4676 55.1731 61.8764 56.1831 62.9385 58.631C60.1807 73.6296 28.3775 75.1831 20.8283 75.3397C19.811 73.4391 19.2076 71.5129 18.8573 69.6921C43.4204 72.4805 55.66 66.38 55.66 66.38C41.8699 69.5923 23.8155 65.1795 18.4119 63.6918C18.4378 62.3976 18.5123 61.3409 18.4978 60.6327C14.2675 60.1396 10.8391 58.6517 10.8391 58.6517V60.7712C12.9562 60.8983 13.0101 62.5479 13.4338 65.48Z" fill="white"/>
<path d="M16.8325 164.759V159.321C16.8325 159.151 16.8775 159.022 16.968 158.93C17.0584 158.84 17.1875 158.795 17.3562 158.795H20.8497C21.0182 158.795 21.1473 158.84 21.2377 158.93C21.3284 159.022 21.3731 159.151 21.3731 159.321V164.759C21.3731 164.953 21.2763 165.049 21.0845 165.049H20.7593C20.5675 165.049 20.4707 164.953 20.4707 164.759V159.657C20.4707 159.571 20.4285 159.529 20.3442 159.529H17.8526C17.7746 159.529 17.7353 159.571 17.7353 159.657V164.759C17.7353 164.953 17.6384 165.049 17.4466 165.049H17.1212C16.9286 165.049 16.8325 164.953 16.8325 164.759ZM28.6141 163.835C28.8372 163.484 28.9485 162.847 28.9485 161.922C28.9485 160.997 28.8372 160.36 28.6141 160.01C28.391 159.659 27.9893 159.484 27.4086 159.484C26.8278 159.484 26.4264 159.659 26.2041 160.01C25.9807 160.36 25.8698 160.997 25.8698 161.922C25.8698 162.847 25.9807 163.484 26.2041 163.835C26.4264 164.186 26.8278 164.36 27.4086 164.36C27.9893 164.36 28.391 164.186 28.6141 163.835ZM26.2399 165.008C25.9325 164.903 25.6789 164.721 25.4772 164.465C25.2755 164.208 25.1322 163.875 25.0478 163.468C24.9645 163.06 24.9216 162.544 24.9216 161.922C24.9216 161.094 25.0031 160.447 25.1652 159.982C25.3276 159.517 25.5857 159.184 25.9378 158.98C26.2892 158.778 26.7785 158.677 27.4043 158.677C28.0305 158.677 28.5209 158.778 28.8758 158.98C29.2307 159.184 29.4899 159.517 29.6519 159.982C29.8143 160.447 29.8958 161.094 29.8958 161.922C29.8958 162.75 29.8143 163.397 29.6519 163.862C29.4899 164.327 29.2307 164.661 28.8758 164.863C28.5209 165.066 28.0305 165.167 27.4043 165.167C26.9345 165.167 26.5463 165.115 26.2399 165.008ZM33.7692 164.433C33.4019 163.95 33.219 163.113 33.219 161.922C33.219 160.731 33.4019 159.895 33.7692 159.411C34.1369 158.928 34.7751 158.685 35.6828 158.685C36.2547 158.685 36.7422 158.725 37.1457 158.803C37.3258 158.846 37.401 158.958 37.3716 159.139L37.3624 159.284C37.3319 159.471 37.2235 159.557 37.0372 159.538C36.676 159.508 36.2252 159.493 35.6828 159.493C35.1056 159.493 34.7077 159.668 34.4918 160.018C34.2748 160.369 34.1663 161.003 34.1663 161.922C34.1663 162.841 34.2748 163.475 34.4918 163.825C34.7077 164.176 35.1056 164.352 35.6828 164.352C36.3451 164.352 36.8383 164.33 37.1635 164.288C37.35 164.27 37.4584 164.355 37.4879 164.542L37.5067 164.678C37.5311 164.853 37.4557 164.962 37.2809 165.005C36.866 165.107 36.3327 165.158 35.6828 165.158C34.7751 165.158 34.1369 164.917 33.7692 164.433ZM41.1545 164.755C40.9322 164.559 40.8174 164.288 40.811 163.943V159.9C40.8174 159.562 40.9322 159.293 41.1545 159.094C41.3776 158.894 41.6815 158.794 42.0669 158.794H44.4591C44.6453 158.794 44.7322 158.906 44.7208 159.13L44.7116 159.275C44.7055 159.463 44.6088 159.557 44.4222 159.557H42.2193C42.0392 159.557 41.9108 159.6 41.8364 159.688C41.7602 159.775 41.7236 159.925 41.7236 160.136V161.269C41.7236 161.348 41.762 161.387 41.841 161.387H44.061C44.2538 161.387 44.3506 161.484 44.3506 161.678V161.831C44.3506 162.025 44.2538 162.122 44.061 162.122H41.841C41.762 162.122 41.7236 162.161 41.7236 162.24V163.717C41.7236 163.862 41.7396 163.976 41.7729 164.057C41.8059 164.139 41.8588 164.199 41.9307 164.238C42.0031 164.277 42.0991 164.297 42.2193 164.297H44.4222C44.6088 164.297 44.7055 164.39 44.7116 164.579L44.7208 164.715C44.7322 164.938 44.6453 165.049 44.4591 165.049H42.0669C41.6815 165.049 41.3776 164.951 41.1545 164.755ZM47.5736 164.796L47.5556 164.632C47.5314 164.469 47.6041 164.351 47.7725 164.279C48.0548 164.159 48.2718 163.932 48.4225 163.599C48.5309 163.339 48.6168 163.064 48.6795 162.775C48.7423 162.484 48.7987 162.137 48.8462 161.731C48.8948 161.327 48.9493 160.744 49.0094 159.982C49.0812 159.191 49.5113 158.795 50.3 158.795H52.0693C52.418 158.795 52.5926 158.97 52.5926 159.32V164.759C52.5926 164.953 52.4968 165.05 52.3042 165.05H51.9699C51.777 165.05 51.6813 164.953 51.6813 164.759V159.656C51.6813 159.571 51.6391 159.529 51.5548 159.529H50.5349C50.1432 159.529 49.9298 159.734 49.8932 160.146C49.8216 160.955 49.7659 161.533 49.7266 161.882C49.6869 162.228 49.6315 162.577 49.5596 162.924C49.4872 163.271 49.3911 163.577 49.2713 163.844C48.9458 164.575 48.4796 164.98 47.8721 165.059C47.6973 165.083 47.5978 164.995 47.5736 164.796ZM59.8334 163.835C60.0566 163.484 60.1677 162.847 60.1677 161.922C60.1677 160.997 60.0566 160.36 59.8334 160.01C59.611 159.659 59.2096 159.484 58.6288 159.484C58.048 159.484 57.6466 159.659 57.4233 160.01C57.2003 160.36 57.089 160.997 57.089 161.922C57.089 162.847 57.2003 163.484 57.4233 163.835C57.6466 164.186 58.048 164.36 58.6288 164.36C59.2096 164.36 59.611 164.186 59.8334 163.835ZM57.4592 165.008C57.1527 164.903 56.8982 164.721 56.6964 164.465C56.4947 164.208 56.3522 163.875 56.2681 163.468C56.1837 163.06 56.1415 162.544 56.1415 161.922C56.1415 161.094 56.2223 160.447 56.3855 159.982C56.5476 159.517 56.8049 159.184 57.1571 158.98C57.5095 158.778 57.9977 158.677 58.6235 158.677C59.25 158.677 59.7401 158.778 60.095 158.98C60.4499 159.184 60.7099 159.517 60.8722 159.982C61.0346 160.447 61.1161 161.094 61.1161 161.922C61.1161 162.75 61.0346 163.397 60.8722 163.862C60.7099 164.327 60.4499 164.661 60.095 164.863C59.7401 165.066 59.25 165.167 58.6235 165.167C58.1547 165.167 57.7665 165.115 57.4592 165.008ZM64.6641 164.759V159.085C64.6641 158.891 64.7598 158.795 64.9526 158.795H65.2778C65.4707 158.795 65.5665 158.891 65.5665 159.085V160.716C65.5665 160.928 65.5548 161.122 65.5306 161.296C65.5126 161.382 65.5512 161.423 65.648 161.423H66.1267C66.2646 161.423 66.3947 161.402 66.5146 161.36C66.6348 161.318 66.7415 161.267 66.8347 161.206C66.9279 161.145 67.0202 161.053 67.1099 160.93C67.2014 160.806 67.2776 160.689 67.3403 160.581C67.4038 160.472 67.4747 160.321 67.5527 160.127C67.6315 159.934 67.6952 159.766 67.7463 159.624C67.7981 159.482 67.8627 159.287 67.9407 159.04C67.9953 158.876 68.1065 158.795 68.275 158.795H68.6005C68.7079 158.795 68.7824 158.825 68.8207 158.885C68.8603 158.946 68.8621 159.03 68.8253 159.139C68.7295 159.435 68.6515 159.664 68.5905 159.828C68.5303 159.991 68.4544 160.185 68.3611 160.409C68.2679 160.632 68.1817 160.804 68.103 160.924C68.025 161.046 67.9335 161.171 67.8278 161.301C67.7229 161.431 67.6073 161.529 67.4808 161.596C67.3536 161.662 67.2156 161.71 67.0651 161.741C67.0229 161.753 67.0024 161.768 67.0024 161.786C67.0024 161.804 67.0229 161.819 67.0651 161.832C67.1734 161.85 67.2747 161.879 67.368 161.917C67.4612 161.957 67.5453 161.999 67.6208 162.044C67.6952 162.09 67.7722 162.156 67.851 162.244C67.929 162.331 67.9935 162.408 68.0445 162.475C68.0956 162.542 68.1558 162.644 68.2257 162.783C68.2948 162.922 68.3502 163.035 68.3924 163.123C68.4345 163.211 68.492 163.348 68.5636 163.535C68.6363 163.724 68.6916 163.871 68.7313 163.98C68.7697 164.089 68.8281 164.258 68.9068 164.488C68.9427 164.584 68.9668 164.657 68.9785 164.705C69.0029 164.778 69.0108 164.84 69.0019 164.891C68.9929 164.942 68.9668 164.982 68.9249 165.009C68.8827 165.036 68.8281 165.049 68.7626 165.049H68.4013C68.2392 165.049 68.1307 164.967 68.0761 164.804C68.0644 164.768 68.0438 164.711 68.0133 164.633C67.6879 163.702 67.4388 163.097 67.2641 162.82C66.9932 162.391 66.6322 162.17 66.1805 162.157H66.1267H65.648C65.5512 162.157 65.5126 162.2 65.5306 162.285C65.5548 162.502 65.5665 162.675 65.5665 162.802V164.759C65.5665 164.953 65.4707 165.049 65.2778 165.049H64.9526C64.7598 165.049 64.6641 164.953 64.6641 164.759ZM43.436 158.199V157.478C43.436 157.432 43.4523 157.39 43.4861 157.354C43.5201 157.317 43.5602 157.3 43.6075 157.3H43.9388C43.983 157.3 44.0229 157.317 44.0584 157.354C44.0925 157.39 44.1103 157.432 44.1103 157.478V158.199C44.1103 158.245 44.094 158.286 44.0599 158.318C44.0259 158.352 43.986 158.369 43.9388 158.369H43.6075C43.563 158.369 43.5231 158.352 43.4876 158.321C43.4535 158.289 43.436 158.248 43.436 158.199ZM41.901 158.199V157.478C41.901 157.432 41.9187 157.39 41.9528 157.354C41.9881 157.317 42.0267 157.3 42.0709 157.3H42.4052C42.4495 157.3 42.4881 157.317 42.5234 157.354C42.5574 157.39 42.5752 157.432 42.5752 157.478V158.199C42.5752 158.245 42.5574 158.286 42.5234 158.318C42.4881 158.352 42.4495 158.369 42.4052 158.369H42.0709C42.0267 158.369 41.9881 158.352 41.9528 158.321C41.9187 158.289 41.901 158.248 41.901 158.199Z" fill="white"/>
<path d="M26.8648 149.214C26.2616 149.141 25.8457 148.922 25.6171 148.558C25.3895 148.194 25.3204 147.63 25.4118 146.865C25.4845 146.137 25.6905 145.637 26.0284 145.364C26.3663 145.091 26.846 144.963 27.4679 144.982C28.253 145.018 28.8203 144.995 29.1674 144.913C29.5141 144.831 29.7882 144.645 29.9892 144.354L30.0438 144.245C30.1173 144.117 30.1354 143.999 30.0985 143.889C30.0627 143.78 29.9712 143.725 29.8251 143.725H29.1404C28.3175 143.725 27.6778 143.508 27.2205 143.07C26.7644 142.634 26.4166 141.996 26.1791 141.159L23.4106 132.149C23.2276 131.53 23.2688 131.039 23.5343 130.674C23.7995 130.311 24.2513 130.128 24.8913 130.128H27.2753C28.3175 130.128 28.9664 130.647 29.222 131.685L30.976 139.111C31.0306 139.348 31.1498 139.466 31.3327 139.466H31.4419C31.6617 139.466 31.7897 139.339 31.8256 139.084L33.7722 131.658C34.0098 130.638 34.6678 130.128 35.746 130.128H38.1298C38.7879 130.128 39.2538 130.306 39.5282 130.661C39.8023 131.015 39.8392 131.503 39.6375 132.121L36.1294 143.862C35.5808 145.737 34.9411 147.084 34.2107 147.903C33.4793 148.722 32.383 149.205 30.9214 149.35C30.0258 149.441 28.6742 149.395 26.8648 149.214Z" fill="white"/>
<path d="M69.9106 141.661C71.4057 140.59 73.1102 140.047 74.9763 140.047C74.995 140.047 75.0131 140.048 75.0319 140.048L76.3378 136.07L77.7852 140.476C79.0346 140.877 79.9828 141.488 80.7564 141.987C81.6535 142.565 82.1949 142.914 83.2937 142.914C83.4398 142.914 83.5966 142.907 83.7589 142.894L79.5689 131.616C79.2381 130.724 78.3623 130.129 77.3809 130.129H75.2971C74.3157 130.129 73.4402 130.724 73.1084 131.616L69.1506 142.27C69.3953 142.053 69.6488 141.849 69.9106 141.661Z" fill="white"/>
<path d="M84.2181 144.383C82.0545 144.635 81.0883 144.014 79.9366 143.27C78.7623 142.514 77.3023 141.572 74.9766 141.572C71.8755 141.572 69.3201 143.403 67.7804 146.728C67.2956 147.774 67.0116 148.371 66.8438 148.734C66.6485 149.156 66.6099 149.265 66.5974 149.396H72.0242H72.1372C72.1372 149.396 74.126 145.693 77.4047 147.651C80.3264 149.396 81.6978 150.046 85.8618 148.813L84.2181 144.383Z" fill="#00CCCC"/>
<path d="M53.6751 149.386C51.4963 149.386 48.7601 148.83 47.6963 148.35C47.4425 148.224 47.1638 148.124 47.1638 147.846V144.919C47.1638 144.641 47.3914 144.414 47.6702 144.414H47.6963C49.0388 144.515 51.4714 144.666 53.1688 144.666C54.6377 144.666 54.9927 144.01 54.9927 143.253C54.9927 142.521 54.6126 141.839 53.4978 141.839H50.3446C50.0659 141.839 49.8383 141.612 49.8383 141.335V138.079C49.8383 137.801 50.0659 137.574 50.3446 137.574H53.1939C54.4353 137.574 54.9676 136.892 54.9676 136.136C54.9676 135.327 54.4101 134.848 53.1688 134.848C51.4714 134.848 49.2163 135.025 47.8729 135.1H47.8478C47.5698 135.1 47.3414 134.873 47.3414 134.596V131.319C47.3414 131.04 47.6201 130.94 47.8729 130.814C48.9377 130.334 51.4963 130.129 53.6751 130.129C58.2363 130.129 60.252 132.027 60.252 135.454C60.252 137.624 59.7304 138.76 58.4139 139.618C59.985 140.401 60.77 141.839 60.77 143.808C60.77 147.846 58.2363 149.386 53.6751 149.386Z" fill="white"/>
<path d="M6.76043 134.725C7.00684 134.468 7.52416 134.34 8.30914 134.34H9.46082C9.82563 134.34 10.0086 134.523 10.0086 134.891V137.698C10.0086 138.064 9.82563 138.248 9.46082 138.248H8.30914C7.52416 138.248 7.00684 138.12 6.76043 137.862C6.51401 137.606 6.39025 137.083 6.39025 136.294C6.39025 135.505 6.51401 134.982 6.76043 134.725ZM14.2577 130.265C12.8686 130.175 10.8401 130.129 8.17195 130.129C5.39456 130.129 3.40735 130.551 2.20994 131.394C1.01356 132.238 0.414734 133.743 0.414734 135.909C0.414734 136.94 0.58778 137.795 0.933789 138.473C1.42947 139.642 2.25314 140.637 3.2892 141.341C3.18708 141.52 3.08922 141.706 3.00235 141.905L0.169346 147.414C-0.0717791 148.038 -0.0870207 148.524 0.125355 148.872C0.336784 149.221 0.76256 149.395 1.4015 149.395H3.97845C5.05747 149.395 5.78708 148.863 6.16792 147.799L8.79139 142.463H9.52077C9.8445 142.484 10.0086 142.664 10.0086 143.01V147.607C10.0086 148.8 10.6026 149.395 11.7903 149.395H14.1744C15.3629 149.395 15.9562 148.8 15.9562 147.607V132.11C15.9562 130.936 15.3896 130.321 14.2577 130.265Z" fill="white"/>
</g>
<defs>
<clipPath id="clip0_1_14">
<rect width="86" height="165" fill="white"/>
</clipPath>
</defs>
</svg>
