<svg width="86" height="120" viewBox="0 0 86 120" fill="none" xmlns="http://www.w3.org/2000/svg">
<g clip-path="url(#clip0_77_17052)">
<path d="M40.1705 87.8423C39.3181 88.4002 38.4541 88.9303 37.5793 89.4352L3.77224 78.788V3.64315H82.0659V75.8837C67.3187 75.4788 52.8034 79.5674 40.1705 87.8423ZM85.8615 -0.167358H-0.0236816V77.5927V80.1884V81.5872L32.7387 91.9048C30.4737 92.9156 28.1517 93.7588 25.7881 94.4313L25.7899 94.4231L-0.0236816 86.2949V90.2894L18.1 95.9962C12.4273 96.7054 6.61771 96.4697 0.865552 95.2545C0.568036 95.1918 0.272334 95.126 -0.0236816 95.0584V98.961C0.012412 98.9691 0.0471651 98.977 0.0830218 98.9845C14.7246 102.078 29.6958 99.2543 42.2436 91.0346C55.3336 82.4602 70.5523 78.6252 85.8615 79.9103V77.869V-0.167358ZM44.8747 95.0836C31.5014 103.844 15.5926 106.958 -0.0228911 103.896V107.775C16.3313 110.793 32.9488 107.446 46.9486 98.276C58.6163 90.633 72.2137 87.2886 85.861 88.5928V84.765C71.4804 83.4697 57.1689 87.0313 44.8747 95.0836ZM49.5791 102.326C38.167 109.801 25.1801 113.694 11.7818 113.694C10.3819 113.694 8.97541 113.65 7.56736 113.566C5.04002 113.412 2.49735 113.117 -0.0228911 112.684V116.548C2.42366 116.945 4.88759 117.222 7.33903 117.37C8.82574 117.46 10.3074 117.505 11.7863 117.505C25.9205 117.504 39.62 113.399 51.6523 105.518C61.8759 98.8209 73.8556 95.9812 85.861 97.3241V93.4901C83.9197 93.2876 81.9795 93.1868 80.0453 93.1868C69.2962 93.1868 58.7748 96.3016 49.5791 102.326Z" fill="#00CECE"/>
<path d="M24.8767 80.3375C61.1764 74.3199 62.6142 64.1031 63.3822 59.8163V59.8173C63.1922 75.0833 36.6634 83.4508 31.9331 84.8213C30.8914 84.4228 29.8759 83.9429 28.8983 83.3786C27.2733 82.4418 25.8966 81.421 24.7304 80.3464C24.78 80.3457 24.8282 80.3429 24.8767 80.3375ZM13.4338 65.48C13.8355 68.255 15.0939 87.3883 37.5795 89.4349C38.4542 88.9308 39.3183 88.3999 40.1707 87.842C40.9862 87.3082 41.8106 86.7916 42.6417 86.2921H42.6389C42.6417 86.2911 42.6442 86.2903 42.647 86.2885C44.6287 85.0986 46.6515 84.0077 48.7112 83.0186C63.7173 73.6684 63.9594 62.6308 63.9637 62.502C64.2604 64.8861 64.1161 67.9292 63.0738 71.7479C62.322 74.5008 60.8367 76.9625 58.8416 79.0469C60.9909 78.3853 63.167 77.8266 65.362 77.3692C68.9067 70.882 68.8153 63.5056 66.7538 59.7903C64.4362 55.6131 66.3595 53.5929 68.3206 53.9437C70.6069 54.3541 71.0632 57.3737 71.0632 57.3737H73.164C73.0261 53.3298 74.1788 51.7037 76.1736 50.0342C63.4144 44.5621 60.4676 55.1731 60.4676 55.1731C60.4676 55.1731 61.8764 56.1831 62.9385 58.631C60.1807 73.6296 28.3775 75.1831 20.8283 75.3397C19.811 73.4391 19.2076 71.5129 18.8573 69.6921C43.4204 72.4805 55.66 66.38 55.66 66.38C41.8699 69.5923 23.8155 65.1795 18.4119 63.6918C18.4378 62.3976 18.5123 61.3409 18.4978 60.6327C14.2675 60.1396 10.8391 58.6517 10.8391 58.6517V60.7712C12.9562 60.8983 13.0101 62.5479 13.4338 65.48Z" fill="white"/>
</g>
<defs>
<clipPath id="clip0_77_17052">
<rect width="86" height="120" fill="white"/>
</clipPath>
</defs>
</svg>
