<svg width="1236" height="1322" viewBox="0 0 1236 1322" fill="none" xmlns="http://www.w3.org/2000/svg">
<path d="M1606.11 271.568C1603.83 273.4 1568.32 299.155 1561.99 297.585C1555.66 296.014 1545.86 291.882 1540.67 288.074L1525.05 276.631C1525.05 276.631 1521.83 269.893 1514.45 278.487C1507.06 287.072 1505.91 286.667 1509.09 288.998C1512.27 291.328 1513.98 290.839 1511.15 294.882C1508.31 298.925 1498.89 303.39 1498.89 303.39C1498.89 303.39 1490.01 305.196 1492.06 309.754C1494.11 314.322 1489.06 325.93 1488.21 326.614C1487.35 327.297 1483.6 326.309 1488.24 330.582C1492.88 334.855 1500.13 344.109 1502.45 346.246C1504.78 348.382 1507.67 350.502 1507.68 352.257C1507.7 354.012 1506.02 357.592 1506.02 357.592L1505.55 368.179C1505.55 368.179 1510.01 383.689 1503.71 385.19C1497.4 386.691 1487.67 389.18 1487.67 389.18C1487.67 389.18 1479.64 391.619 1483.35 387.321C1487.04 383.034 1488.17 380.796 1489.58 378.76C1491.01 376.734 1495.51 367.794 1493.19 365.658C1490.87 363.521 1491.72 361.95 1487.4 360.98C1483.09 359.998 1477.91 359.272 1469.6 361.5C1461.29 363.728 1457.54 362.291 1453.01 368.159C1448.46 374.018 1446.16 372.329 1449.35 375.977C1452.55 379.624 1458.36 386.954 1459.85 391.529C1461.32 396.114 1473.19 406.121 1452.27 409.146C1431.33 412.182 1413.6 417.549 1413.6 417.549C1413.6 417.549 1437.36 410.46 1440.67 426.452C1443.98 442.444 1436.93 456.076 1434.37 458.575C1431.8 461.074 1421.65 480.312 1421.65 480.312L1388.85 503.076C1388.85 503.076 1376.41 523.708 1380.79 529.963C1385.15 536.229 1362.56 544.59 1362.56 544.59L1356.16 565.704C1356.16 565.704 1351.56 565.839 1350.45 568.514C1349.32 571.19 1351.97 577.507 1355.72 578.494C1359.46 579.492 1363.16 575.633 1365.46 577.771C1367.78 579.907 1361.79 583.833 1367.84 586.508C1373.89 589.194 1385.03 581.597 1390.77 582.317C1396.52 583.027 1404.02 587.216 1404.02 587.216C1404.02 587.216 1402.4 596.959 1403.87 601.544C1405.34 606.129 1395.09 613.92 1395.09 613.92C1395.09 613.92 1396.85 617.389 1402.03 620.32C1407.22 623.25 1416.66 619.673 1412.42 624.864C1408.16 630.055 1387.08 646.97 1386.8 648.075C1386.53 649.181 1401.01 663.3 1401.01 663.3L1380.45 676.24L1366.12 677.975L1382.8 682.774C1382.8 682.774 1388.83 681.94 1391.72 684.059C1394.61 686.179 1397.51 688.738 1398.09 689.599C1398.67 690.459 1383.79 694.864 1380.91 695.387C1378.05 695.91 1360 700.627 1364.65 705.777C1369.3 710.928 1377.04 709.605 1375.91 713.158C1374.79 716.712 1369.69 722.597 1366.85 724.874L1349.76 738.59C1349.76 738.59 1338.04 745.316 1352.58 764.721C1367.11 784.125 1393.75 808.901 1393.75 808.901L1391.23 815.368C1391.23 815.368 1386.1 819.039 1397.31 821.135C1408.52 823.231 1409.99 825.174 1411.46 829.759C1412.93 834.344 1418.45 841.005 1421.35 843.125C1424.24 845.245 1431.99 846.115 1435.49 850.421C1438.98 854.718 1438.76 861.567 1440.8 864.37C1442.84 867.173 1422.75 899.709 1422.75 899.709C1422.75 899.709 1417.44 913.739 1414.02 916.482C1410.6 919.225 1391.76 931.227 1391.76 931.227L1390.76 945.799C1390.76 945.799 1387.81 967.7 1384.09 968.896C1380.37 970.112 1358.65 980.871 1358.65 980.871L1357.85 987.717C1357.85 987.717 1375.3 1011.87 1376.76 1012.94C1378.21 1014 1393.85 1029.41 1393.85 1029.41C1393.85 1029.41 1395.69 1037.75 1396.4 1039.59C1397.12 1041.43 1397.73 1045.82 1397.73 1045.82C1397.73 1045.82 1380.48 1042.8 1375.62 1045.36C1370.77 1047.92 1363.35 1052.11 1363.35 1052.11L1320.31 1054.7L1301.3 1046.88C1301.3 1046.88 1291.58 1051.57 1283.31 1058.2C1275.04 1064.84 1255.68 1080.81 1252.22 1080.04C1248.77 1079.25 1228.49 1090.64 1228.49 1090.64C1228.49 1090.64 1261.73 1114.12 1244.5 1143.48C1227.27 1172.84 1212.21 1188.48 1201.93 1195.39C1191.66 1202.3 1154.54 1224.97 1152.83 1225.02C1151.11 1225.07 1117.27 1229.14 1117.27 1229.14L1077.62 1225.89C1077.62 1225.89 1072.46 1226.92 1066.17 1230.2C1059.9 1233.46 1044.27 1222.47 1044.27 1222.47L1034.66 1207.56C1034.66 1207.56 1032 1200.37 1027.13 1200.74C1022.25 1201.1 1009.65 1203.67 1009.65 1203.67L1006.1 1192.75C1006.1 1192.75 1012.93 1186.39 1001.46 1188.48C990.006 1190.58 988.57 1191.27 985.994 1192.45C983.419 1193.64 974.557 1198.08 971.373 1195.31C968.188 1192.54 963.539 1186.06 960.642 1183.5C957.745 1180.94 958.033 1181.15 954.82 1175.29C951.606 1169.43 949.348 1172.59 945.599 1172.04C941.864 1171.48 942.777 1178.75 938.704 1171.36C934.618 1163.99 942.115 1166.42 931.446 1162.54C920.79 1158.67 925.669 1159.18 921.049 1155.79C916.429 1152.41 915.857 1152.42 908.983 1153.94C902.108 1155.46 897.964 1141.92 902.108 1155.46C906.252 1168.99 905.71 1172.1 898.831 1173.18C891.952 1174.26 887.728 1182.53 881.338 1174.8C874.948 1167.04 878.016 1157.49 878.016 1157.49L861.563 1148.07L851.638 1130.73C851.638 1130.73 858.484 1126.12 853.567 1121.65C848.638 1117.16 845.249 1121.67 843.467 1115.99C841.697 1110.31 846.501 1102.9 846.501 1102.9L828.696 1101.66C828.696 1101.66 794.546 1113.53 795.157 1112.15C795.768 1110.78 786.852 1109.49 786.852 1109.49C786.852 1109.49 768.274 1117.31 763.978 1119.41C759.696 1121.52 751.678 1124.4 746.486 1121.03C741.294 1117.66 731.172 1109.81 731.172 1109.81C731.172 1109.81 727.424 1107.93 721.96 1107.43C716.497 1106.93 720.257 1110.12 715.6 1102.77C710.942 1095.42 716.677 1094.37 706.322 1092.03C695.966 1089.69 687.36 1089.5 682.476 1089.86C677.593 1090.23 671.311 1092.61 664.14 1094.37C656.982 1096.12 655.274 1098.37 653.789 1092.47C652.303 1086.57 652.265 1083.92 643.843 1072.94C635.421 1061.95 643.685 1056.21 643.685 1056.21C643.685 1056.21 653.139 1053.95 647.509 1035.84C641.892 1017.72 643.324 1017.9 645.844 1012.32C648.365 1006.74 663.505 996.818 649.468 1000.97C635.443 1005.13 634.32 1008.68 632.284 1004.99C630.247 1001.3 632.53 1000.8 632.188 994.861C631.846 988.926 632.989 988.893 631.821 986.274C630.64 983.665 633.203 981.166 626.608 982.017C620.013 982.868 611.699 983.331 611.699 983.331C611.699 983.331 596.563 992.362 590.758 985.928C584.952 979.495 584.931 977.281 583.767 975.121C582.59 972.951 591.506 972.91 576.851 972.231C562.209 971.562 559.617 970.969 555.585 969.322C551.553 967.674 542.42 973.677 548.661 965.554C554.888 957.443 555.435 953.467 554.559 951.497C553.683 949.548 550.856 954.468 553.683 949.548C556.509 944.628 557.347 942.608 557.347 942.608C557.347 942.608 562.465 936.733 559.56 933.297C556.655 929.861 544.481 916.562 544.481 916.562L579.787 917.066C579.787 917.066 584.057 913.639 583.757 910.785C583.432 907.932 583.436 908.371 581.425 906.006C579.388 903.642 575.665 903.092 571.295 897.275C566.938 891.448 565.176 887.978 564.304 886.468C563.432 884.957 563.407 882.305 563.107 880.777C562.806 879.25 556.412 871.058 556.412 871.058C556.412 871.058 557.572 872.78 560.398 867.86C563.224 862.939 567.523 862.584 565.194 859.57C562.865 856.556 547.81 842.454 547.81 842.454L538.507 830.387C538.507 830.387 531.608 827.946 527.593 829.38C523.59 830.823 517.604 835.627 513.259 832.442C508.914 829.258 506.568 824.488 501.982 823.306C497.382 822.114 490.829 827.373 484.773 824.697C478.729 822.011 495.262 810.954 475.544 820.568C455.826 830.181 457.274 832.114 449.791 828.373C442.295 824.622 437.119 824.335 429.632 821.481C422.144 818.608 416.96 817.443 413.787 815.99C410.615 814.537 414.911 812.436 410.615 814.537C406.333 816.647 402.91 818.951 401.482 820.539C400.068 822.117 389.569 836.308 389.569 836.308C389.569 836.308 382.173 843.127 377.565 842.384C372.969 841.631 352.86 840.025 352.86 840.025C352.86 840.025 351.674 836.977 342.969 824.893C334.237 812.81 324.858 821.682 334.475 807.736C344.105 793.799 344.836 780.332 344.836 780.332L349.498 757.943L350.325 754.607C351.164 751.281 354.821 743.464 353.351 740.644C351.882 737.824 351.302 735.637 348.694 733.289C346.085 730.942 344.366 730.553 341.147 725.58C337.942 720.617 338.242 722.144 337.053 717.331C335.864 712.518 332.437 714.384 337.559 708.948C342.681 703.512 336.649 703.469 345.498 699.021C354.359 694.582 364.402 694.059 363.542 695.191C362.694 696.313 376.827 703.62 381.768 710.747C386.71 717.874 382.991 717.764 389.026 719.572C395.074 721.37 422.647 723.217 426.362 721.562C430.077 719.908 447.203 709.722 449.724 702.816C452.245 695.909 469.537 703.333 471.257 703.722C472.976 704.111 484.129 698.717 482.648 694.581C481.179 690.435 479.138 687.632 475.085 683.791C471.032 679.949 462.159 681.745 464.05 670.019C465.954 658.283 463.295 650.651 460.992 648.963C458.688 647.275 449.417 640.045 446.826 638.146C444.234 636.246 431.43 634.726 426.748 633.057C422.079 631.378 412.02 630.126 412.02 630.126C412.02 630.126 408.284 629.567 412.817 623.719C417.363 617.861 423.036 611.521 425.59 608.145C428.145 604.768 431.555 601.148 426.926 598.191C422.31 595.244 414.826 594.136 406.47 590.191C398.114 586.246 389.174 582.328 385.989 579.559C382.804 576.789 384.244 577.844 382.492 573.926C380.726 570.017 380.355 560.991 380.355 560.991C380.355 560.991 380.827 550.404 377.638 547.196C374.449 543.988 370.401 540.585 371.532 539.215C372.663 537.866 382.873 524.79 382.873 524.79C382.873 524.79 373.031 516.27 370.998 513.018C368.953 509.776 366.92 507.851 365.477 505.03C364.008 502.21 361.896 490.602 361.896 490.602C361.896 490.602 352.208 498.376 372.378 475.982C392.547 453.588 388.223 451.291 386.753 448.471C385.284 445.651 378.351 441.006 382.626 436.692C386.888 432.388 390.314 430.522 393.449 428.007C396.584 425.491 407.699 417.456 406.234 415.075C404.769 412.694 402.39 404.395 402.39 404.395L421.807 393.254L449.104 396.207L448.116 382.351C448.116 382.351 450.333 373.479 452.878 370.532C455.437 367.594 473.006 343.73 473.006 343.73L463.703 331.663C463.703 331.663 451.749 312.842 450.297 310.471C448.832 308.09 443.832 294.8 443.832 294.8C443.832 294.8 448.905 285.545 447.742 283.524C446.579 281.504 441.196 279.895 439.261 277.309C437.325 274.722 431.552 271.659 438.02 267.071C444.489 262.483 446.329 259.158 448.25 258.822C450.17 258.487 449.968 257.745 452.915 254.656C455.863 251.568 455.091 251.002 456.981 248.882C458.885 246.771 468.457 247.369 468.457 247.369L485.749 254.793C485.749 254.793 493.077 261.332 497.278 260.331C501.48 259.331 495.371 260.676 506.051 257.432C516.743 254.177 609.802 219.148 609.802 219.148C609.802 219.148 614.344 214.317 620.84 212.661C627.337 211.005 631.605 217.044 635.788 215.456C639.984 213.857 640.325 225.198 640.325 225.198L634.624 229.773L620.972 227.928L610.285 231.762C610.285 231.762 608.392 235.049 613.014 237.268C617.623 239.477 620.684 238.809 624.153 241.351C627.621 243.892 631.48 247.889 631.884 249.354C632.275 250.808 630.037 256.16 630.037 256.16C630.037 256.16 634.658 259.546 640.022 260.566C645.387 261.586 646.948 264.473 649.633 265.273C652.318 266.072 662.998 262.827 655.463 254.968C647.928 247.109 625.856 260.681 641.321 237.018C656.799 213.365 662.069 204.393 662.069 204.393C662.069 204.393 667.863 199.885 670.705 200.8C673.534 201.704 684.612 199.326 686.527 198.392C688.428 197.449 691.88 198.235 693.776 196.714C695.673 195.192 696.804 192.516 699.053 188.34C701.301 184.165 696.736 186.643 703.21 182.633L709.684 178.623C709.684 178.623 711.901 169.751 709.936 165.4C707.984 161.058 714.016 151.476 715.918 150.532C717.819 149.589 740.327 142.178 740.327 142.178C740.327 142.178 751.695 130.684 772.126 145.657C792.557 160.63 799.461 162.184 799.461 162.184C799.461 162.184 802.196 168.268 805.949 161.116C809.716 153.954 802.475 157.976 810.829 150.69C819.183 143.403 841.436 150.383 844.855 147.64L858.155 136.967C866.514 130.26 873.721 122.708 873.721 122.708L954.468 121.813L984.138 102.143C984.138 102.143 986.862 107.051 991.025 101.942C995.188 96.8329 994.41 95.6687 996.681 93.8468C998.951 92.0249 1002.78 91.9028 1005.46 92.1237C1008.14 92.3446 1010.45 92.8657 1013.17 97.7733C1015.9 102.681 1019.25 93.476 1019.25 93.476C1019.25 93.476 1028.51 100.836 1030.05 101.389C1031.59 101.923 1033.53 104.509 1035.09 107.995C1036.66 111.48 1038.65 119.93 1038.65 119.93C1038.65 119.93 1047.11 125.557 1049.06 127.555C1051 129.553 1050.3 136.626 1050.3 136.626C1050.3 136.626 1050.34 140.734 1054.91 138.835C1059.48 136.936 1058.24 127.277 1059 126.088C1059.75 124.899 1058.15 117.305 1062.78 120.102C1067.39 122.91 1075.5 129.425 1075.5 129.425C1075.5 129.425 1069.8 134.001 1073.99 132.402C1078.19 130.803 1078.98 133.722 1081.61 128.658C1084.24 123.594 1080.36 117.244 1080.36 117.244C1080.36 117.244 1078.34 105.842 1082.2 108.672C1086.06 111.501 1085.32 115.633 1087.64 117.33C1089.96 119.028 1083.14 126.868 1089.96 119.028C1096.77 111.188 1096.73 107.08 1095.21 106.536C1093.68 105.992 1091.78 103.963 1091.78 103.963C1091.78 103.963 1091.84 106.286 1088.31 101.421C1084.78 96.5573 1079.06 94.64 1079.06 94.64C1079.06 94.64 1065.36 86.5422 1061.56 88.5685C1057.74 90.5852 1051.62 91.2129 1052.71 94.4828C1053.79 97.7527 1049.75 106.02 1047.45 104.332C1045.14 102.644 1041.43 105.605 1042.81 100.797C1044.2 95.9885 1043.39 91.4538 1046.72 88.0547C1050.03 84.6564 1049.73 83.2687 1055.86 82.6506C1061.97 82.0229 1061.81 85.4091 1065.78 80.595C1069.75 75.7809 1072 70.5781 1069.59 68.2149C1067.16 65.8621 1061.76 61.1723 1061.76 61.1723C1061.76 61.1723 1061.04 55.6877 1065.64 56.2911C1070.25 56.8945 1076.49 59.7244 1076.49 59.7244C1076.49 59.7244 1089.65 60.5564 1091.81 60.5931C1093.95 60.6401 1098.37 57.9773 1101.61 57.4938C1104.84 57.0103 1103 52.4956 1111.21 55.4576C1119.41 58.4196 1122.07 57.7333 1124.93 57.6498C1127.79 57.5662 1131.16 56.8691 1132.11 57.33C1133.05 57.8012 1137.51 50.8882 1134 58.7112C1130.47 66.5246 1130.81 70.8137 1125.51 72.1757C1120.2 73.5377 1120.37 76.1761 1113.89 74.2808C1107.41 72.3855 1103.31 71.5578 1099.35 69.8585C1095.38 68.1591 1086.49 68.08 1085.41 68.2811C1084.33 68.4821 1078.93 66.4855 1081.55 69.2718C1084.16 72.0581 1079.3 68.6192 1088.78 75.5637C1098.26 82.5082 1124.74 106.511 1124.74 106.511L1131.26 116.065C1131.26 116.065 1149.83 117.138 1150.99 116.815C1152.13 116.482 1163.83 118.344 1166.83 112.681C1169.83 107.017 1172.6 94.4483 1172.6 94.4483L1223.23 106.483C1223.23 106.483 1255.55 123.752 1254.04 126.15C1252.53 128.548 1255.73 141.96 1272.02 145.444C1288.33 148.937 1327.37 150.139 1327.37 150.139C1327.37 150.139 1357.59 118.494 1353.47 107.154C1349.34 95.8137 1374.64 101.936 1374.64 101.936" stroke="#B7B7B7" stroke-width="2" stroke-miterlimit="10"/>
<path d="M477.577 706.946C477.577 706.946 495.839 695.85 500.924 688.217C506.01 680.584 510.492 668.135 520.806 666.947C531.12 665.76 534.018 668.755 536.859 665.593C539.7 662.43 548.68 641.917 548.68 641.917C548.68 641.917 577.896 637.109 579.635 638.384C581.375 639.659 598.848 668.202 598.848 668.202L630.463 675.642L639.426 713.681C639.426 713.681 648.72 725.739 655.626 728.169C662.532 730.618 674.014 732.028 679.218 735.843C684.422 739.658 692.585 754.389 692.585 754.389C692.585 754.389 685.818 766.905 686.409 769.1C687.001 771.276 691.112 780.405 691.112 780.405L664.806 788.217C664.806 788.217 644.835 799.802 658.136 811.294C671.438 822.786 660.136 840.726 660.136 840.726L645.263 844.688C645.263 844.688 661.838 839.361 647.7 859.576C633.549 879.801 620.937 881.046 620.937 881.046C620.937 881.046 590.626 891.168 588.325 889.481C586.023 887.794 572.228 884.668 573.986 889.46C575.745 894.252 581.007 904.225 581.007 904.225L578.739 918.852" stroke="#B1B2B3" stroke-miterlimit="10"/>
<path d="M630.276 1017.25L673.476 1026.46L699.376 1005.67C699.376 1005.67 738.224 1034.16 759.669 1023.08C781.114 1012.01 828.076 998.007 828.076 998.007C828.076 998.007 885.892 993.711 888.181 995.39C890.469 997.069 929.808 1019.01 929.808 1019.01C929.808 1019.01 938.311 1019.2 932.162 1027.65C926 1036.11 915.793 1036.4 923.769 1040.53C931.745 1044.65 936.298 1045.39 944.801 1045.58C953.305 1045.76 985.118 1050.06 972.77 1064.37C960.422 1078.67 970.24 1097.11 970.24 1097.11L987.351 1107.08C987.351 1107.08 977.803 1117.36 982.442 1128.56C987.081 1139.76 992.293 1150.49 992.4 1161.81C992.507 1173.13 986.451 1192.91 986.451 1192.91" stroke="#B1B2B3" stroke-miterlimit="10"/>
<path d="M1344.1 982.347L1334.9 981.727L1323.97 978.088C1323.97 978.088 1319.47 988.787 1314.28 985.858C1309.1 982.928 1253.28 967.376 1245.82 967.154C1238.36 966.933 1201.12 972.854 1198.81 971.166C1196.51 969.479 1206.75 961.244 1197.52 955.351C1188.28 949.449 1153.75 938.132 1153.75 938.132C1153.75 938.132 1161.14 931.316 1170.23 920.473C1179.3 909.64 1183.88 907.752 1181.57 906.055C1179.25 904.357 1147.56 889.877 1146.66 885.277C1145.76 880.677 1141.69 875.95 1134.17 867.804C1126.62 859.659 1102.11 877.552 1119.64 848.406C1137.16 819.271 1151.71 778.338 1151.71 778.338C1151.71 778.338 1147.06 771.425 1156.75 766.297C1166.45 761.169 1172.76 758.782 1176.75 756.462C1180.74 754.142 1188.15 748.204 1188.15 748.204C1188.15 748.204 1216.28 750.474 1226.67 756.324C1237.05 762.193 1271.34 747.096 1271.34 747.096C1271.34 747.096 1279.73 722.633 1284.31 722.49C1288.91 722.356 1343.47 726.489 1343.47 726.489" stroke="#B1B2B3" stroke-miterlimit="10"/>
<path d="M1350.23 561.427C1326.31 551.677 1308.95 551.688 1297.16 553.784C1286.68 555.654 1280.6 559.178 1270.42 557.632C1257.64 555.678 1257.96 548.717 1242.92 541.818C1222.73 532.543 1206.93 538.103 1201.19 529.477C1198.75 525.795 1201.3 524.285 1202.18 512.833C1203.11 500.557 1203.87 490.652 1197.92 483.657C1187.27 471.134 1158.73 472.034 1159.04 470.787C1159.27 469.91 1173.3 470.64 1173.28 470.808C1173.26 471.066 1143.48 472.399 1117.38 464.565C1108.6 461.929 1102.31 458.884 1097.92 456.378C1094.7 454.55 1087.47 450.424 1083.58 445.864C1074.35 435.042 1087.58 426.022 1087.72 401.134C1087.76 394.637 1087.84 380.455 1079.41 364.64C1074.72 355.874 1058.82 340.385 1060.49 338.99C1062.94 336.898 1089 353.27 1141.7 383.392C1147.27 380.219 1155.1 375.01 1162.06 367.055C1164.41 364.372 1164.51 363.834 1166.58 361.675C1172.81 355.136 1186.13 345.173 1195.51 347.276C1201.2 348.556 1203.44 353.818 1207.06 362.684C1214.31 380.505 1208.58 386.217 1215.31 391.308C1217.7 393.12 1221.06 394.399 1257.51 393.575C1282.3 393.011 1282 392.396 1287.71 393.141C1309.87 396 1311.17 404.954 1327.71 405.106C1345 405.256 1352.44 395.572 1362.41 399.282C1370.97 402.469 1368.36 410.685 1376.24 415.495C1382.6 419.39 1395.31 420.762 1422.92 410.63" stroke="#B1B2B3" stroke-miterlimit="10"/>
<path d="M1517.49 277.452C1513.85 278.392 1508.56 279.677 1502.09 280.967C1490.68 283.265 1484.99 284.413 1479.27 284.262C1469.87 284.03 1469.5 281.53 1457.54 280.509C1447.49 279.65 1446.58 281.305 1438.68 280.622C1424.5 279.388 1421.08 273.513 1411.19 271.777C1398.8 269.617 1396 278.203 1374.73 282.475C1359.96 285.446 1360.08 282.028 1343.34 284.71C1324.79 287.671 1322.82 292.155 1302.31 295.551C1289.43 297.673 1278.29 299.407 1272.6 294.66C1267.79 290.662 1268.76 283.647 1270.75 279.371C1273.72 272.973 1279.67 271.172 1287.75 264.853C1296.31 258.143 1300.48 251.66 1304.7 245.077C1313.23 231.798 1310.49 225.477 1315.8 208.809C1320.94 192.651 1325.72 192.611 1331.51 177.676C1334.84 169.044 1338.49 156.016 1338 138.901" stroke="#B1B2B3" stroke-miterlimit="10"/>
<path d="M1065.36 139.813C1065.39 142.175 1065.12 146.065 1062.96 150.392C1056.72 162.892 1040.02 166.777 1042.34 171.728C1044.9 177.224 1059.64 175.478 1061.72 181.23C1064.34 188.545 1044.17 201.29 1044.17 201.29C1040.66 213.309 1041.67 222.793 1042.9 228.569C1044.67 236.895 1048.54 243.268 1056.27 256.026C1064.09 268.912 1068.71 273.122 1071.1 275.134C1079.51 282.2 1084.48 282.035 1088.95 285.868C1107.42 301.752 1078.79 351.398 1061.8 350.615C1053.84 350.253 1054.46 339.143 1039.27 334.094C1026.05 329.702 1011.99 333.611 1006.89 335.036C1004.04 335.823 986.094 340.83 978.523 353.028C976.162 356.827 976.829 358.075 973.98 361.456C968.657 367.735 960.082 370.79 952.493 372.751C925.831 379.611 916.694 371.65 891.607 377.489C874.765 381.408 873.161 386.342 862.376 385.439C845.077 384.011 837.077 370.296 830.631 372.736C825.19 374.795 831.996 384.12 824.665 395.416C819.567 403.277 813.902 402.416 800.167 415.084C789.976 424.482 791.903 426.075 786.413 428.517C772.304 434.801 748.967 429.064 737.725 418.681C734.185 415.405 735.292 414.86 731.492 411.752C722.267 404.227 709.878 402.687 699.77 401.422C689.911 400.201 684.903 399.622 681.259 401.961C675.74 405.5 679.774 411.155 674.449 415.775C668.604 420.853 660.046 417.27 649.052 420.667C635.969 424.688 636.73 433.234 626.099 440.291C602.336 456.046 548.857 446.349 542.726 430.87C541.022 426.545 543.316 422.597 539.536 420.303C533.029 416.349 521.485 425.253 511.015 421.726C503.803 419.291 504.744 413.552 498.549 407.869C493.371 403.113 482.874 398.108 459.141 398.95" stroke="#B1B2B3" stroke-miterlimit="10"/>
<path d="M575.328 636.311C585.244 596.845 600.753 584.789 613.919 581.679C625.066 579.045 650.218 579.091 668.816 580.987C674.363 581.549 681.857 582.534 690.999 580.345C699.02 578.423 704.842 574.905 713.082 569.809C718.207 566.647 721.713 564.133 730.48 557.607C747.241 545.118 755.772 538.762 762.35 532.849C770.318 525.695 774.315 522.128 777.395 518.027C780.748 513.562 784.402 507.378 789.255 478.555C793.198 455.186 792.327 450.181 790.095 445.246C786.579 437.528 780.694 432.19 776.496 429.002" stroke="#B1B2B3" stroke-miterlimit="10"/>
<path d="M772.509 513.418C785.385 511.494 795.104 512.368 801.443 513.462C806.93 514.41 812.633 516.096 824.078 519.477C837.351 523.398 835.989 523.518 838.588 523.946C857.277 526.985 866.977 510.701 882.473 512.897C889.467 513.891 896.28 522.026 909.918 538.327C915.989 545.578 920.336 550.826 924.579 558.794C928.915 566.931 932.879 574.575 932.347 584.796C932.048 590.552 931.683 597.698 925.581 603.673C917.038 612.033 907.838 607.782 896.176 614.753C878.142 625.544 886.962 643.625 867.604 652.924C865.777 653.802 859.059 656.946 850.279 656.98C837.254 657.037 834.7 650.207 824.758 650.607C811.253 651.151 799.27 664.402 795.466 675.02C793.717 679.912 793.782 684.016 793.833 685.293C794.334 698.01 803.996 702.681 801.593 710.41C799.94 715.751 793.654 718.913 789.533 720.986C772.67 729.477 760.788 720.222 741.553 727.273C730.675 731.262 731.552 735.303 715.653 741.804C707.194 745.271 699.572 747.153 694.301 748.202" stroke="#B1B2B3" stroke-miterlimit="10"/>
<path d="M640.4 855.653C665.509 846.885 680.331 848.263 689.511 852.054C703.865 857.985 701.32 868.544 716.84 874.707C732.899 881.07 741.881 872.25 766.009 877.179C776.426 879.304 784.293 883.477 800.038 891.815C821.735 903.31 821.707 907.016 842.069 916.634C856.585 923.484 864.806 927.254 876.623 927.343C883.069 927.392 887.586 926.337 895.834 927.65C905.325 929.172 908.754 932.08 916.237 934.879C935.514 942.043 944.971 934.722 955.834 940.666C970.297 948.589 970.781 971.048 962.376 974.771C954.481 978.263 942.039 963.747 933.493 967.366C923.851 971.449 927.824 995.025 935.614 1011.14C937.127 1014.26 938.609 1016.75 939.635 1018.4" stroke="#B1B2B3" stroke-miterlimit="10"/>
<path d="M946.217 932.988C960.657 924.127 972.787 921.666 981.007 920.999C993.862 919.958 996.601 923.368 1014.2 922.666C1032.51 921.934 1037.45 917.913 1045.08 920.882C1055.03 924.757 1053.64 934.262 1059 940.677C1066.49 949.644 1089.3 955.054 1152.87 943.211" stroke="#B1B2B3" stroke-miterlimit="10"/>
<path d="M901.838 923.871C903.185 918.056 906.222 910.049 913.752 902.593C924.328 892.135 933.123 893.33 936.328 886.82C943.433 872.385 905.256 856.446 912.41 840.42C915.824 832.788 925.381 834.385 928.188 826.583C932.926 813.432 906.611 806.25 906.595 785.339C906.592 779.553 908.616 774.528 904.183 770.866C900.463 767.785 895.22 768.194 885.984 767.91C870.651 767.428 851.882 766.839 838.181 759.419C832.533 756.354 834.508 755.784 825.219 749.913C813.654 742.588 808.273 742.014 802.382 737.792C797.151 734.034 791.223 727.197 790.042 713.724" stroke="#B1B2B3" stroke-miterlimit="10"/>
<path d="M903.199 782.297C918.921 784.106 931.112 786.797 939.276 788.895C949.163 791.443 959.134 794.648 976.136 798.406C994.833 802.535 998.629 802.144 1001.45 800.604C1007.43 797.355 1004.5 791.399 1009.65 777.429C1013.07 768.212 1017.68 761.757 1020.2 758.309C1027.68 748.025 1036.13 736.396 1046.05 736.386C1056.19 736.37 1056.53 748.553 1074.57 754.957C1077.65 756.046 1091.33 760.899 1102.17 756.51C1114.77 751.389 1112.64 738.171 1120.38 737.156C1127.84 736.18 1136.18 747.67 1145.1 759.962C1150.06 766.788 1153.59 772.806 1156 777.289" stroke="#B1B2B3" stroke-miterlimit="10"/>
<path d="M1052.49 734.425C1046.6 727.169 1040.53 716.819 1041.66 704.617C1043.59 683.597 1065.46 671.766 1058.59 660.672C1054.4 653.907 1045.52 657.097 1035.08 648.035C1025.76 639.925 1029.55 634.502 1021.24 619.476C1011.88 602.551 997.817 592.66 998.352 592.33C998.835 592.04 1008.24 600.778 1007.49 601.341C1006.38 602.151 987.759 582.682 974.166 586.088C966.054 588.124 966.161 596.679 959.195 598.112C953.687 599.246 944.587 595.713 928.812 575.817" stroke="#B1B2B3" stroke-miterlimit="10"/>
<path d="M1045.47 651.332C1047.85 649.413 1051.21 646.331 1053.95 642.061C1057.56 636.478 1057.44 633.047 1060.04 626.236C1063.3 617.668 1064.93 613.369 1068.47 610.946C1078.71 603.904 1093.41 612.455 1109.02 604.961C1112.52 603.276 1114.98 600.926 1119.87 596.215C1135.71 580.998 1132.1 573.579 1144.55 565.4C1148.16 563.027 1146.64 564.849 1164.76 556.384C1175.42 551.415 1177.5 550.047 1183.4 547.413C1189.74 544.593 1199.3 540.821 1212.19 537.556" stroke="#B1B2B3" stroke-miterlimit="10"/>
<path d="M996.406 514.2L996.447 514.14L996.463 514.074L998.613 505.289L998.621 505.28L998.809 505.054C998.971 504.859 999.206 504.578 999.491 504.238C1000.06 503.557 1000.84 502.637 1001.66 501.68C1002.49 500.723 1003.35 499.731 1004.11 498.906C1004.87 498.07 1005.49 497.436 1005.82 497.169C1005.89 497.109 1006.05 497.037 1006.35 496.985C1006.64 496.935 1007.01 496.913 1007.45 496.92C1008.32 496.932 1009.38 497.055 1010.42 497.218C1011.46 497.381 1012.45 497.581 1013.18 497.74C1013.55 497.819 1013.85 497.889 1014.06 497.938C1014.16 497.963 1014.25 497.982 1014.3 497.996L1014.36 498.011L1014.37 498.013L1014.38 498.015C1014.39 498.018 1014.41 498.023 1014.43 498.031C1014.48 498.045 1014.55 498.068 1014.65 498.099C1014.84 498.162 1015.12 498.259 1015.47 498.397C1016.18 498.673 1017.17 499.109 1018.3 499.744C1020.57 501.014 1023.39 503.08 1025.59 506.261C1026.7 507.854 1027.08 508.97 1027 509.911C1026.93 510.848 1026.4 511.682 1025.48 512.716C1025.07 513.171 1024.6 513.658 1024.07 514.201C1022.2 516.125 1019.64 518.745 1017.14 523.08C1016.59 524.037 1016.16 524.751 1015.84 525.297C1015.69 525.542 1015.56 525.754 1015.45 525.938C1015.28 526.233 1015.15 526.464 1015.06 526.651C1014.97 526.834 1014.9 527.001 1014.89 527.16C1014.85 527.484 1015.02 527.711 1015.16 527.883C1015.17 527.905 1015.19 527.926 1015.2 527.946C1015.35 528.143 1015.56 528.449 1015.77 529.069C1016.2 530.346 1016.23 530.837 1016.24 531.777C1016.25 531.867 1016.25 531.961 1016.25 532.059C1016.25 533.028 1016.27 534.464 1016.56 537.287C1016.72 538.814 1016.46 539.596 1016.07 539.988C1015.73 540.34 1015.19 540.467 1014.35 540.432C1013.74 540.406 1013.08 540.303 1012.35 540.19C1012.05 540.142 1011.73 540.092 1011.4 540.046C1010.34 539.897 1009.18 539.79 1008.13 540.019C1007.21 540.22 1006.49 540.418 1005.87 540.588L1005.85 540.593C1005.23 540.765 1004.72 540.905 1004.18 541.003C1003.12 541.195 1001.9 541.239 999.515 540.955C998.428 540.823 997.34 540.38 996.301 539.752C995.265 539.127 994.311 538.339 993.494 537.558C992.68 536.778 992.012 536.015 991.548 535.446C991.317 535.162 991.136 534.928 991.014 534.765C991.053 534.727 991.095 534.685 991.14 534.64C991.372 534.404 991.684 534.058 992.013 533.608C992.671 532.71 993.4 531.396 993.696 529.724C994.006 527.976 993.074 526.178 992.128 524.861C991.649 524.194 991.153 523.632 990.776 523.236C990.619 523.072 990.482 522.935 990.376 522.832L996.406 514.2Z" stroke="#00CCCC"/>
</svg>
