<svg width="770" height="789" viewBox="0 0 770 789" fill="none" xmlns="http://www.w3.org/2000/svg">
<g clip-path="url(#clip0_151_7)">
<path d="M769 471.17C767.23 471.17 741.09 469.81 739.54 466.5C737.99 463.19 736.45 457.22 736.45 453.25V441.32C736.45 441.32 738.66 436.68 731.59 438.01C724.52 439.33 724.3 438.67 724.3 441.1C724.3 443.53 725.18 443.97 722.09 444.85C719 445.73 713.26 444.19 713.26 444.19C713.26 444.19 709.06 441.54 707.52 444.63C705.97 447.72 698.24 451.48 697.58 451.48C696.92 451.48 696.03 449.49 695.59 453.47C695.15 457.45 693.16 464.95 692.94 466.94C692.72 468.93 692.72 471.14 691.84 472.02C690.96 472.9 688.53 474.01 688.53 474.01L683.01 479.09C683.01 479.09 676.83 488.59 673.74 486.82C670.65 485.05 665.79 482.4 665.79 482.4C665.79 482.4 661.59 480.41 665.13 479.75C668.66 479.09 670.21 478.43 671.76 477.98C673.31 477.54 679.49 474.89 679.71 472.9C679.93 470.91 681.04 470.47 679.93 468.26C678.83 466.05 677.28 463.62 673.08 461.41C668.88 459.2 668.22 456.99 663.58 458.1C658.94 459.2 658.94 457.44 658.28 460.53C657.62 463.62 656.07 469.59 654.31 472.46C652.54 475.33 651.88 485.05 642.61 478.2C633.33 471.35 624.06 466.94 624.06 466.94C624.06 466.94 636.43 472.9 629.58 482.18C622.73 491.46 613.24 495.43 611.03 495.65C608.82 495.87 595.35 501.39 595.35 501.39L571.72 499.62C571.72 499.62 556.7 504.92 555.16 509.78C553.61 514.64 541.03 509.78 541.03 509.78L528 517.73C528 517.73 526.23 515.96 524.47 516.85C522.7 517.73 520.49 521.93 521.38 523.92C522.26 525.91 525.58 525.47 525.35 527.45C525.13 529.44 520.93 529 521.82 532.75C522.7 536.5 530.66 537.17 532.42 539.82C534.19 542.47 534.85 547.55 534.85 547.55C534.85 547.55 529.33 551.75 527.56 554.62C525.79 557.49 518.06 557.27 518.06 557.27C518.06 557.27 516.96 559.7 517.4 563.23C517.84 566.76 523.14 568.75 518.95 569.64C514.75 570.52 498.41 570.52 497.75 570.96C497.09 571.4 495.32 584.21 495.32 584.21L481.18 582.44L475 577.58L478.75 586.63C478.75 586.63 481.4 588.62 481.4 590.83C481.4 593.04 481.18 595.47 480.96 596.13C480.74 596.79 473.01 593.04 471.68 592.15C470.36 591.27 461.3 586.41 460.42 590.83C459.54 595.25 463.07 597.68 460.86 599C458.65 600.32 453.79 601.21 451.59 601.21H438.34C438.34 601.21 430.61 599.88 426.19 615.34C421.77 630.8 419.12 653.77 419.12 653.77L414.92 655.98C414.92 655.98 411.17 655.76 414.26 661.28C417.35 666.8 416.91 668.35 415.14 671.22C413.37 674.09 412.05 679.61 412.05 681.82C412.05 684.03 414.48 687.56 413.6 691.1C412.72 694.63 409.18 697.95 408.52 700.16C407.86 702.37 384 710.54 384 710.54C384 710.54 374.95 715.4 372.3 715.4C369.65 715.4 356.62 713.85 356.62 713.85L348.89 720.7C348.89 720.7 336.74 730.42 334.76 729.53C332.77 728.65 319.3 725.33 319.3 725.33L315.55 728.42C315.55 728.42 309.81 747.41 309.81 748.52C309.81 749.63 307.82 763.54 307.82 763.54C307.82 763.54 304.29 768.43 303.62 769.63C302.96 770.83 300.97 773.26 300.97 773.26C300.97 773.26 296.11 764.87 293.02 764.2C289.93 763.54 285.07 762.66 285.07 762.66L267.84 746.76L264.75 735.28C264.75 735.28 258.79 733.73 252.38 733.73C245.97 733.73 230.74 733.95 229.85 732.18C228.97 730.41 215.72 727.98 215.72 727.98C215.72 727.98 216.16 752.94 194.96 760.67C173.76 768.4 160.29 770.17 153 769.5C145.71 768.84 120.53 765.3 119.87 764.64C119.21 763.98 104.63 752.49 104.63 752.49L91.6001 735.04C91.6001 735.04 89.1701 733.49 85.1901 732.61C81.2201 731.73 80.9901 720.02 80.9901 720.02L84.9601 708.76C84.9601 708.76 87.6101 704.12 85.6201 702.36C83.6301 700.59 77.6701 696.84 77.6701 696.84L81.8701 689.99C81.8701 689.99 87.6101 689.55 82.3101 686.01C77.0101 682.48 76.1301 682.25 74.5801 681.81C73.0301 681.37 67.5101 680.04 67.7301 677.39C67.9501 674.74 69.5001 669.66 69.7201 667.23C69.9401 664.8 69.9401 665.02 71.7101 660.82C73.4801 656.62 71.0501 657.29 69.9401 655.52C68.8401 653.75 65.5101 657.73 67.7301 652.43C69.9401 647.13 71.4901 651.33 69.5001 645.14C67.5101 638.96 69.0601 641.16 69.0601 637.63C69.0601 634.1 68.8401 633.88 65.5301 631.89C62.2201 629.9 67.5201 621.51 62.2201 629.9C56.9201 638.29 55.1501 639.62 52.0601 637.41C48.9701 635.2 43.2301 637.63 44.7701 631.23C46.3201 624.82 52.2801 621.29 52.2801 621.29L50.9501 610.03L56.0301 597.44C56.0301 597.44 60.8901 597.88 61.3301 593.69C61.7701 589.49 58.2401 590.38 60.4501 586.84C62.6601 583.31 68.1801 581.54 68.1801 581.54L62.2201 573.81C62.2201 573.81 43.5901 566.08 44.5101 565.64C45.4301 565.2 42.7801 561 42.7801 561C42.7801 561 31.9601 557.47 29.3101 556.8C26.6601 556.14 22.2401 554.37 22.0201 550.62C21.8001 546.87 22.0201 538.92 22.0201 538.92C22.0201 538.92 21.5801 536.49 19.8101 534.06C18.0401 531.63 17.8201 534.72 19.8101 529.2C21.8001 523.68 24.4501 525.45 21.8001 520.15C19.1501 514.85 16.0601 511.32 14.0701 509.55C12.0801 507.78 8.55011 506.46 5.01011 504.47C1.48011 502.48 -0.289894 502.92 2.14011 499.39C4.57011 495.86 5.89011 494.53 8.32011 485.7C10.7501 476.87 16.7101 477.31 16.7101 477.31C16.7101 477.31 21.3501 479.96 28.4101 468.7C35.4801 457.44 35.9201 458.1 39.6701 456.33C43.4201 454.56 54.0301 455.67 46.7401 452.13C39.4501 448.6 37.2401 449.92 38.3501 447.27C39.4601 444.62 40.5601 445.28 43.4301 442.19C46.3001 439.1 46.7401 439.54 47.6301 437.77C48.5101 436 50.7201 435.78 47.8501 433.57C44.9801 431.36 41.6701 428.27 41.6701 428.27C41.6701 428.27 31.5101 426.72 32.6101 421.2C33.7101 415.68 34.8201 414.57 35.4801 413.03C36.1401 411.48 39.4601 415.02 34.3801 408.83C29.3001 402.65 28.6401 401.32 27.9801 398.89C27.3201 396.46 20.9101 395.8 27.3201 394.25C33.7201 392.7 35.9301 390.94 36.6001 389.61C37.2601 388.29 33.7301 389.61 37.2601 388.29C40.7901 386.97 42.1201 386.3 42.1201 386.3C42.1201 386.3 46.9801 385.42 47.6401 382.55C48.3001 379.68 50.5101 368.2 50.5101 368.2L63.3201 382.55C63.3201 382.55 66.6301 382.55 67.9601 381.01C69.2801 379.46 69.0601 379.68 69.5101 377.7C69.9501 375.71 68.8501 373.95 70.1701 369.31C71.5001 364.67 72.6001 362.24 73.0401 361.14C73.4801 360.04 74.8101 358.71 75.4701 357.83C76.1301 356.95 77.9001 350.32 77.9001 350.32C77.9001 350.32 77.4601 351.64 80.9901 350.32C84.5201 349 86.2901 350.54 86.9501 348.11C87.6101 345.68 89.1601 332.65 89.1601 332.65L91.8101 322.93C91.8101 322.93 90.4901 318.96 88.2801 318.07C86.0701 317.19 81.4301 317.19 81.4301 313.87C81.4301 310.55 82.9701 307.24 81.8701 304.82C80.7701 302.39 75.6901 302.39 74.8001 298.64C73.9201 294.89 85.6201 295.99 73.4701 292.9C61.3201 289.81 60.8801 291.35 60.0001 286.5C59.1201 281.64 57.3501 279.43 56.0201 275.02C54.7001 270.6 53.3701 267.95 52.9301 265.96C52.4901 263.97 55.1401 264.64 52.4901 263.97C49.8401 263.31 47.4101 263.09 46.0801 263.31C44.7601 263.53 33.7101 266.4 33.7101 266.4C33.7101 266.4 27.5301 266.84 26.2001 264.63C24.8801 262.42 18.2501 253.59 18.2501 253.59C18.2501 253.59 19.3501 251.6 22.2301 242.11C25.1001 232.61 17.1501 233.28 27.7501 230.18C38.3501 227.09 45.4201 220.68 45.4201 220.68L58.4501 211.4L60.4401 210.07C62.4301 208.75 67.7301 206.32 68.6101 204.33C69.4901 202.34 70.3801 201.02 70.6001 198.81C70.8201 196.6 70.3801 195.72 71.7001 191.96C73.0201 188.21 72.3601 189.09 74.3501 186.22C76.3401 183.35 74.1301 182.91 78.7701 182.25C83.4101 181.59 81.2001 179.16 86.7201 180.48C92.2401 181.81 96.2201 185.56 95.3301 185.78C94.4501 186 95.9901 195.28 94.2201 200.8C92.4501 206.32 91.1301 204.78 92.4501 208.09C93.7801 211.4 103.05 223.33 105.26 223.99C107.47 224.65 118.95 226.42 123.37 223.99C127.79 221.56 130.44 232.16 130.88 233.04C131.32 233.92 138.17 235.69 139.71 233.04C141.26 230.39 141.92 228.18 142.36 224.65C142.8 221.12 138.61 218.47 145.23 213.39C151.86 208.31 154.73 203.45 154.73 201.69C154.73 199.93 154.95 192.63 154.95 190.65C154.95 188.67 150.98 182.8 150.09 180.1C149.21 177.4 146.12 172.76 146.12 172.76C146.12 172.76 145.02 170.99 149.65 169.89C154.29 168.79 159.59 167.9 162.24 167.24C164.89 166.58 167.98 166.14 167.76 162.82C167.54 159.51 165.33 155.97 164.23 150.67C163.13 145.37 161.8 139.85 162.02 137.2C162.24 134.55 162.24 135.65 163.57 133C164.89 130.35 169.31 125.71 169.31 125.71C169.31 125.71 174.83 120.63 175.27 117.76C175.71 114.89 175.93 111.58 177.04 111.35C178.14 111.13 188.52 108.7 188.52 108.7C188.52 108.7 189.18 100.53 190.07 98.1C190.95 95.67 191.17 93.9 192.06 91.92C192.94 89.93 198.02 83.31 198.02 83.31C198.02 83.31 190.51 83.31 209.28 80.22C228.05 77.13 227.61 74.26 228.49 72.27C229.37 70.28 229.15 65.2 232.91 64.76C236.66 64.32 238.87 64.76 241.3 64.76C243.73 64.76 251.9 65.2 252.56 63.43C253.22 61.66 256.53 56.58 256.53 56.58L269.34 58.79L277.95 71.16L284.58 63.87C284.58 63.87 289.88 60.34 292.31 59.89C294.74 59.45 313.29 54.59 313.29 54.59L315.94 44.87C315.94 44.87 321.02 30.73 321.68 28.97C322.34 27.2 327.2 18.59 327.2 18.59C327.2 18.59 333.75 16.01 334.34 14.54C334.93 13.07 333.75 10.12 334.34 8.06002C334.93 6.00002 334.34 2.17002 339.05 2.47002C343.76 2.77002 346.12 1.85002 347 2.45002C347.88 3.05002 348.18 2.60002 350.83 2.24002C353.48 1.88002 353.48 1.29002 355.25 0.990024C357.02 0.700024 360.26 4.82002 360.26 4.82002L362.91 15.42C362.91 15.42 362.32 21.6 364.38 22.78C366.44 23.96 363.5 22.19 369.09 24.84C374.69 27.49 426.81 47.22 426.81 47.22C426.81 47.22 430.93 46.63 434.17 48.4C437.41 50.17 435.94 54.88 438.29 55.76C440.65 56.64 435.05 62.42 435.05 62.42H430.63L426.51 56.05L420.62 53.69C420.62 53.69 418.26 54.57 418.85 57.52C419.44 60.46 420.91 61.35 420.91 64C420.91 66.65 420.32 70.18 419.73 71.07C419.14 71.95 415.61 73.72 415.61 73.72C415.61 73.72 415.61 77.25 417.08 79.9C418.55 82.55 417.67 84.61 418.26 86.08C418.85 87.55 424.44 90.2 425.62 83.28C426.8 76.36 411.78 74.3 429.45 68.7C447.12 63.11 453.6 60.75 453.6 60.75C453.6 60.75 458.02 60.82 458.61 62.41C459.2 63.99 464.5 67.23 465.68 67.53C466.86 67.82 467.74 69.59 469.21 69.59C470.68 69.59 472.45 68.71 475.39 67.53C478.33 66.35 475.39 65.76 479.81 66.35L484.23 66.94C484.23 66.94 489.53 63.41 491 60.46C492.47 57.52 499.54 55.16 500.72 55.45C501.9 55.74 513.97 61.04 513.97 61.04C513.97 61.04 523.98 59.86 523.98 75.47C523.98 91.08 525.75 94.61 525.75 94.61C525.75 94.61 523.69 98.73 528.69 96.67C533.7 94.61 528.99 93.72 535.76 93.43C542.53 93.14 547.24 105.5 549.89 105.5H560.2C566.68 105.5 573.16 104.62 573.16 104.62L603.49 136.42L624.4 138.48C624.4 138.48 622.93 142.01 627.05 141.13C631.17 140.25 631.47 139.36 633.23 139.36C634.99 139.36 636.47 140.83 637.35 142.01C638.23 143.19 638.82 144.37 637.35 147.9C635.88 151.43 641.77 148.19 641.77 148.19C641.77 148.19 641.48 155.55 641.77 156.44C642.07 157.32 641.48 159.38 640.3 161.74C639.12 164.1 635.59 169.1 635.59 169.1C635.59 169.1 635.88 175.28 635.59 177.05C635.3 178.82 631.47 182.06 631.47 182.06C631.47 182.06 629.41 184.12 632.06 185C634.71 185.88 639.13 180.58 640.01 180.29C640.89 180 644.13 175.58 644.43 178.82C644.72 182.06 644.43 188.54 644.43 188.54C644.43 188.54 640.01 188.54 642.37 189.42C644.73 190.3 643.55 192.07 647.08 190.6C650.61 189.13 652.38 184.42 652.38 184.42C652.38 184.42 657.39 177.94 657.39 180.89C657.39 183.84 655.03 185.6 655.03 187.37C655.03 189.14 648.55 190.32 655.03 189.14C661.51 187.96 663.57 185.9 663.28 185.02C662.99 184.14 663.31 182.37 663.31 182.37C663.31 182.37 662.16 183.55 663.31 179.72C664.46 175.89 663.31 172.65 663.31 172.65C663.31 172.65 662.33 163.15 659.9 162.64C657.47 162.12 654.89 159.99 653.64 162.05C652.39 164.11 646.72 166.61 646.72 164.85C646.72 163.09 643.85 163.08 646.79 161.24C649.73 159.4 651.72 156.82 654.67 156.46C657.61 156.09 658.2 155.28 660.78 157.42C663.36 159.55 661.59 161.17 665.49 160.36C669.39 159.55 672.85 157.86 673.15 155.72C673.44 153.58 673.81 149.09 673.81 149.09C673.81 149.09 676.31 146.07 677.71 148.21C679.11 150.35 679.99 154.25 679.99 154.25C679.99 154.25 684.44 159.92 685.22 160.8C685.99 161.68 688.97 162.12 690.41 163.17C691.85 164.22 693.45 161.24 694.99 165.99C696.53 170.74 697.86 171.46 698.96 172.56C700.06 173.66 701.66 174.66 701.78 175.27C701.89 175.88 707.03 174.22 701.78 176.71C696.53 179.19 694.49 181.46 691.84 180.02C689.19 178.58 687.92 179.96 686.48 176.43C685.04 172.9 683.94 170.85 683.33 168.42C682.72 165.99 679.47 162.4 678.97 162.07C678.47 161.74 677.48 158.59 677.04 161.02C676.6 163.45 676.54 159.8 676.54 167.04C676.54 174.28 674.22 196.8 674.22 196.8L671.81 204.16C671.81 204.16 678.14 212.11 678.73 212.41C679.32 212.7 682.71 218.3 686.68 216.68C690.65 215.06 698.02 209.91 698.02 209.91L710.68 236.12C710.68 236.12 713.92 257.62 712.15 258.21C710.38 258.8 704.79 266.75 709.06 274.99C713.33 283.24 727.17 299.43 727.17 299.43C727.17 299.43 754.33 295.75 758.53 288.46C762.73 281.17 769 294.32 769 294.32" stroke="#B7B7B7" stroke-width="2" stroke-miterlimit="10"/>
<path d="M769 471.17C767.23 471.17 741.09 469.81 739.54 466.5C737.99 463.19 736.45 457.22 736.45 453.25V441.32C736.45 441.32 738.66 436.68 731.59 438.01C724.52 439.33 724.3 438.67 724.3 441.1C724.3 443.53 725.18 443.97 722.09 444.85C719 445.73 713.26 444.19 713.26 444.19C713.26 444.19 709.06 441.54 707.52 444.63C705.97 447.72 698.24 451.48 697.58 451.48C696.92 451.48 696.03 449.49 695.59 453.47C695.15 457.45 693.16 464.95 692.94 466.94C692.72 468.93 692.72 471.14 691.84 472.02C690.96 472.9 688.53 474.01 688.53 474.01L683.01 479.09C683.01 479.09 676.83 488.59 673.74 486.82C670.65 485.05 665.79 482.4 665.79 482.4C665.79 482.4 661.59 480.41 665.13 479.75C668.66 479.09 670.21 478.43 671.76 477.98C673.31 477.54 679.49 474.89 679.71 472.9C679.93 470.91 681.04 470.47 679.93 468.26C678.83 466.05 677.28 463.62 673.08 461.41C668.88 459.2 668.22 456.99 663.58 458.1C658.94 459.2 658.94 457.44 658.28 460.53C657.62 463.62 656.07 469.59 654.31 472.46C652.54 475.33 651.88 485.05 642.61 478.2C633.33 471.35 624.06 466.94 624.06 466.94C624.06 466.94 636.43 472.9 629.58 482.18C622.73 491.46 613.24 495.43 611.03 495.65C608.82 495.87 595.35 501.39 595.35 501.39L571.72 499.62C571.72 499.62 556.7 504.92 555.16 509.78C553.61 514.64 541.03 509.78 541.03 509.78L528 517.73C528 517.73 526.23 515.96 524.47 516.85C522.7 517.73 520.49 521.93 521.38 523.92C522.26 525.91 525.58 525.47 525.35 527.45C525.13 529.44 520.93 529 521.82 532.75C522.7 536.5 530.66 537.17 532.42 539.82C534.19 542.47 534.85 547.55 534.85 547.55C534.85 547.55 529.33 551.75 527.56 554.62C525.79 557.49 518.06 557.27 518.06 557.27C518.06 557.27 516.96 559.7 517.4 563.23C517.84 566.76 523.14 568.75 518.95 569.64C514.75 570.52 498.41 570.52 497.75 570.96C497.09 571.4 495.32 584.21 495.32 584.21L481.18 582.44L475 577.58L478.75 586.63C478.75 586.63 481.4 588.62 481.4 590.83C481.4 593.04 481.18 595.47 480.96 596.13C480.74 596.79 473.01 593.04 471.68 592.15C470.36 591.27 461.3 586.41 460.42 590.83C459.54 595.25 463.07 597.68 460.86 599C458.65 600.32 453.79 601.21 451.59 601.21H438.34C438.34 601.21 430.61 599.88 426.19 615.34C421.77 630.8 419.12 653.77 419.12 653.77L414.92 655.98C414.92 655.98 411.17 655.76 414.26 661.28C417.35 666.8 416.91 668.35 415.14 671.22C413.37 674.09 412.05 679.61 412.05 681.82C412.05 684.03 414.48 687.56 413.6 691.1C412.72 694.63 409.18 697.95 408.52 700.16C407.86 702.37 384 710.54 384 710.54C384 710.54 374.95 715.4 372.3 715.4C369.65 715.4 356.62 713.85 356.62 713.85L348.89 720.7C348.89 720.7 336.74 730.42 334.76 729.53C332.77 728.65 319.3 725.33 319.3 725.33L315.55 728.42C315.55 728.42 309.81 747.41 309.81 748.52C309.81 749.63 307.82 763.54 307.82 763.54C307.82 763.54 304.29 768.43 303.62 769.63C302.96 770.83 300.97 773.26 300.97 773.26C300.97 773.26 296.11 764.87 293.02 764.2C289.93 763.54 285.07 762.66 285.07 762.66L267.84 746.76L264.75 735.28C264.75 735.28 258.79 733.73 252.38 733.73C245.97 733.73 230.74 733.95 229.85 732.18C228.97 730.41 215.72 727.98 215.72 727.98C215.72 727.98 216.16 752.94 194.96 760.67C173.76 768.4 160.29 770.17 153 769.5C145.71 768.84 120.53 765.3 119.87 764.64C119.21 763.98 104.63 752.49 104.63 752.49L91.6001 735.04C91.6001 735.04 89.1701 733.49 85.1901 732.61C81.2201 731.73 80.9901 720.02 80.9901 720.02L84.9601 708.76C84.9601 708.76 87.6101 704.12 85.6201 702.36C83.6301 700.59 77.6701 696.84 77.6701 696.84L81.8701 689.99C81.8701 689.99 87.6101 689.55 82.3101 686.01C77.0101 682.48 76.1301 682.25 74.5801 681.81C73.0301 681.37 67.5101 680.04 67.7301 677.39C67.9501 674.74 69.5001 669.66 69.7201 667.23C69.9401 664.8 69.9401 665.02 71.7101 660.82C73.4801 656.62 71.0501 657.29 69.9401 655.52C68.8401 653.75 65.5101 657.73 67.7301 652.43C69.9401 647.13 71.4901 651.33 69.5001 645.14C67.5101 638.96 69.0601 641.16 69.0601 637.63C69.0601 634.1 68.8401 633.88 65.5301 631.89C62.2201 629.9 67.5201 621.51 62.2201 629.9C56.9201 638.29 55.1501 639.62 52.0601 637.41C48.9701 635.2 43.2301 637.63 44.7701 631.23C46.3201 624.82 52.2801 621.29 52.2801 621.29L50.9501 610.03L56.0301 597.44C56.0301 597.44 60.8901 597.88 61.3301 593.69C61.7701 589.49 58.2401 590.38 60.4501 586.84C62.6601 583.31 68.1801 581.54 68.1801 581.54L62.2201 573.81C62.2201 573.81 43.5901 566.08 44.5101 565.64C45.4301 565.2 42.7801 561 42.7801 561C42.7801 561 31.9601 557.47 29.3101 556.8C26.6601 556.14 22.2401 554.37 22.0201 550.62C21.8001 546.87 22.0201 538.92 22.0201 538.92C22.0201 538.92 21.5801 536.49 19.8101 534.06C18.0401 531.63 17.8201 534.72 19.8101 529.2C21.8001 523.68 24.4501 525.45 21.8001 520.15C19.1501 514.85 16.0601 511.32 14.0701 509.55C12.0801 507.78 8.55011 506.46 5.01011 504.47C1.48011 502.48 -0.289894 502.92 2.14011 499.39C4.57011 495.86 5.89011 494.53 8.32011 485.7C10.7501 476.87 16.7101 477.31 16.7101 477.31C16.7101 477.31 21.3501 479.96 28.4101 468.7C35.4801 457.44 35.9201 458.1 39.6701 456.33C43.4201 454.56 54.0301 455.67 46.7401 452.13C39.4501 448.6 37.2401 449.92 38.3501 447.27C39.4601 444.62 40.5601 445.28 43.4301 442.19C46.3001 439.1 46.7401 439.54 47.6301 437.77C48.5101 436 50.7201 435.78 47.8501 433.57C44.9801 431.36 41.6701 428.27 41.6701 428.27C41.6701 428.27 31.5101 426.72 32.6101 421.2C33.7101 415.68 34.8201 414.57 35.4801 413.03C36.1401 411.48 39.4601 415.02 34.3801 408.83C29.3001 402.65 28.6401 401.32 27.9801 398.89C27.3201 396.46 20.9101 395.8 27.3201 394.25C33.7201 392.7 35.9301 390.94 36.6001 389.61C37.2601 388.29 33.7301 389.61 37.2601 388.29C40.7901 386.97 42.1201 386.3 42.1201 386.3C42.1201 386.3 46.9801 385.42 47.6401 382.55C48.3001 379.68 50.5101 368.2 50.5101 368.2L63.3201 382.55C63.3201 382.55 66.6301 382.55 67.9601 381.01C69.2801 379.46 69.0601 379.68 69.5101 377.7C69.9501 375.71 68.8501 373.95 70.1701 369.31C71.5001 364.67 72.6001 362.24 73.0401 361.14C73.4801 360.04 74.8101 358.71 75.4701 357.83C76.1301 356.95 77.9001 350.32 77.9001 350.32C77.9001 350.32 77.4601 351.64 80.9901 350.32C84.5201 349 86.2901 350.54 86.9501 348.11C87.6101 345.68 89.1601 332.65 89.1601 332.65L91.8101 322.93C91.8101 322.93 90.4901 318.96 88.2801 318.07C86.0701 317.19 81.4301 317.19 81.4301 313.87C81.4301 310.55 82.9701 307.24 81.8701 304.82C80.7701 302.39 75.6901 302.39 74.8001 298.64C73.9201 294.89 85.6201 295.99 73.4701 292.9C61.3201 289.81 60.8801 291.35 60.0001 286.5C59.1201 281.64 57.3501 279.43 56.0201 275.02C54.7001 270.6 53.3701 267.95 52.9301 265.96C52.4901 263.97 55.1401 264.64 52.4901 263.97C49.8401 263.31 47.4101 263.09 46.0801 263.31C44.7601 263.53 33.7101 266.4 33.7101 266.4C33.7101 266.4 27.5301 266.84 26.2001 264.63C24.8801 262.42 18.2501 253.59 18.2501 253.59C18.2501 253.59 19.3501 251.6 22.2301 242.11C25.1001 232.61 17.1501 233.28 27.7501 230.18C38.3501 227.09 45.4201 220.68 45.4201 220.68L58.4501 211.4L60.4401 210.07C62.4301 208.75 67.7301 206.32 68.6101 204.33C69.4901 202.34 70.3801 201.02 70.6001 198.81C70.8201 196.6 70.3801 195.72 71.7001 191.96C73.0201 188.21 72.3601 189.09 74.3501 186.22C76.3401 183.35 74.1301 182.91 78.7701 182.25C83.4101 181.59 81.2001 179.16 86.7201 180.48C92.2401 181.81 96.2201 185.56 95.3301 185.78C94.4501 186 95.9901 195.28 94.2201 200.8C92.4501 206.32 91.1301 204.78 92.4501 208.09C93.7801 211.4 103.05 223.33 105.26 223.99C107.47 224.65 118.95 226.42 123.37 223.99C127.79 221.56 130.44 232.16 130.88 233.04C131.32 233.92 138.17 235.69 139.71 233.04C141.26 230.39 141.92 228.18 142.36 224.65C142.8 221.12 138.61 218.47 145.23 213.39C151.86 208.31 154.73 203.45 154.73 201.69C154.73 199.93 154.95 192.63 154.95 190.65C154.95 188.67 150.98 182.8 150.09 180.1C149.21 177.4 146.12 172.76 146.12 172.76C146.12 172.76 145.02 170.99 149.65 169.89C154.29 168.79 159.59 167.9 162.24 167.24C164.89 166.58 167.98 166.14 167.76 162.82C167.54 159.51 165.33 155.97 164.23 150.67C163.13 145.37 161.8 139.85 162.02 137.2C162.24 134.55 162.24 135.65 163.57 133C164.89 130.35 169.31 125.71 169.31 125.71C169.31 125.71 174.83 120.63 175.27 117.76C175.71 114.89 175.93 111.58 177.04 111.35C178.14 111.13 188.52 108.7 188.52 108.7C188.52 108.7 189.18 100.53 190.07 98.1C190.95 95.67 191.17 93.9 192.06 91.92C192.94 89.93 198.02 83.31 198.02 83.31C198.02 83.31 190.51 83.31 209.28 80.22C228.05 77.13 227.61 74.26 228.49 72.27C229.37 70.28 229.15 65.2 232.91 64.76C236.66 64.32 238.87 64.76 241.3 64.76C243.73 64.76 251.9 65.2 252.56 63.43C253.22 61.66 256.53 56.58 256.53 56.58L269.34 58.79L277.95 71.16L284.58 63.87C284.58 63.87 289.88 60.34 292.31 59.89C294.74 59.45 313.29 54.59 313.29 54.59L315.94 44.87C315.94 44.87 321.02 30.73 321.68 28.97C322.34 27.2 327.2 18.59 327.2 18.59C327.2 18.59 333.75 16.01 334.34 14.54C334.93 13.07 333.75 10.12 334.34 8.06002C334.93 6.00002 334.34 2.17002 339.05 2.47002C343.76 2.77002 346.12 1.85002 347 2.45002C347.88 3.05002 348.18 2.60002 350.83 2.24002C353.48 1.88002 353.48 1.29002 355.25 0.990024C357.02 0.700024 360.26 4.82002 360.26 4.82002L362.91 15.42C362.91 15.42 362.32 21.6 364.38 22.78C366.44 23.96 363.5 22.19 369.09 24.84C374.69 27.49 426.81 47.22 426.81 47.22C426.81 47.22 430.93 46.63 434.17 48.4C437.41 50.17 435.94 54.88 438.29 55.76C440.65 56.64 435.05 62.42 435.05 62.42H430.63L426.51 56.05L420.62 53.69C420.62 53.69 418.26 54.57 418.85 57.52C419.44 60.46 420.91 61.35 420.91 64C420.91 66.65 420.32 70.18 419.73 71.07C419.14 71.95 415.61 73.72 415.61 73.72C415.61 73.72 415.61 77.25 417.08 79.9C418.55 82.55 417.67 84.61 418.26 86.08C418.85 87.55 424.44 90.2 425.62 83.28C426.8 76.36 411.78 74.3 429.45 68.7C447.12 63.11 453.6 60.75 453.6 60.75C453.6 60.75 458.02 60.82 458.61 62.41C459.2 63.99 464.5 67.23 465.68 67.53C466.86 67.82 467.74 69.59 469.21 69.59C470.68 69.59 472.45 68.71 475.39 67.53C478.33 66.35 475.39 65.76 479.81 66.35L484.23 66.94C484.23 66.94 489.53 63.41 491 60.46C492.47 57.52 499.54 55.16 500.72 55.45C501.9 55.74 513.97 61.04 513.97 61.04C513.97 61.04 523.98 59.86 523.98 75.47C523.98 91.08 525.75 94.61 525.75 94.61C525.75 94.61 523.69 98.73 528.69 96.67C533.7 94.61 528.99 93.72 535.76 93.43C542.53 93.14 547.24 105.5 549.89 105.5H560.2C566.68 105.5 573.16 104.62 573.16 104.62L603.49 136.42L624.4 138.48C624.4 138.48 622.93 142.01 627.05 141.13C631.17 140.25 631.47 139.36 633.23 139.36C634.99 139.36 636.47 140.83 637.35 142.01C638.23 143.19 638.82 144.37 637.35 147.9C635.88 151.43 641.77 148.19 641.77 148.19C641.77 148.19 641.48 155.55 641.77 156.44C642.07 157.32 641.48 159.38 640.3 161.74C639.12 164.1 635.59 169.1 635.59 169.1C635.59 169.1 635.88 175.28 635.59 177.05C635.3 178.82 631.47 182.06 631.47 182.06C631.47 182.06 629.41 184.12 632.06 185C634.71 185.88 639.13 180.58 640.01 180.29C640.89 180 644.13 175.58 644.43 178.82C644.72 182.06 644.43 188.54 644.43 188.54C644.43 188.54 640.01 188.54 642.37 189.42C644.73 190.3 643.55 192.07 647.08 190.6C650.61 189.13 652.38 184.42 652.38 184.42C652.38 184.42 657.39 177.94 657.39 180.89C657.39 183.84 655.03 185.6 655.03 187.37C655.03 189.14 648.55 190.32 655.03 189.14C661.51 187.96 663.57 185.9 663.28 185.02C662.99 184.14 663.31 182.37 663.31 182.37C663.31 182.37 662.16 183.55 663.31 179.72C664.46 175.89 663.31 172.65 663.31 172.65C663.31 172.65 662.33 163.15 659.9 162.64C657.47 162.12 654.89 159.99 653.64 162.05C652.39 164.11 646.72 166.61 646.72 164.85C646.72 163.09 643.85 163.08 646.79 161.24C649.73 159.4 651.72 156.82 654.67 156.46C657.61 156.09 658.2 155.28 660.78 157.42C663.36 159.55 661.59 161.17 665.49 160.36C669.39 159.55 672.85 157.86 673.15 155.72C673.44 153.58 673.81 149.09 673.81 149.09C673.81 149.09 676.31 146.07 677.71 148.21C679.11 150.35 679.99 154.25 679.99 154.25C679.99 154.25 684.44 159.92 685.22 160.8C685.99 161.68 688.97 162.12 690.41 163.17C691.85 164.22 693.45 161.24 694.99 165.99C696.53 170.74 697.86 171.46 698.96 172.56C700.06 173.66 701.66 174.66 701.78 175.27C701.89 175.88 707.03 174.22 701.78 176.71C696.53 179.19 694.49 181.46 691.84 180.02C689.19 178.58 687.92 179.96 686.48 176.43C685.04 172.9 683.94 170.85 683.33 168.42C682.72 165.99 679.47 162.4 678.97 162.07C678.47 161.74 677.48 158.59 677.04 161.02C676.6 163.45 676.54 159.8 676.54 167.04C676.54 174.28 674.22 196.8 674.22 196.8L671.81 204.16C671.81 204.16 678.14 212.11 678.73 212.41C679.32 212.7 682.71 218.3 686.68 216.68C690.65 215.06 698.02 209.91 698.02 209.91L710.68 236.12C710.68 236.12 713.92 257.62 712.15 258.21C710.38 258.8 704.79 266.75 709.06 274.99C713.33 283.24 727.17 299.43 727.17 299.43C727.17 299.43 754.33 295.75 758.53 288.46C762.73 281.17 769 294.32 769 294.32" stroke="#06CDCC" stroke-width="2" stroke-miterlimit="10"/>
<path d="M300.49 773.26C300.49 773.26 300.49 785.23 300.49 788.76" stroke="#B7B7B7" stroke-width="2" stroke-miterlimit="10"/>
<path d="M138.83 233.06C138.83 233.06 151.2 234.83 156.94 233.06C162.68 231.29 170.63 226.88 175.05 230.41C179.47 233.94 179.03 236.59 181.68 236.15C184.33 235.71 198.02 229.08 198.02 229.08C198.02 229.08 211.27 238.36 211.27 239.69C211.27 241.02 203.32 262.22 203.32 262.22L211.27 278.56L195.37 301.09C195.37 301.09 192.72 310.81 194.05 314.78C195.37 318.76 198.91 324.05 198.91 328.03C198.91 332.01 194.49 342.61 194.49 342.61C194.49 342.61 185.66 346.14 184.77 347.47C183.89 348.79 180.8 354.98 180.8 354.98L167.11 348.36C167.11 348.36 153.86 346.15 152.98 357.19C152.1 368.23 138.85 372.65 138.85 372.65L131.34 368.68C131.34 368.68 140.17 372.65 124.72 377.07C109.26 381.49 103.96 377.07 103.96 377.07C103.96 377.07 87.62 370 87.62 368.24C87.62 366.48 84.09 359.41 82.32 362.5C80.55 365.59 77.46 372.66 77.46 372.66L69.23 379.04" stroke="#B1B2B3" stroke-miterlimit="10"/>
<path d="M40.3301 456.11L51.8101 478.2H72.1301C72.1301 478.2 72.1301 508.24 85.8201 511.33C99.5101 514.42 124.25 526.35 124.25 526.35C124.25 526.35 148.1 547.55 148.1 549.32C148.1 551.09 151.63 578.03 151.63 578.03C151.63 578.03 154.72 581.56 148.1 583.33C141.47 585.1 137.5 581.12 138.38 586.42C139.26 591.72 140.59 593.93 143.68 597.46C146.77 600.99 156.49 616.01 144.56 618.22C132.63 620.43 126.89 633.68 126.89 633.68L128.21 645.61C128.21 645.61 119.38 646.93 115.4 654.44C111.42 661.95 107.89 669.46 102.15 675.2C96.4101 680.94 84.0401 688.45 84.0401 688.45" stroke="#B1B2B3" stroke-miterlimit="10"/>
<path d="M315.07 728.64L311.98 724.66L309.77 718.48C309.77 718.48 302.7 722.01 302.26 718.48C301.82 714.95 289.01 684.91 286.36 681.82C283.71 678.73 266.93 666.8 266.93 665.04C266.93 663.28 274.88 663.27 274.44 656.65C274 650.02 266.93 630.59 266.93 630.59C266.93 630.59 273.11 630.15 281.95 628.38C290.78 626.61 293.43 627.5 293.43 625.73C293.43 623.96 289.01 604.09 291 601.44C292.99 598.79 293.87 594.81 295.2 587.75C296.52 580.68 278.41 579.8 299.62 572.29C320.82 564.78 346.88 550.21 346.88 550.21C346.88 550.21 348.65 544.91 354.83 546.23C361.01 547.55 364.55 548.88 367.2 549.32C369.85 549.76 375.59 549.76 375.59 549.76C375.59 549.76 384.86 562.13 385.75 569.19C386.63 576.26 406.95 582.44 406.95 582.44C406.95 582.44 422.41 573.61 424.18 575.37C425.95 577.14 444.06 600.99 444.06 600.99" stroke="#B1B2B3" stroke-miterlimit="10"/>
<path d="M522.67 515.3C518.71 500.79 512.23 493.81 506.77 490.12C501.91 486.84 497.85 486.16 494.84 481.29C491.07 475.17 494.73 471.81 492.63 462.3C489.82 449.53 481.1 445.96 483.35 439.33C484.31 436.5 486.03 436.77 492.18 431.38C498.77 425.6 504.09 420.94 505.43 415.04C507.83 404.48 496.73 393.45 497.48 392.95C498.01 392.6 502.87 398.61 502.78 398.69C502.64 398.81 490.86 387.5 485.11 373.07C483.18 368.22 482.38 364.16 482.02 361.14C481.75 358.93 481.15 353.95 482.02 350.1C484.08 340.96 493.6 341.76 506.31 329.34C509.63 326.1 516.87 319.02 521.77 307.7C524.48 301.42 526.43 287.26 527.76 287.23C529.74 287.17 531.13 305.86 535.46 342.16C539.15 342.81 544.72 343.35 551.36 342.16C553.6 341.76 553.91 341.53 555.78 341.28C561.43 340.51 571.46 340.87 573.89 345.7C575.36 348.63 573.52 352.17 570.36 358.07C564 369.92 558.96 370.48 558.88 375.74C558.85 377.61 559.45 379.6 573.46 393.85C582.99 403.54 583.19 403.11 584.94 405.78C591.75 416.13 587.68 421.14 593.77 427.87C600.14 434.9 607.84 433.04 609.67 438.91C611.24 443.95 606.09 447.02 606.58 452.6C606.97 457.11 611.01 462.91 626.46 468.94" stroke="#B1B2B3" stroke-miterlimit="10"/>
<path d="M724.52 439.77C722.69 438.78 720.07 437.3 717.01 435.35C711.6 431.92 708.9 430.21 706.85 427.84C703.47 423.95 704.6 422.55 700.67 417.24C697.37 412.78 696.19 413.24 693.6 409.73C688.95 403.42 690.66 399.11 687.86 394.27C684.35 388.22 678.95 391.39 668.87 384.99C661.87 380.55 663.65 378.89 656.06 373.51C647.66 367.55 644.65 369 635.3 362.47C629.43 358.36 624.41 354.76 624.7 350.1C624.94 346.17 628.86 343.05 631.77 341.71C636.12 339.7 639.25 341.19 645.46 341.27C652.05 341.35 656.89 339.78 661.8 338.18C671.71 334.96 673.9 330.7 684.33 324.49C694.44 318.47 696.24 320.37 705.97 315.22C711.59 312.24 719.56 307.19 728.06 298.43" stroke="#B1B2B3" stroke-miterlimit="10"/>
<path d="M631.18 182.85C630.01 184.03 627.96 185.84 625 187.12C616.45 190.82 608.37 186.12 606.74 189.48C604.93 193.21 611.22 198.19 609.1 201.85C606.4 206.5 592.61 204.8 592.61 204.8C585.3 209.34 580.92 214.42 578.48 217.76C574.96 222.57 573.19 227.25 569.64 236.61C566.06 246.07 565.65 249.98 565.52 251.92C565.07 258.74 566.98 260.63 566.7 264.29C565.53 279.45 530.15 292.61 524.3 285.49C521.56 282.16 527.35 276.92 524.3 268.41C521.64 261 514.52 257.36 511.93 256.04C510.49 255.3 501.39 250.66 492.5 253.68C489.73 254.62 489.35 255.5 486.61 256.04C481.51 257.03 476.83 255.14 473.06 253.1C459.83 245.92 460.46 238.37 448.32 231.31C440.17 226.57 437.11 228.37 433.6 223.65C427.96 216.09 431.89 206.15 428.3 204.8C425.27 203.66 423.1 210.96 414.75 213.63C408.94 215.49 407.29 212.82 395.9 213.63C387.45 214.23 387.36 215.78 384.12 214.81C375.79 212.32 370.09 200.24 371.16 190.66C371.5 187.64 372.18 187.81 372.34 184.77C372.72 177.4 368.94 171.73 365.86 167.1C362.85 162.59 361.3 160.32 358.79 160.03C354.99 159.59 353.64 163.98 349.37 164.15C344.68 164.34 343.33 159.18 337.59 156.5C330.77 153.3 326.77 157.82 319.33 157.09C302.71 155.45 287.92 129.47 293.42 119.4C294.96 116.59 297.78 115.55 297.54 112.92C297.13 108.39 288.43 108.21 286.35 102.32C284.92 98.26 288.14 95.8 288.71 90.54C289.19 86.14 287.84 79.51 278.7 70.52" stroke="#B1B2B3" stroke-miterlimit="10"/>
<path d="M207.29 235.26C230.43 219.92 242.04 220.13 248.37 223.78C253.73 226.87 262.86 236.76 268.69 244.98C270.43 247.43 272.67 250.85 277.08 253.37C280.95 255.58 284.81 256.15 290.33 256.9C293.76 257.37 296.28 257.52 302.7 257.78C314.98 258.27 321.23 258.52 326.55 258.22C332.99 257.86 336.21 257.69 339.36 256.9C342.79 256.04 347.18 254.46 363.21 242.32C376.21 232.48 378.37 229.7 380 226.42C382.54 221.28 383.04 216.37 383.09 213.17" stroke="#B1B2B3" stroke-miterlimit="10"/>
<path d="M340.69 256.02C346.38 260.17 349.51 264.45 351.29 267.5C352.83 270.14 354.08 273.23 356.59 279.43C359.5 286.62 358.94 286.14 359.68 287.38C365.02 296.28 376.73 292.09 381.32 299.31C383.39 302.57 381.82 309.28 378.67 322.72C377.27 328.7 376.24 333.01 373.81 338.62C371.33 344.35 368.96 349.69 363.65 354.52C360.66 357.24 356.95 360.62 351.72 361.15C344.4 361.89 343.15 356.15 335.38 354.97C323.36 353.15 317.55 365.56 305.79 362.48C304.68 362.19 300.64 361.08 297.4 357.62C292.59 352.49 295.07 348.11 291.22 344.37C285.99 339.29 274.96 341.08 268.25 344.81C265.16 346.53 263.13 348.58 262.51 349.23C256.33 355.7 257.54 361.83 252.79 364.69C249.51 366.67 245.62 365.74 243.07 365.13C232.63 362.64 232.9 353.37 222.31 349.23C216.32 346.89 214.62 349.23 205.53 346.14C200.69 344.5 196.95 342.41 194.49 340.84" stroke="#B1B2B3" stroke-miterlimit="10"/>
<path d="M123.37 376.61C137.31 382.37 142.18 389.08 143.69 394.72C146.05 403.54 139.68 407.84 142.36 417.25C145.14 426.98 153.04 426.17 159.59 438.45C162.42 443.75 163.24 449.05 164.89 459.65C167.16 474.26 165.25 476.12 167.98 489.24C169.93 498.59 171.09 503.83 175.49 508.67C177.89 511.31 180.13 512.61 182.56 516.62C185.35 521.24 185.15 524.1 186.53 528.55C190.11 539.99 197.42 540.13 198.46 547.54C199.84 557.41 188.51 568.95 183.44 567.42C178.68 565.98 181.44 553.6 176.37 551.96C170.65 550.11 160.06 563.63 154.73 574.93C153.7 577.12 152.98 578.98 152.52 580.23" stroke="#B1B2B3" stroke-miterlimit="10"/>
<path d="M196.25 542.69C206.1 544.05 211.85 547.68 215.24 550.64C220.54 555.27 219.83 558.07 226.72 564.77C233.89 571.74 237.76 571.71 239.09 576.25C240.82 582.17 235.49 586.36 234.23 591.71C232.47 599.19 238.2 611.03 267.8 630.58" stroke="#B1B2B3" stroke-miterlimit="10"/>
<path d="M183.88 516.33C187.35 513.95 192.57 511.15 199.19 510.44C208.48 509.45 211.16 513.6 215.68 511.62C225.7 507.23 219.55 483.81 230.4 478.64C235.57 476.18 238.33 480.84 243.36 478.05C251.84 473.35 245.66 459.12 256.32 448.6C259.27 445.69 262.59 443.98 262.8 440.35C262.98 437.3 260.81 435.39 257.5 431.52C252.01 425.09 245.29 417.22 243.95 407.96C243.4 404.14 244.43 404.65 243.95 397.95C243.36 389.6 241.64 387.14 241.59 382.64C241.55 378.64 242.82 372.81 249.25 365.56" stroke="#B1B2B3" stroke-miterlimit="10"/>
<path d="M253.97 448.02C258.87 455.19 262.02 461.39 263.98 465.69C266.35 470.9 268.42 476.47 272.81 485.12C277.64 494.63 279.24 495.95 281.06 496.31C284.91 497.08 286.83 492.95 295.78 488.06C301.69 484.84 306.65 483.47 309.32 482.76C317.27 480.63 326.26 478.22 329.93 482.17C333.69 486.21 327.67 492.4 331.11 502.78C331.7 504.55 334.31 512.42 340.53 514.56C347.77 517.04 353.65 509.62 357.02 512.2C360.27 514.69 357.56 523.73 354.66 533.4C353.05 538.77 351.32 543.17 349.95 546.36" stroke="#B1B2B3" stroke-miterlimit="10"/>
<path d="M331.12 482.17C332.62 476.12 335.64 468.44 342.31 462.74C353.8 452.92 368.07 455.81 371.17 447.43C373.06 442.32 368.09 440.33 368.81 431.53C369.46 423.66 373.66 422.46 378.23 411.51C383.38 399.18 383.16 388.49 383.53 388.54C383.86 388.59 382.92 396.81 382.35 396.79C381.52 396.75 384.49 379.38 377.64 375.59C373.55 373.33 369.21 377.69 365.86 375.59C363.21 373.93 361.6 368.46 365.86 352.03" stroke="#B1B2B3" stroke-miterlimit="10"/>
<path d="M369.99 438C371.8 438 374.54 437.82 377.64 436.82C381.7 435.52 383.35 433.81 387.65 431.52C393.06 428.64 395.77 427.19 398.25 427.4C405.44 427.99 406.56 437.89 415.92 440.36C418.02 440.91 420.07 440.73 424.17 440.36C437.42 439.17 439.77 434.16 448.32 435.06C450.8 435.32 449.35 435.61 460.1 438.59C466.42 440.35 467.85 440.5 471.29 441.53C474.98 442.64 480.31 444.55 486.6 448.01" stroke="#B1B2B3" stroke-miterlimit="10"/>
<path fill-rule="evenodd" clip-rule="evenodd" d="M419.63 347.19L412.86 349.13C412.86 349.13 412.54 352.5 410.71 353.87C408.88 355.24 407.13 355.26 407.13 355.26C407.13 355.26 405.63 359.96 407.13 362.19C408.63 364.41 409.13 364.19 410.88 365.25C412.63 366.31 412.87 370.52 415.75 367.19C418.63 363.86 418.63 364.41 419.63 362.75C420.63 361.08 419.02 361.93 423 360.45C430.9 357.51 433.17 360.29 434.78 355.27C436.39 350.25 434.78 346.48 434.78 346.48C434.78 346.48 432.91 342.47 431.77 342.47C430.63 342.47 424.9 343.65 424.9 343.65L419.63 347.19V347.19Z" fill="#04CDCC"/>
</g>
<defs>
<clipPath id="clip0_151_7">
<rect width="769.9" height="788.76" fill="white"/>
</clipPath>
</defs>
</svg>
