<svg width="20" height="20" viewBox="0 0 20 20" fill="none" xmlns="http://www.w3.org/2000/svg">
<g clip-path="url(#clip0_263_16933)">
<path d="M10.0072 20C4.4895 20 0 15.5105 0 10.0072C0 4.50398 4.4895 0 10.0072 0C15.525 0 20.0145 4.4895 20.0145 10.0072C20.0145 15.525 15.525 20.0145 10.0072 20.0145V20ZM10.0072 0.724113C4.88052 0.724113 0.724113 4.88052 0.724113 10.0072C0.724113 15.134 4.88052 19.2904 10.0072 19.2904C15.134 19.2904 19.2904 15.134 19.2904 10.0072C19.2904 4.88052 15.1195 0.724113 10.0072 0.724113Z" fill="white"/>
<path d="M8.44306 15.438C8.32721 15.438 8.21135 15.3656 8.15342 15.2787L4.85146 10.2099C4.73561 10.0362 4.79354 9.81893 4.95284 9.70307C5.12663 9.58721 5.34386 9.64514 5.45972 9.80445L8.48651 14.4532L14.5835 6.45904C14.6994 6.29974 14.9311 6.27077 15.0904 6.38663C15.2497 6.50249 15.2787 6.73421 15.1628 6.89351L8.74719 15.2932C8.67478 15.3801 8.5734 15.438 8.45755 15.438H8.44306Z" fill="#00CCCC"/>
</g>
<defs>
<clipPath id="clip0_263_16933">
<rect width="20" height="20" fill="white"/>
</clipPath>
</defs>
</svg>
