<svg width="82" height="83" viewBox="0 0 82 83" fill="none" xmlns="http://www.w3.org/2000/svg">
<path d="M81.5 41.5C81.5 64.1325 63.3565 82.5 41 82.5C18.6435 82.5 0.5 64.1325 0.5 41.5C0.5 18.8674 18.6435 0.499998 41 0.499998C63.3565 0.499998 81.5 18.8674 81.5 41.5V41.5ZM3.89765 41.5C3.89765 62.2064 20.5461 79.0604 41 79.0604C61.4539 79.0604 78.1023 62.2064 78.1023 41.5C78.1023 20.7936 61.4539 3.9396 41 3.9396C20.5461 3.9396 3.89765 20.7936 3.89765 41.5V41.5ZM49.3582 41.5C49.3582 43.7701 48.4748 45.9715 46.9119 47.5537C45.2131 49.2735 42.8347 50.1678 40.3884 50.0302C40.3205 50.0302 40.2525 50.0302 40.1846 50.0302C38.2819 49.8238 36.4471 48.9983 35.0881 47.6225C33.6611 46.1779 32.7777 44.2517 32.7097 42.2567C32.5059 39.849 33.3893 37.3725 35.0881 35.6527C36.7869 33.9329 39.1653 33.0386 41.6116 33.1762L41.4757 34.896L41.6116 33.1762C43.5822 33.3138 45.4849 34.2081 46.9119 35.6527C48.3389 37.0973 49.2223 39.0235 49.3582 41.0872C49.3582 41.2936 49.3582 41.4312 49.3582 41.6376V41.5ZM40.7961 46.5906C42.1552 46.5906 43.5143 46.1091 44.4656 45.146C45.4849 44.1141 46.0285 42.6695 45.8926 41.2248C45.8247 40.0554 45.281 38.8859 44.4656 37.9916C43.5822 37.0973 42.495 36.6158 41.3398 36.547C39.7768 36.4782 38.4178 36.9597 37.3985 37.9916C36.3792 39.0235 35.8356 40.4681 35.9715 41.9128C36.0394 43.151 36.5831 44.2517 37.3985 45.146C38.2819 46.0403 39.3691 46.5218 40.5243 46.5906C40.5923 46.5906 40.6602 46.5906 40.7282 46.5906H40.7961Z" fill="#00CCCC"/>
<path d="M42 34.3932C42 35.3201 41.2366 36.0484 40.265 36.0484C39.8486 36.0484 39.4322 35.916 39.1546 35.6511C33.2555 30.8181 27.9811 27.5078 24.2334 26.0513C25.7602 29.6264 29.2997 34.658 34.2965 40.2856C34.5741 40.6166 34.7129 40.9476 34.7129 41.3448C34.7129 42.2717 33.9495 43 32.9779 43C32.3533 43 31.8675 42.7352 31.5205 42.2717C26.6625 36.7766 20.694 29.1629 20 23.8665C20 23.3368 20.1388 22.8734 20.4858 22.4761C20.8328 22.1451 21.388 21.9465 21.9432 22.0127C27.8423 22.741 36.5867 29.2291 41.306 33.0691C41.7224 33.4001 42 33.8636 42 34.3932V34.3932Z" fill="#00CCCC"/>
<path d="M61 59.3707C61 59.3707 61 59.5007 61 59.5656C60.8618 60.4753 60.0329 61.0601 59.0658 60.9951C53.5395 60.3453 45.6645 54.8874 40 50.4041L41.1053 49.1696L42.3487 48C49.602 53.7828 55.8882 57.3565 59.4803 57.8113C60.3783 57.9412 61 58.591 61 59.4357V59.3707Z" fill="#00CCCC"/>
<path d="M61 59.3074C61 60.1116 60.3944 60.8489 59.5198 60.9829C58.5778 61.117 57.7704 60.4467 57.6358 59.5084C57.1648 56.0233 53.4643 49.9243 47.4087 42.7529C46.8032 42.0157 46.8705 41.0104 47.6106 40.4072C48.3507 39.804 49.36 39.871 49.9655 40.6082C54.6081 46.104 60.2599 53.7445 60.9327 59.0393C60.9327 59.1063 60.9327 59.1733 60.9327 59.2403L61 59.3074Z" fill="#00CCCC"/>
</svg>
