<svg width="536" height="194" viewBox="0 0 536 194" fill="none" xmlns="http://www.w3.org/2000/svg">
<path fill-rule="evenodd" clip-rule="evenodd" d="M168.97 117.32C165.28 116.87 162.73 115.54 161.33 113.32C159.94 111.1 159.51 107.65 160.07 102.99C160.52 98.55 161.78 95.5 163.85 93.83C165.92 92.16 168.86 91.38 172.67 91.5C177.48 91.72 180.95 91.58 183.08 91.08C185.2 90.58 186.88 89.44 188.12 87.67L188.45 87.01C188.9 86.23 189.01 85.51 188.78 84.84C188.56 84.18 188 83.84 187.11 83.84H182.92C177.88 83.84 173.96 82.51 171.16 79.84C168.37 77.18 166.24 73.29 164.78 68.18L147.82 13.21C146.7 9.43 146.95 6.43 148.58 4.21C150.2 1.99 152.97 0.880005 156.89 0.880005H171.5C177.88 0.880005 181.86 4.05 183.43 10.38L194.18 55.68C194.51 57.12 195.24 57.85 196.37 57.85H197.04C198.39 57.85 199.17 57.07 199.39 55.52L211.31 10.22C212.77 4.00001 216.8 0.890003 223.4 0.890003H238C242.03 0.890003 244.89 1.98 246.57 4.14C248.25 6.3 248.47 9.28001 247.24 13.05L225.75 84.68C222.39 96.12 218.47 104.34 214 109.33C209.52 114.33 202.8 117.27 193.85 118.16C188.36 118.72 180.08 118.44 169 117.33L168.97 117.32Z" fill="#000003"/>
<path fill-rule="evenodd" clip-rule="evenodd" d="M520.31 87.85C507.06 89.39 501.14 85.6 494.08 81.06C486.89 76.45 477.94 70.7 463.69 70.7C444.69 70.7 429.04 81.87 419.61 102.15C416.64 108.53 414.9 112.17 413.87 114.39C412.67 116.96 412.44 117.63 412.36 118.43H446.3C446.3 118.43 458.48 95.84 478.57 107.78C496.47 118.43 504.87 122.39 530.38 114.86L520.31 87.84V87.85Z" fill="white"/>
<path fill-rule="evenodd" clip-rule="evenodd" d="M333.21 118.37C319.86 118.37 303.1 114.98 296.58 112.06C295.03 111.29 293.32 110.68 293.32 108.98V91.12C293.32 89.42 294.71 88.04 296.42 88.04H296.58C304.8 88.65 319.71 89.58 330.1 89.58C339.1 89.58 341.27 85.58 341.27 80.96C341.27 76.34 338.94 72.33 332.11 72.33H312.79C311.08 72.33 309.69 70.95 309.69 69.26V49.39C309.69 47.69 311.08 46.31 312.79 46.31H330.24C337.84 46.31 341.11 42.15 341.11 37.54C341.11 32.61 337.7 29.69 330.09 29.69C319.69 29.69 305.88 30.77 297.65 31.23H297.5C295.8 31.23 294.4 29.84 294.4 28.15V8.16003C294.4 6.46003 296.11 5.85002 297.66 5.08002C304.18 2.15002 319.86 0.900024 333.2 0.900024C361.14 0.900024 373.49 12.48 373.49 33.39C373.49 46.63 370.29 53.56 362.23 58.79C371.85 63.57 376.66 72.34 376.66 84.35C376.66 108.99 361.14 118.38 333.2 118.38L333.21 118.37Z" fill="#000003"/>
<path fill-rule="evenodd" clip-rule="evenodd" d="M45.8099 28.94C47.3199 27.37 50.4899 26.59 55.2999 26.59H62.3599C64.5999 26.59 65.7199 27.71 65.7199 29.95V47.07C65.7199 49.31 64.5999 50.43 62.3599 50.43H55.2999C50.4899 50.43 47.3199 49.65 45.8099 48.08C44.2999 46.52 43.5399 43.33 43.5399 38.51C43.5399 33.69 44.2999 30.51 45.8099 28.94V28.94ZM91.7399 1.73002C83.2299 1.18002 70.7999 0.900024 54.4599 0.900024C38.1199 0.900024 25.2699 3.47003 17.9399 8.62003C10.6099 13.77 6.93992 22.95 6.93992 36.16C6.93992 42.45 7.99992 47.67 10.1199 51.8C13.1599 58.93 18.1999 65 24.5499 69.3C23.9199 70.39 23.3299 71.53 22.7899 72.74L5.42992 106.35C3.94992 110.16 3.85992 113.12 5.15992 115.24C6.44992 117.37 9.05992 118.43 12.9799 118.43H28.7699C35.3799 118.43 39.8499 115.18 42.1799 108.69L58.2499 76.14H62.7199C64.6999 76.27 65.7099 77.36 65.7099 79.47V107.52C65.7099 114.8 69.3499 118.43 76.6199 118.43H91.2199C98.4999 118.43 102.14 114.8 102.14 107.52V12.99C102.14 5.82002 98.6699 2.07002 91.7399 1.73002V1.73002Z" fill="#000003"/>
<path fill-rule="evenodd" clip-rule="evenodd" d="M24.5002 176.91C24.5002 179.04 24.1102 180.78 23.3302 182.16C22.5502 183.54 21.4902 184.63 20.1502 185.44C18.8102 186.25 17.2602 186.81 15.5002 187.13C13.7402 187.45 11.9002 187.61 9.98024 187.61C8.32024 187.61 6.80024 187.58 5.41024 187.51C4.02024 187.44 2.84023 187.33 1.88023 187.16C1.32023 187.09 0.900236 186.93 0.640236 186.66C0.380236 186.39 0.240234 185.94 0.240234 185.3V151.73C0.240234 150.59 0.770238 149.97 1.83024 149.86C2.66024 149.76 3.78024 149.67 5.19024 149.58C6.60024 149.5 8.11023 149.45 9.74023 149.45C11.7302 149.45 13.6002 149.6 15.3602 149.9C17.1202 150.2 18.6602 150.72 19.9802 151.46C21.3102 152.19 22.3602 153.18 23.1402 154.43C23.9202 155.67 24.3102 157.25 24.3102 159.16V159.97C24.3102 161.85 23.8502 163.47 22.9202 164.83C21.9902 166.19 20.6802 167.21 18.9902 167.88C20.7102 168.48 22.0602 169.51 23.0402 170.95C24.0202 172.4 24.5102 174.1 24.5102 176.05V176.91H24.5002ZM19.7802 159.18C19.7802 157.97 19.5402 156.99 19.0602 156.23C18.5802 155.47 17.9102 154.88 17.0302 154.44C16.1502 154 15.1102 153.71 13.8802 153.56C12.6602 153.41 11.2902 153.33 9.77023 153.33C8.91023 153.33 8.06024 153.35 7.19024 153.38C6.33024 153.41 5.56024 153.45 4.86024 153.48V165.98H12.4902C13.9102 165.98 15.0902 165.82 16.0402 165.5C16.9802 165.18 17.7302 164.74 18.2902 164.19C18.8402 163.64 19.2302 163 19.4502 162.27C19.6702 161.55 19.7702 160.78 19.7702 159.98V159.17L19.7802 159.18ZM19.9802 176.04C19.9802 175.19 19.8602 174.39 19.6302 173.61C19.4002 172.83 18.9902 172.15 18.4202 171.56C17.8402 170.97 17.0702 170.49 16.1202 170.14C15.1602 169.79 13.9502 169.61 12.5002 169.61H4.87024V183.52C5.70024 183.55 6.54023 183.6 7.42023 183.65C8.30023 183.7 9.16023 183.73 10.0202 183.73C11.5402 183.73 12.9202 183.63 14.1502 183.43C15.3902 183.23 16.4402 182.88 17.3002 182.36C18.1602 181.86 18.8202 181.17 19.2802 180.29C19.7402 179.42 19.9802 178.29 19.9802 176.9V176.04V176.04ZM74.3402 186.25C74.3402 186.52 74.2602 186.75 74.0902 186.96C73.9202 187.16 73.7102 187.26 73.4402 187.26H70.7102C70.4402 187.26 70.2302 187.16 70.0602 186.96C69.8902 186.76 69.8102 186.52 69.8102 186.25V150.76C69.8102 150.49 69.8902 150.26 70.0602 150.08C70.2302 149.9 70.4402 149.8 70.7102 149.8H73.4402C73.7102 149.8 73.9202 149.89 74.0902 150.08C74.2602 150.27 74.3402 150.49 74.3402 150.76V186.25ZM63.4502 176.92C63.4502 179.04 63.0602 180.78 62.2802 182.16C61.5002 183.54 60.4402 184.63 59.1002 185.44C57.7602 186.25 56.2102 186.81 54.4502 187.13C52.6902 187.45 50.8502 187.61 48.9302 187.61C47.2702 187.61 45.7502 187.58 44.3602 187.51C42.9702 187.44 41.7902 187.33 40.8302 187.16C40.2702 187.09 39.8502 186.93 39.5902 186.66C39.3302 186.39 39.1902 185.94 39.1902 185.3V150.77C39.1902 150.5 39.2702 150.27 39.4402 150.09C39.6102 149.91 39.8202 149.81 40.0902 149.81H42.8202C43.0902 149.81 43.3002 149.9 43.4702 150.09C43.6402 150.27 43.7202 150.5 43.7202 150.77V165.54C44.4802 165.47 45.3002 165.42 46.1802 165.39C47.0602 165.36 47.9802 165.34 48.9402 165.34C50.8602 165.34 52.7002 165.5 54.4602 165.82C56.2202 166.14 57.7702 166.71 59.1102 167.53C60.4502 168.35 61.5102 169.45 62.2902 170.83C63.0702 172.21 63.4602 173.96 63.4602 176.07V176.93L63.4502 176.92ZM58.9302 176.01C58.9302 174.67 58.7002 173.55 58.2302 172.66C57.7702 171.77 57.1002 171.07 56.2402 170.57C55.3802 170.07 54.3302 169.71 53.0802 169.51C51.8402 169.31 50.4502 169.21 48.9302 169.21C48.0702 169.21 47.2002 169.23 46.3202 169.26C45.4402 169.29 44.5702 169.34 43.7102 169.41V183.52C44.5402 183.55 45.4002 183.6 46.2902 183.65C47.1802 183.7 48.0602 183.73 48.9202 183.73C50.4402 183.73 51.8302 183.63 53.0702 183.43C54.3102 183.23 55.3602 182.88 56.2302 182.37C57.0902 181.87 57.7502 181.18 58.2202 180.3C58.6802 179.43 58.9202 178.3 58.9202 176.92V176.01H58.9302ZM111.9 185.94C111.9 186.24 111.8 186.47 111.6 186.62C111.4 186.77 111.17 186.88 110.9 186.95C110.37 187.05 109.84 187.14 109.31 187.23C108.78 187.31 108.2 187.38 107.57 187.43C106.94 187.48 106.23 187.52 105.43 187.56C104.63 187.59 103.71 187.61 102.65 187.61C101.13 187.61 99.5902 187.37 98.0302 186.9C96.4702 186.43 95.0602 185.6 93.8102 184.4C92.5502 183.21 91.5202 181.61 90.7302 179.61C89.9302 177.61 89.5402 175.08 89.5402 172.02V165.01C89.5402 161.92 89.9402 159.37 90.7302 157.37C91.5302 155.37 92.5502 153.78 93.8102 152.61C95.0702 151.43 96.4802 150.61 98.0302 150.14C99.5902 149.67 101.13 149.43 102.65 149.43C104.17 149.43 105.76 149.52 107.2 149.71C108.64 149.89 109.91 150.07 111 150.24C111.53 150.31 111.8 150.53 111.8 150.9V153.47C111.8 153.64 111.75 153.78 111.65 153.9C111.55 154.02 111.35 154.06 111.05 154.03C110.59 154 110.03 153.95 109.38 153.9C108.73 153.85 108.04 153.8 107.29 153.75C106.54 153.7 105.77 153.66 104.98 153.62C104.18 153.59 103.42 153.57 102.69 153.57C101.46 153.57 100.33 153.76 99.2902 154.15C98.2502 154.54 97.3402 155.17 96.5602 156.07C95.7802 156.96 95.1702 158.14 94.7202 159.6C94.2702 161.06 94.0502 162.87 94.0502 165.02V172.03C94.0502 174.15 94.2702 175.94 94.7202 177.4C95.1702 178.86 95.7802 180.04 96.5602 180.93C97.3402 181.82 98.2502 182.47 99.2902 182.87C100.33 183.27 101.47 183.47 102.69 183.47C103.39 183.47 104.12 183.45 104.9 183.42C105.68 183.39 106.44 183.35 107.19 183.32C107.94 183.29 108.62 183.24 109.25 183.19C109.88 183.14 110.43 183.1 110.89 183.06C111.55 182.99 111.88 183.26 111.88 183.87V185.94H111.9ZM149.56 152.88C149.56 153.41 149.25 153.68 148.62 153.68H138.93V186.24C138.93 186.51 138.85 186.74 138.68 186.95C138.51 187.15 138.3 187.25 138.03 187.25H135.3C135.03 187.25 134.82 187.15 134.65 186.95C134.48 186.75 134.4 186.51 134.4 186.24V153.68H124.71C124.45 153.68 124.21 153.61 124.01 153.48C123.81 153.35 123.71 153.15 123.71 152.88V150.7C123.71 150.43 123.81 150.21 124.01 150.05C124.21 149.88 124.44 149.8 124.71 149.8H148.62C149.25 149.8 149.56 150.1 149.56 150.7V152.88V152.88ZM185.93 186.44C185.93 186.98 185.65 187.25 185.09 187.25H182.16C181.93 187.25 181.75 187.17 181.61 187.02C181.48 186.87 181.38 186.69 181.31 186.49L178.08 174.9H165.21L162.03 186.49C161.96 186.69 161.85 186.87 161.68 187.02C161.51 187.17 161.33 187.25 161.13 187.25H158.2C157.64 187.25 157.36 186.98 157.36 186.44C157.36 186.27 157.38 186.15 157.41 186.09L166.6 153.28C166.8 152.51 167.09 151.88 167.47 151.39C167.85 150.9 168.27 150.52 168.74 150.23C169.2 149.94 169.69 149.74 170.21 149.63C170.72 149.51 171.21 149.45 171.68 149.45C172.15 149.45 172.62 149.5 173.12 149.6C173.62 149.7 174.1 149.89 174.56 150.18C175.02 150.47 175.45 150.85 175.83 151.34C176.21 151.83 176.5 152.46 176.7 153.23L185.9 186.09C185.93 186.16 185.95 186.27 185.95 186.44H185.93ZM172.61 154.33C172.44 153.73 172.13 153.42 171.67 153.42C171.17 153.42 170.84 153.72 170.68 154.33L166.16 170.91H177.14L172.62 154.33H172.61ZM223.84 176.9C223.84 179.03 223.45 180.77 222.67 182.15C221.89 183.53 220.83 184.62 219.49 185.43C218.15 186.24 216.6 186.8 214.84 187.12C213.08 187.44 211.24 187.6 209.32 187.6C207.66 187.6 206.14 187.57 204.75 187.5C203.36 187.43 202.18 187.32 201.22 187.15C200.66 187.08 200.24 186.92 199.98 186.65C199.72 186.38 199.58 185.93 199.58 185.29V151.72C199.58 150.58 200.11 149.96 201.17 149.85C202 149.75 203.12 149.66 204.53 149.57C205.94 149.49 207.45 149.44 209.08 149.44C211.07 149.44 212.94 149.59 214.7 149.89C216.46 150.19 218 150.71 219.32 151.45C220.65 152.18 221.7 153.17 222.48 154.42C223.26 155.66 223.65 157.24 223.65 159.15V159.96C223.65 161.84 223.19 163.46 222.26 164.82C221.33 166.18 220.02 167.2 218.33 167.87C220.05 168.47 221.4 169.5 222.38 170.94C223.36 172.39 223.85 174.09 223.85 176.04V176.9H223.84ZM219.12 159.17C219.12 157.96 218.88 156.98 218.4 156.22C217.92 155.46 217.25 154.87 216.37 154.43C215.49 153.99 214.45 153.7 213.22 153.55C212 153.4 210.63 153.32 209.11 153.32C208.25 153.32 207.4 153.34 206.53 153.37C205.67 153.4 204.9 153.44 204.2 153.47V165.97H211.83C213.25 165.97 214.43 165.81 215.38 165.49C216.32 165.17 217.07 164.73 217.63 164.18C218.18 163.63 218.57 162.99 218.79 162.26C219.01 161.54 219.11 160.77 219.11 159.97V159.16L219.12 159.17ZM219.32 176.03C219.32 175.18 219.2 174.38 218.97 173.6C218.74 172.82 218.33 172.14 217.76 171.55C217.18 170.96 216.41 170.48 215.46 170.13C214.5 169.78 213.29 169.6 211.84 169.6H204.21V183.51C205.04 183.54 205.88 183.59 206.76 183.64C207.64 183.69 208.5 183.72 209.36 183.72C210.88 183.72 212.26 183.62 213.49 183.42C214.73 183.22 215.78 182.87 216.64 182.35C217.5 181.85 218.16 181.16 218.62 180.28C219.08 179.41 219.32 178.28 219.32 176.89V176.03ZM262.45 186.14C262.62 186.38 262.68 186.62 262.65 186.87C262.62 187.12 262.42 187.25 262.05 187.25H258.17C257.74 187.25 257.37 187.08 257.08 186.75L243.06 169.46V186.25C243.06 186.52 242.98 186.75 242.81 186.96C242.64 187.16 242.43 187.26 242.16 187.26H239.43C239.16 187.26 238.95 187.16 238.78 186.96C238.61 186.76 238.53 186.52 238.53 186.25V150.76C238.53 150.49 238.62 150.26 238.8 150.08C238.98 149.9 239.21 149.8 239.47 149.8H242.1C242.36 149.8 242.59 149.89 242.77 150.08C242.95 150.26 243.04 150.49 243.04 150.76V167.04L257.35 150.25C257.52 150.08 257.66 149.96 257.77 149.9C257.89 149.83 258.08 149.8 258.34 149.8H261.92C262.32 149.8 262.54 149.93 262.59 150.18C262.64 150.43 262.59 150.66 262.42 150.86L247.46 168L262.42 186.15L262.45 186.14ZM303.19 186.44C303.19 186.98 302.91 187.25 302.35 187.25H299.42C299.19 187.25 299.01 187.17 298.87 187.02C298.74 186.87 298.64 186.69 298.57 186.49L295.34 174.9H282.47L279.29 186.49C279.22 186.69 279.11 186.87 278.94 187.02C278.77 187.17 278.59 187.25 278.39 187.25H275.46C274.9 187.25 274.62 186.98 274.62 186.44C274.62 186.27 274.64 186.15 274.67 186.09L283.87 153.28C284.07 152.51 284.36 151.88 284.74 151.39C285.12 150.9 285.54 150.52 286.01 150.23C286.47 149.94 286.96 149.74 287.48 149.63C287.99 149.51 288.48 149.45 288.95 149.45C289.42 149.45 289.89 149.5 290.39 149.6C290.89 149.7 291.37 149.89 291.83 150.18C292.29 150.47 292.72 150.85 293.1 151.34C293.48 151.83 293.77 152.46 293.97 153.23L303.17 186.09C303.2 186.16 303.22 186.27 303.22 186.44H303.19ZM289.87 154.33C289.7 153.73 289.39 153.42 288.93 153.42C288.43 153.42 288.1 153.72 287.94 154.33L283.42 170.91H294.4L289.88 154.33H289.87ZM341.2 183.11L349.6 153.26C349.8 152.49 350.09 151.87 350.47 151.38C350.85 150.89 351.27 150.51 351.74 150.22C352.2 149.93 352.69 149.73 353.21 149.62C353.72 149.5 354.21 149.44 354.68 149.44C355.15 149.44 355.62 149.49 356.12 149.59C356.62 149.69 357.1 149.88 357.56 150.17C358.02 150.46 358.45 150.84 358.83 151.33C359.21 151.82 359.5 152.44 359.7 153.21L368.05 183.11H369.44C370.04 183.11 370.33 183.43 370.33 184.08V192.29C370.33 192.56 370.25 192.79 370.08 193C369.91 193.2 369.7 193.3 369.43 193.3H366.7C366.43 193.3 366.22 193.2 366.05 193C365.88 192.8 365.8 192.56 365.8 192.29V187.25H343.28V192.29C343.28 192.56 343.2 192.79 343.03 193C342.86 193.2 342.65 193.3 342.38 193.3H339.65C339.38 193.3 339.17 193.2 339 193C338.83 192.8 338.75 192.56 338.75 192.29V184.08C338.75 183.81 338.83 183.58 339 183.39C339.17 183.21 339.38 183.11 339.65 183.11H341.19H341.2ZM345.92 183.11H363.42L355.62 154.33C355.45 153.73 355.14 153.42 354.68 153.42C354.18 153.42 353.85 153.72 353.69 154.33L345.94 183.11H345.92ZM408.83 171.77C408.83 174.56 408.5 176.95 407.84 178.95C407.18 180.95 406.24 182.59 405.05 183.86C403.86 185.14 402.44 186.08 400.79 186.68C399.15 187.28 397.34 187.59 395.39 187.59C393.44 187.59 391.63 187.29 389.99 186.68C388.34 186.07 386.92 185.13 385.73 183.86C384.54 182.58 383.59 180.94 382.91 178.95C382.23 176.95 381.89 174.56 381.89 171.77V165.27C381.89 162.48 382.23 160.09 382.91 158.09C383.59 156.09 384.53 154.45 385.73 153.18C386.92 151.9 388.34 150.96 389.99 150.36C391.63 149.76 393.44 149.45 395.39 149.45C397.34 149.45 399.15 149.75 400.79 150.36C402.44 150.96 403.86 151.91 405.05 153.18C406.24 154.46 407.18 156.1 407.84 158.09C408.5 160.09 408.83 162.48 408.83 165.27V171.77ZM404.21 165.27C404.21 163.15 404 161.36 403.59 159.88C403.18 158.4 402.6 157.19 401.83 156.25C401.07 155.31 400.14 154.63 399.06 154.21C397.97 153.79 396.75 153.58 395.39 153.58C394.03 153.58 392.81 153.79 391.72 154.21C390.63 154.63 389.7 155.31 388.92 156.25C388.14 157.19 387.55 158.4 387.14 159.88C386.73 161.36 386.52 163.16 386.52 165.27V171.77C386.52 173.89 386.73 175.68 387.14 177.16C387.55 178.64 388.13 179.85 388.9 180.79C389.67 181.73 390.6 182.41 391.7 182.83C392.81 183.25 394.04 183.46 395.39 183.46C396.74 183.46 397.97 183.25 399.06 182.83C400.15 182.41 401.07 181.73 401.83 180.79C402.59 179.85 403.17 178.64 403.59 177.16C404 175.68 404.21 173.88 404.21 171.77V165.27ZM454.05 186.24C454.05 186.51 453.95 186.74 453.75 186.95C453.56 187.15 453.33 187.25 453.06 187.25H450.66C450.4 187.25 450.16 187.15 449.97 186.95C449.77 186.75 449.67 186.51 449.67 186.24V156.35C449.67 156.11 449.62 156.1 449.52 156.3L442.4 171.22C442.14 171.72 441.85 172.09 441.56 172.33C441.26 172.56 440.79 172.68 440.16 172.68H437.87C437.24 172.68 436.77 172.56 436.47 172.33C436.17 172.09 435.89 171.73 435.63 171.22L428.51 156.3C428.41 156.1 428.36 156.12 428.36 156.35V186.24C428.36 186.51 428.26 186.74 428.06 186.95C427.87 187.15 427.64 187.25 427.37 187.25H424.97C424.7 187.25 424.47 187.15 424.28 186.95C424.08 186.75 423.98 186.51 423.98 186.24V151.26C423.98 150.86 424.12 150.51 424.39 150.23C424.67 149.94 425.01 149.8 425.4 149.8H428.6C429.06 149.8 429.4 149.86 429.62 149.98C429.84 150.1 430.03 150.32 430.19 150.66L438.42 167.95C438.59 168.32 438.78 168.5 439.02 168.5C439.26 168.5 439.45 168.32 439.62 167.95L447.85 150.66C448.02 150.32 448.21 150.1 448.42 149.98C448.64 149.86 448.97 149.8 449.44 149.8H452.64C453.03 149.8 453.37 149.94 453.65 150.23C453.92 150.52 454.06 150.86 454.06 151.26V186.24H454.05ZM496.18 171.77C496.18 174.56 495.85 176.95 495.19 178.95C494.53 180.95 493.59 182.59 492.4 183.86C491.21 185.14 489.79 186.08 488.14 186.68C486.5 187.28 484.69 187.59 482.74 187.59C480.79 187.59 478.98 187.29 477.34 186.68C475.69 186.07 474.27 185.13 473.08 183.86C471.89 182.58 470.94 180.94 470.26 178.95C469.58 176.95 469.24 174.56 469.24 171.77V165.27C469.24 162.48 469.58 160.09 470.26 158.09C470.94 156.09 471.88 154.45 473.08 153.18C474.27 151.9 475.69 150.96 477.34 150.36C478.98 149.76 480.79 149.45 482.74 149.45C484.69 149.45 486.5 149.75 488.14 150.36C489.79 150.96 491.21 151.91 492.4 153.18C493.59 154.46 494.53 156.1 495.19 158.09C495.85 160.09 496.18 162.48 496.18 165.27V171.77ZM491.56 165.27C491.56 163.15 491.35 161.36 490.94 159.88C490.53 158.4 489.95 157.19 489.18 156.25C488.42 155.31 487.49 154.63 486.4 154.21C485.31 153.79 484.09 153.58 482.73 153.58C481.37 153.58 480.15 153.79 479.06 154.21C477.97 154.63 477.04 155.31 476.26 156.25C475.48 157.19 474.89 158.4 474.48 159.88C474.07 161.36 473.86 163.16 473.86 165.27V171.77C473.86 173.89 474.07 175.68 474.48 177.16C474.89 178.64 475.47 179.85 476.24 180.79C477 181.73 477.94 182.41 479.04 182.83C480.15 183.25 481.38 183.46 482.73 183.46C484.08 183.46 485.31 183.25 486.4 182.83C487.49 182.41 488.41 181.73 489.18 180.79C489.94 179.85 490.52 178.64 490.94 177.16C491.35 175.68 491.56 173.88 491.56 171.77V165.27V165.27ZM535.58 176.9C535.58 179.03 535.19 180.77 534.41 182.15C533.63 183.53 532.57 184.62 531.23 185.43C529.89 186.24 528.34 186.8 526.58 187.12C524.82 187.44 522.98 187.6 521.06 187.6C519.4 187.6 517.88 187.57 516.49 187.5C515.1 187.43 513.92 187.32 512.96 187.15C512.4 187.08 511.98 186.92 511.72 186.65C511.46 186.38 511.32 185.93 511.32 185.29V151.72C511.32 150.58 511.85 149.96 512.91 149.85C513.74 149.75 514.86 149.66 516.27 149.57C517.68 149.49 519.19 149.44 520.82 149.44C522.81 149.44 524.68 149.59 526.44 149.89C528.2 150.19 529.74 150.71 531.06 151.45C532.39 152.18 533.44 153.17 534.22 154.42C535 155.66 535.39 157.24 535.39 159.15V159.96C535.39 161.84 534.93 163.46 534 164.82C533.07 166.18 531.76 167.2 530.07 167.87C531.79 168.47 533.14 169.5 534.12 170.94C535.1 172.39 535.59 174.09 535.59 176.04V176.9H535.58ZM530.86 159.17C530.86 157.96 530.62 156.98 530.14 156.22C529.66 155.46 528.99 154.87 528.11 154.43C527.23 153.99 526.19 153.7 524.96 153.55C523.74 153.4 522.37 153.32 520.85 153.32C519.99 153.32 519.14 153.34 518.27 153.37C517.41 153.4 516.64 153.44 515.94 153.47V165.97H523.57C524.99 165.97 526.17 165.81 527.12 165.49C528.06 165.17 528.81 164.73 529.37 164.18C529.92 163.63 530.31 162.99 530.53 162.26C530.75 161.54 530.85 160.77 530.85 159.97V159.16L530.86 159.17ZM531.06 176.03C531.06 175.18 530.94 174.38 530.71 173.6C530.48 172.82 530.07 172.14 529.5 171.55C528.92 170.96 528.15 170.48 527.2 170.13C526.24 169.78 525.03 169.6 523.58 169.6H515.95V183.51C516.78 183.54 517.62 183.59 518.5 183.64C519.38 183.69 520.24 183.72 521.1 183.72C522.62 183.72 524 183.62 525.23 183.42C526.47 183.22 527.52 182.87 528.38 182.35C529.24 181.85 529.9 181.16 530.36 180.28C530.82 179.41 531.06 178.28 531.06 176.89V176.03Z" fill="#1A1A18"/>
</svg>
